{
	"asset":{
		"generator":"Khronos glTF Blender I/O v4.1.63",
		"version":"2.0"
	},
	"scene":0,
	"scenes":[
		{
			"name":"Scene",
			"nodes":[
				0,
				1,
				2,
				6
			]
		}
	],
	"nodes":[
		{
			"mesh":0,
			"name":"cube",
			"translation":[
				-60,
				1.2989871501922607,
				60
			]
		},
		{
			"camera":0,
			"name":"main_camera",
			"rotation":[
				-0.22197675704956055,
				0.4149789810180664,
				0.10515595227479935,
				0.8760485053062439
			],
			"translation":[
				18.023963928222656,
				13.47314167022705,
				14.817015647888184
			]
		},
		{
			"mesh":1,
			"name":"floor",
			"scale":[
				62,
				0,
				62
			]
		},
		{
			"camera":1,
			"name":"player_camera",
			"translation":[
				0,
				0,
				10
			]
		},
		{
			"children":[
				3
			],
			"name":"camera_pivot"
		},
		{
			"mesh":2,
			"name":"player_mesh"
		},
		{
			"children":[
				4,
				5
			],
			"name":"player",
			"translation":[
				0,
				1,
				0
			]
		}
	],
	"cameras":[
		{
			"name":"Camera",
			"perspective":{
				"aspectRatio":1.7777777777777777,
				"yfov":0.39959648408210363,
				"zfar":100,
				"znear":0.10000000149011612
			},
			"type":"perspective"
		},
		{
			"name":"Camera.001",
			"perspective":{
				"aspectRatio":1.7777777777777777,
				"yfov":0.39959648408210363,
				"zfar":1000,
				"znear":0.10000000149011612
			},
			"type":"perspective"
		}
	],
	"materials":[
		{
			"doubleSided":true,
			"name":"Material",
			"pbrMetallicRoughness":{
				"baseColorFactor":[
					0.11431741714477539,
					0.2681983709335327,
					0.8005127906799316,
					1
				],
				"metallicFactor":0,
				"roughnessFactor":0.5
			}
		},
		{
			"doubleSided":true,
			"name":"floor",
			"pbrMetallicRoughness":{
				"baseColorFactor":[
					0.5045760273933411,
					0.21030034124851227,
					0.04181358218193054,
					1
				],
				"metallicFactor":0,
				"roughnessFactor":0.5
			}
		}
	],
	"meshes":[
		{
			"name":"Cube",
			"primitives":[
				{
					"attributes":{
						"POSITION":0,
						"NORMAL":1,
						"TEXCOORD_0":2
					},
					"indices":3,
					"material":0
				}
			]
		},
		{
			"name":"Plane",
			"primitives":[
				{
					"attributes":{
						"POSITION":4,
						"NORMAL":5,
						"TEXCOORD_0":6
					},
					"indices":7,
					"material":1
				}
			]
		},
		{
			"name":"Icosphere",
			"primitives":[
				{
					"attributes":{
						"POSITION":8,
						"NORMAL":9,
						"TEXCOORD_0":10
					},
					"indices":11
				}
			]
		}
	],
	"accessors":[
		{
			"bufferView":0,
			"componentType":5126,
			"count":4056,
			"max":[
				121,
				1,
				1
			],
			"min":[
				-1,
				-1,
				-120.99999237060547
			],
			"type":"VEC3"
		},
		{
			"bufferView":1,
			"componentType":5126,
			"count":4056,
			"type":"VEC3"
		},
		{
			"bufferView":2,
			"componentType":5126,
			"count":4056,
			"type":"VEC2"
		},
		{
			"bufferView":3,
			"componentType":5123,
			"count":6084,
			"type":"SCALAR"
		},
		{
			"bufferView":4,
			"componentType":5126,
			"count":4,
			"max":[
				1,
				0,
				1
			],
			"min":[
				-1,
				0,
				-1
			],
			"type":"VEC3"
		},
		{
			"bufferView":5,
			"componentType":5126,
			"count":4,
			"type":"VEC3"
		},
		{
			"bufferView":6,
			"componentType":5126,
			"count":4,
			"type":"VEC2"
		},
		{
			"bufferView":7,
			"componentType":5123,
			"count":6,
			"type":"SCALAR"
		},
		{
			"bufferView":8,
			"componentType":5126,
			"count":240,
			"max":[
				0.9510578513145447,
				1,
				0.9999999403953552
			],
			"min":[
				-0.9510578513145447,
				-1,
				-0.9999999403953552
			],
			"type":"VEC3"
		},
		{
			"bufferView":9,
			"componentType":5126,
			"count":240,
			"type":"VEC3"
		},
		{
			"bufferView":10,
			"componentType":5126,
			"count":240,
			"type":"VEC2"
		},
		{
			"bufferView":11,
			"componentType":5123,
			"count":240,
			"type":"SCALAR"
		}
	],
	"bufferViews":[
		{
			"buffer":0,
			"byteLength":48672,
			"byteOffset":0,
			"target":34962
		},
		{
			"buffer":0,
			"byteLength":48672,
			"byteOffset":48672,
			"target":34962
		},
		{
			"buffer":0,
			"byteLength":32448,
			"byteOffset":97344,
			"target":34962
		},
		{
			"buffer":0,
			"byteLength":12168,
			"byteOffset":129792,
			"target":34963
		},
		{
			"buffer":0,
			"byteLength":48,
			"byteOffset":141960,
			"target":34962
		},
		{
			"buffer":0,
			"byteLength":48,
			"byteOffset":142008,
			"target":34962
		},
		{
			"buffer":0,
			"byteLength":32,
			"byteOffset":142056,
			"target":34962
		},
		{
			"buffer":0,
			"byteLength":12,
			"byteOffset":142088,
			"target":34963
		},
		{
			"buffer":0,
			"byteLength":2880,
			"byteOffset":142100,
			"target":34962
		},
		{
			"buffer":0,
			"byteLength":2880,
			"byteOffset":144980,
			"target":34962
		},
		{
			"buffer":0,
			"byteLength":1920,
			"byteOffset":147860,
			"target":34962
		},
		{
			"buffer":0,
			"byteLength":480,
			"byteOffset":149780,
			"target":34963
		}
	],
	"buffers":[
		{
			"byteLength":150260,
			"uri":"sandbox.bin"
		}
	]
}
