<?xml version="1.0" encoding="UTF-8" standalone="no"?>
<!DOCTYPE svg PUBLIC "-//W3C//DTD SVG 1.1//EN"
 "http://www.w3.org/Graphics/SVG/1.1/DTD/svg11.dtd">
<!-- Generated by graphviz version 14.1.1 (20251213.1925)
 -->
<!-- Pages: 1 -->
<svg width="3440pt" height="872pt"
 viewBox="0.00 0.00 3440.00 872.00" xmlns="http://www.w3.org/2000/svg" xmlns:xlink="http://www.w3.org/1999/xlink">
<g id="graph0" class="graph" transform="scale(1 1) rotate(0) translate(4 868.22)">
<polygon fill="white" stroke="none" points="-4,4 -4,-868.22 3435.55,-868.22 3435.55,4 -4,4"/>
<g id="clust1" class="cluster">
<title>clusterLegend</title>
<polygon fill="none" stroke="black" points="8,-588.42 8,-856.22 544,-856.22 544,-588.42 8,-588.42"/>
<text xml:space="preserve" text-anchor="middle" x="276" y="-838.92" font-family="Times New Roman,serif" font-size="14.00">Legend</text>
</g>
<!-- legendNode0 -->
<g id="node1" class="node">
<title>legendNode0</title>
<polygon fill="none" stroke="black" points="288.29,-787.77 291.14,-787.87 293.95,-788.02 296.72,-788.22 299.44,-788.46 302.1,-788.75 304.68,-789.09 307.18,-789.47 309.59,-789.9 311.89,-790.37 314.09,-790.88 316.17,-791.44 318.12,-792.03 319.94,-792.66 321.62,-793.33 323.17,-794.03 324.57,-794.76 325.82,-795.53 326.92,-796.32 327.87,-797.13 328.66,-797.97 329.31,-798.83 329.8,-799.71 330.15,-800.61 330.34,-801.52 330.4,-802.44 330.31,-803.37 330.08,-804.31 329.73,-805.25 329.24,-806.2 328.64,-807.14 327.92,-808.07 327.08,-809.01 326.14,-809.93 325.11,-810.84 323.98,-811.73 322.77,-812.61 321.48,-813.48 320.11,-814.32 318.68,-815.13 317.18,-815.92 315.63,-816.69 314.03,-817.42 312.39,-818.12 310.7,-818.79 308.98,-819.42 307.23,-820.01 305.46,-820.56 303.65,-821.08 301.83,-821.55 300,-821.98 298.14,-822.36 296.28,-822.7 294.4,-822.99 292.52,-823.23 290.63,-823.43 288.74,-823.58 286.85,-823.67 284.95,-823.72 283.05,-823.72 281.15,-823.67 279.26,-823.58 277.37,-823.43 275.48,-823.23 273.6,-822.99 271.72,-822.7 269.86,-822.36 268,-821.98 266.17,-821.55 264.35,-821.08 262.54,-820.56 260.77,-820.01 259.02,-819.42 257.3,-818.79 255.61,-818.12 253.97,-817.42 252.37,-816.69 250.82,-815.92 249.32,-815.13 247.89,-814.32 246.52,-813.48 245.23,-812.61 244.02,-811.73 242.89,-810.84 241.86,-809.93 240.92,-809.01 240.08,-808.07 239.36,-807.14 238.76,-806.2 238.27,-805.25 237.92,-804.31 237.69,-803.37 237.6,-802.44 237.66,-801.52 237.85,-800.61 238.2,-799.71 238.69,-798.83 239.34,-797.97 240.13,-797.13 241.08,-796.32 242.18,-795.53 243.43,-794.76 244.83,-794.03 246.38,-793.33 248.06,-792.66 249.88,-792.03 251.83,-791.44 253.91,-790.88 256.11,-790.37 258.41,-789.9 260.82,-789.47 263.32,-789.09 265.9,-788.75 268.56,-788.46 271.28,-788.22 274.05,-788.02 276.86,-787.87 279.71,-787.77 282.57,-787.72 285.43,-787.72 288.29,-787.77"/>
<text xml:space="preserve" text-anchor="middle" x="284" y="-801.45" font-family="Times New Roman,serif" font-size="12.00">Executable</text>
</g>
<!-- legendNode1 -->
<g id="node2" class="node">
<title>legendNode1</title>
<polygon fill="none" stroke="black" points="126.42,-715.33 126.42,-730.24 93.96,-740.79 48.04,-740.79 15.58,-730.24 15.58,-715.33 48.04,-704.79 93.96,-704.79 126.42,-715.33"/>
<text xml:space="preserve" text-anchor="middle" x="71" y="-718.51" font-family="Times New Roman,serif" font-size="12.00">Static Library</text>
</g>
<!-- legendNode0&#45;&gt;legendNode1 -->
<g id="edge1" class="edge">
<title>legendNode0&#45;&gt;legendNode1</title>
<path fill="none" stroke="black" d="M247.98,-792.25C217.69,-781.61 173.31,-765.71 135,-750.72 128.3,-748.1 121.24,-745.23 114.35,-742.38"/>
<polygon fill="black" stroke="black" points="115.73,-739.17 105.15,-738.53 113.03,-745.62 115.73,-739.17"/>
</g>
<!-- legendNode2 -->
<g id="node3" class="node">
<title>legendNode2</title>
<polygon fill="none" stroke="black" points="268.07,-715.33 268.07,-730.24 232.88,-740.79 183.12,-740.79 147.93,-730.24 147.93,-715.33 183.12,-704.79 232.88,-704.79 268.07,-715.33"/>
<polygon fill="none" stroke="black" points="272.07,-712.36 272.07,-733.22 233.47,-744.79 182.53,-744.79 143.93,-733.22 143.93,-712.36 182.53,-700.79 233.47,-700.79 272.07,-712.36"/>
<text xml:space="preserve" text-anchor="middle" x="208" y="-718.51" font-family="Times New Roman,serif" font-size="12.00">Shared Library</text>
</g>
<!-- legendNode0&#45;&gt;legendNode2 -->
<g id="edge2" class="edge">
<title>legendNode0&#45;&gt;legendNode2</title>
<path fill="none" stroke="black" d="M268.62,-788.35C259.2,-778.31 246.85,-765.17 235.77,-753.36"/>
<polygon fill="black" stroke="black" points="238.41,-751.06 229.01,-746.17 233.31,-755.85 238.41,-751.06"/>
</g>
<!-- legendNode3 -->
<g id="node4" class="node">
<title>legendNode3</title>
<polygon fill="none" stroke="black" points="423.65,-715.33 423.65,-730.24 386.95,-740.79 335.05,-740.79 298.35,-730.24 298.35,-715.33 335.05,-704.79 386.95,-704.79 423.65,-715.33"/>
<polygon fill="none" stroke="black" points="427.65,-712.32 427.65,-733.26 387.51,-744.79 334.49,-744.79 294.35,-733.26 294.35,-712.32 334.49,-700.79 387.51,-700.79 427.65,-712.32"/>
<polygon fill="none" stroke="black" points="431.65,-709.31 431.65,-736.27 388.08,-748.79 333.92,-748.79 290.35,-736.27 290.35,-709.31 333.92,-696.79 388.08,-696.79 431.65,-709.31"/>
<text xml:space="preserve" text-anchor="middle" x="361" y="-718.51" font-family="Times New Roman,serif" font-size="12.00">Module Library</text>
</g>
<!-- legendNode0&#45;&gt;legendNode3 -->
<!-- legendNode7 -->
<g id="node8" class="node">
<title>legendNode7</title>
<polygon fill="none" stroke="black" points="535.88,-740.79 450.12,-740.79 450.12,-704.79 535.88,-704.79 535.88,-740.79"/>
<text xml:space="preserve" text-anchor="middle" x="493" y="-718.51" font-family="Times New Roman,serif" font-size="12.00">Custom Target</text>
</g>
<!-- legendNode0&#45;&gt;legendNode7 -->
<!-- legendNode4 -->
<g id="node5" class="node">
<title>legendNode4</title>
<polygon fill="none" stroke="black" points="166.08,-619.98 91,-632.42 15.92,-619.98 44.6,-599.85 137.4,-599.85 166.08,-619.98"/>
<text xml:space="preserve" text-anchor="middle" x="91" y="-610.14" font-family="Times New Roman,serif" font-size="12.00">Interface Library</text>
</g>
<!-- legendNode1&#45;&gt;legendNode4 -->
<g id="edge4" class="edge">
<title>legendNode1&#45;&gt;legendNode4</title>
<path fill="none" stroke="black" stroke-dasharray="5,2" d="M74.21,-704.7C77.32,-688.16 82.09,-662.81 85.75,-643.34"/>
<polygon fill="black" stroke="black" points="89.17,-644.08 87.58,-633.6 82.29,-642.78 89.17,-644.08"/>
<text xml:space="preserve" text-anchor="middle" x="106.2" y="-663.55" font-family="Times New Roman,serif" font-size="14.00">Interface</text>
</g>
<!-- legendNode5 -->
<g id="node6" class="node">
<title>legendNode5</title>
<polygon fill="none" stroke="black" points="309.98,-614.42 278.49,-632.42 215.51,-632.42 184.02,-614.42 215.51,-596.42 278.49,-596.42 309.98,-614.42"/>
<text xml:space="preserve" text-anchor="middle" x="247" y="-610.14" font-family="Times New Roman,serif" font-size="12.00">Object Library</text>
</g>
<!-- legendNode2&#45;&gt;legendNode5 -->
<g id="edge5" class="edge">
<title>legendNode2&#45;&gt;legendNode5</title>
<path fill="none" stroke="black" stroke-dasharray="1,5" d="M215.8,-700.52C221.81,-684.13 230.17,-661.32 236.73,-643.44"/>
<polygon fill="black" stroke="black" points="239.95,-644.8 240.11,-634.21 233.38,-642.39 239.95,-644.8"/>
<text xml:space="preserve" text-anchor="middle" x="248.96" y="-663.55" font-family="Times New Roman,serif" font-size="14.00">Private</text>
</g>
<!-- legendNode6 -->
<g id="node7" class="node">
<title>legendNode6</title>
<polygon fill="none" stroke="black" points="472.18,-610.41 457.89,-625.64 400,-632.42 342.11,-625.64 327.82,-610.41 367.88,-598.2 432.12,-598.2 472.18,-610.41"/>
<text xml:space="preserve" text-anchor="middle" x="400" y="-610.14" font-family="Times New Roman,serif" font-size="12.00">Unknown Library</text>
</g>
<!-- legendNode3&#45;&gt;legendNode6 -->
<g id="edge6" class="edge">
<title>legendNode3&#45;&gt;legendNode6</title>
<path fill="none" stroke="black" d="M370.34,-696.31C376.27,-680.13 383.95,-659.2 390,-642.69"/>
<polygon fill="black" stroke="black" points="393.22,-644.09 393.37,-633.49 386.64,-641.68 393.22,-644.09"/>
</g>
<!-- node0 -->
<g id="node9" class="node">
<title>node0</title>
<polygon fill="none" stroke="black" points="1535.12,-787.77 1537.18,-787.87 1539.23,-788.02 1541.24,-788.22 1543.21,-788.46 1545.14,-788.75 1547.02,-789.09 1548.84,-789.47 1550.59,-789.9 1552.26,-790.37 1553.85,-790.88 1555.36,-791.44 1556.78,-792.03 1558.1,-792.66 1559.33,-793.33 1560.45,-794.03 1561.46,-794.76 1562.37,-795.53 1563.17,-796.32 1563.86,-797.13 1564.44,-797.97 1564.91,-798.83 1565.26,-799.71 1565.51,-800.61 1565.66,-801.52 1565.7,-802.44 1565.63,-803.37 1565.47,-804.31 1565.21,-805.25 1564.86,-806.2 1564.42,-807.14 1563.89,-808.07 1563.29,-809.01 1562.61,-809.93 1561.86,-810.84 1561.04,-811.73 1560.16,-812.61 1559.22,-813.48 1558.23,-814.32 1557.18,-815.13 1556.1,-815.92 1554.97,-816.69 1553.81,-817.42 1552.62,-818.12 1551.39,-818.79 1550.15,-819.42 1548.87,-820.01 1547.58,-820.56 1546.27,-821.08 1544.95,-821.55 1543.62,-821.98 1542.27,-822.36 1540.92,-822.7 1539.56,-822.99 1538.19,-823.23 1536.82,-823.43 1535.44,-823.58 1534.07,-823.67 1532.69,-823.72 1531.31,-823.72 1529.93,-823.67 1528.56,-823.58 1527.18,-823.43 1525.81,-823.23 1524.44,-822.99 1523.08,-822.7 1521.73,-822.36 1520.38,-821.98 1519.05,-821.55 1517.73,-821.08 1516.42,-820.56 1515.13,-820.01 1513.85,-819.42 1512.61,-818.79 1511.38,-818.12 1510.19,-817.42 1509.03,-816.69 1507.9,-815.92 1506.82,-815.13 1505.77,-814.32 1504.78,-813.48 1503.84,-812.61 1502.96,-811.73 1502.14,-810.84 1501.39,-809.93 1500.71,-809.01 1500.11,-808.07 1499.58,-807.14 1499.14,-806.2 1498.79,-805.25 1498.53,-804.31 1498.37,-803.37 1498.3,-802.44 1498.34,-801.52 1498.49,-800.61 1498.74,-799.71 1499.09,-798.83 1499.56,-797.97 1500.14,-797.13 1500.83,-796.32 1501.63,-795.53 1502.54,-794.76 1503.55,-794.03 1504.67,-793.33 1505.9,-792.66 1507.22,-792.03 1508.64,-791.44 1510.15,-790.88 1511.74,-790.37 1513.41,-789.9 1515.16,-789.47 1516.98,-789.09 1518.86,-788.75 1520.79,-788.46 1522.76,-788.22 1524.77,-788.02 1526.82,-787.87 1528.88,-787.77 1530.96,-787.72 1533.04,-787.72 1535.12,-787.77"/>
<text xml:space="preserve" text-anchor="middle" x="1532" y="-801.45" font-family="Times New Roman,serif" font-size="12.00">Engine</text>
</g>
<!-- node1 -->
<g id="node10" class="node">
<title>node1</title>
<polygon fill="none" stroke="black" points="2172.72,-509.97 2172.72,-533.12 2122.51,-549.48 2051.49,-549.48 2001.28,-533.12 2001.28,-509.97 2051.49,-493.61 2122.51,-493.61 2172.72,-509.97"/>
<text xml:space="preserve" text-anchor="middle" x="2087" y="-524.39" font-family="Times New Roman,serif" font-size="12.00">TracyClient</text>
<text xml:space="preserve" text-anchor="middle" x="2087" y="-510.14" font-family="Times New Roman,serif" font-size="12.00">(Tracy::TracyClient)</text>
</g>
<!-- node0&#45;&gt;node1 -->
<g id="edge9" class="edge">
<title>node0&#45;&gt;node1</title>
<path fill="none" stroke="black" stroke-dasharray="1,5" d="M1558.23,-792.52C1563.36,-790.59 1568.77,-788.86 1574,-787.72 1618.77,-777.99 1948.53,-796.1 1986,-769.72 2054.66,-721.4 2076.72,-617.73 2083.75,-561.22"/>
<polygon fill="black" stroke="black" points="2087.22,-561.74 2084.87,-551.41 2080.26,-560.95 2087.22,-561.74"/>
</g>
<!-- node3 -->
<g id="node12" class="node">
<title>node3</title>
<polygon fill="none" stroke="black" points="1458.24,-420.7 1445.52,-435.93 1394,-442.71 1342.48,-435.93 1329.76,-420.7 1365.41,-408.49 1422.59,-408.49 1458.24,-420.7"/>
<text xml:space="preserve" text-anchor="middle" x="1394" y="-420.43" font-family="Times New Roman,serif" font-size="12.00">Vulkan::Vulkan</text>
</g>
<!-- node0&#45;&gt;node3 -->
<g id="edge10" class="edge">
<title>node0&#45;&gt;node3</title>
<path fill="none" stroke="black" stroke-dasharray="1,5" d="M1528.22,-787.34C1513.79,-721.21 1462.58,-488.3 1454,-474.61 1447.17,-463.71 1437.07,-454.12 1427.08,-446.39"/>
<polygon fill="black" stroke="black" points="1429.42,-443.77 1419.28,-440.72 1425.31,-449.43 1429.42,-443.77"/>
</g>
<!-- node4 -->
<g id="node13" class="node">
<title>node4</title>
<polygon fill="none" stroke="black" points="693.78,-619.98 647,-632.42 600.22,-619.98 618.09,-599.85 675.91,-599.85 693.78,-619.98"/>
<text xml:space="preserve" text-anchor="middle" x="647" y="-610.14" font-family="Times New Roman,serif" font-size="12.00">asio::asio</text>
</g>
<!-- node0&#45;&gt;node4 -->
<g id="edge12" class="edge">
<title>node0&#45;&gt;node4</title>
<path fill="none" stroke="black" stroke-dasharray="1,5" d="M1498.06,-804.12C1332.25,-801.02 614.04,-785.61 583,-750.72 552.5,-716.44 594.52,-665.08 623.53,-636.51"/>
<polygon fill="black" stroke="black" points="625.75,-639.23 630.57,-629.8 620.91,-634.17 625.75,-639.23"/>
</g>
<!-- node6 -->
<g id="node15" class="node">
<title>node6</title>
<polygon fill="none" stroke="black" points="1097.93,-728.35 1060,-740.79 1022.07,-728.35 1036.56,-708.23 1083.44,-708.23 1097.93,-728.35"/>
<text xml:space="preserve" text-anchor="middle" x="1060" y="-718.51" font-family="Times New Roman,serif" font-size="12.00">dynalo</text>
</g>
<!-- node0&#45;&gt;node6 -->
<g id="edge14" class="edge">
<title>node0&#45;&gt;node6</title>
<path fill="none" stroke="black" stroke-dasharray="1,5" d="M1498.13,-804.63C1411.04,-803.94 1181.32,-799.3 1112,-769.72 1099.41,-764.35 1087.74,-754.69 1078.67,-745.61"/>
<polygon fill="black" stroke="black" points="1081.25,-743.24 1071.85,-738.35 1076.14,-748.04 1081.25,-743.24"/>
</g>
<!-- node8 -->
<g id="node17" class="node">
<title>node8</title>
<polygon fill="none" stroke="black" points="1004.3,-711.22 1004.3,-734.36 953.74,-750.72 882.26,-750.72 831.7,-734.36 831.7,-711.22 882.26,-694.85 953.74,-694.85 1004.3,-711.22"/>
<text xml:space="preserve" text-anchor="middle" x="918" y="-725.64" font-family="Times New Roman,serif" font-size="12.00">engine_application</text>
<text xml:space="preserve" text-anchor="middle" x="918" y="-711.39" font-family="Times New Roman,serif" font-size="12.00">(engine::application)</text>
</g>
<!-- node0&#45;&gt;node8 -->
<g id="edge17" class="edge">
<title>node0&#45;&gt;node8</title>
<path fill="none" stroke="black" stroke-dasharray="1,5" d="M1498.07,-804.35C1414.42,-802.74 1192.12,-794.35 1013,-750.72 1006.17,-749.06 999.09,-747.24 992.01,-745.35"/>
<polygon fill="black" stroke="black" points="992.96,-741.98 982.4,-742.74 991.13,-748.74 992.96,-741.98"/>
</g>
<!-- node9 -->
<g id="node18" class="node">
<title>node9</title>
<polygon fill="none" stroke="black" points="1231.54,-434.56 1152,-456.61 1072.46,-434.56 1102.84,-398.9 1201.16,-398.9 1231.54,-434.56"/>
<text xml:space="preserve" text-anchor="middle" x="1152" y="-427.56" font-family="Times New Roman,serif" font-size="12.00">engine_logger</text>
<text xml:space="preserve" text-anchor="middle" x="1152" y="-413.31" font-family="Times New Roman,serif" font-size="12.00">(engine::logger)</text>
</g>
<!-- node0&#45;&gt;node9 -->
<g id="edge48" class="edge">
<title>node0&#45;&gt;node9</title>
<path fill="none" stroke="black" stroke-dasharray="1,5" d="M1498.47,-804.78C1364.06,-804.65 869.36,-800.75 823,-750.72 743.03,-664.43 797.97,-571.67 886,-493.61 912.85,-469.79 1000.18,-450.5 1067.53,-438.65"/>
<polygon fill="black" stroke="black" points="1067.83,-442.15 1077.09,-436.99 1066.64,-435.25 1067.83,-442.15"/>
</g>
<!-- node10 -->
<g id="node19" class="node">
<title>node10</title>
<polygon fill="none" stroke="black" points="2764.54,-333.76 2685,-355.8 2605.46,-333.76 2635.84,-298.09 2734.16,-298.09 2764.54,-333.76"/>
<text xml:space="preserve" text-anchor="middle" x="2685" y="-326.75" font-family="Times New Roman,serif" font-size="12.00">engine_config</text>
<text xml:space="preserve" text-anchor="middle" x="2685" y="-312.5" font-family="Times New Roman,serif" font-size="12.00">(engine::config)</text>
</g>
<!-- node0&#45;&gt;node10 -->
<g id="edge18" class="edge">
<title>node0&#45;&gt;node10</title>
<path fill="none" stroke="black" stroke-dasharray="1,5" d="M1558.21,-792.44C1563.34,-790.52 1568.76,-788.81 1574,-787.72 1655.95,-770.75 2243.46,-774.76 2327,-769.72 2414.36,-764.45 2436.23,-762.13 2523,-750.72 2595.37,-741.21 2685,-796.78 2685,-723.79 2685,-723.79 2685,-723.79 2685,-423.71 2685,-405.13 2685,-384.59 2685,-367.08"/>
<polygon fill="black" stroke="black" points="2688.5,-367.57 2685,-357.57 2681.5,-367.57 2688.5,-367.57"/>
</g>
<!-- node11 -->
<g id="node20" class="node">
<title>node11</title>
<polygon fill="none" stroke="black" points="2267.85,-413.14 2267.85,-436.28 2219.32,-452.64 2150.68,-452.64 2102.15,-436.28 2102.15,-413.14 2150.68,-396.77 2219.32,-396.77 2267.85,-413.14"/>
<text xml:space="preserve" text-anchor="middle" x="2185" y="-427.56" font-family="Times New Roman,serif" font-size="12.00">engine_filesystem</text>
<text xml:space="preserve" text-anchor="middle" x="2185" y="-413.31" font-family="Times New Roman,serif" font-size="12.00">(engine::filesystem)</text>
</g>
<!-- node0&#45;&gt;node11 -->
<g id="edge20" class="edge">
<title>node0&#45;&gt;node11</title>
<path fill="none" stroke="black" stroke-dasharray="1,5" d="M1558.21,-792.46C1563.35,-790.53 1568.76,-788.82 1574,-787.72 1716.53,-757.93 2084.02,-783.22 2229,-769.72 2293.53,-763.72 2517,-788.6 2517,-723.79 2517,-723.79 2517,-723.79 2517,-567.48 2517,-533.58 2522.98,-516.53 2498,-493.61 2424.62,-426.28 2373.62,-480.76 2277,-456.61 2268.61,-454.51 2259.89,-452.01 2251.3,-449.36"/>
<polygon fill="black" stroke="black" points="2252.56,-446.09 2241.97,-446.39 2250.44,-452.76 2252.56,-446.09"/>
</g>
<!-- node12 -->
<g id="node21" class="node">
<title>node12</title>
<polygon fill="none" stroke="black" points="1085.17,-602.84 1085.17,-625.99 1051.09,-642.35 1002.91,-642.35 968.83,-625.99 968.83,-602.84 1002.91,-586.48 1051.09,-586.48 1085.17,-602.84"/>
<text xml:space="preserve" text-anchor="middle" x="1027" y="-617.27" font-family="Times New Roman,serif" font-size="12.00">engine_gui</text>
<text xml:space="preserve" text-anchor="middle" x="1027" y="-603.02" font-family="Times New Roman,serif" font-size="12.00">(engine::gui)</text>
</g>
<!-- node0&#45;&gt;node12 -->
<g id="edge33" class="edge">
<title>node0&#45;&gt;node12</title>
<path fill="none" stroke="black" stroke-dasharray="1,5" d="M1497.92,-803.39C1409.75,-799.68 1178.94,-788.29 1150,-769.72 1117.7,-749 1130.38,-725.28 1107,-694.85 1094.24,-678.25 1078.17,-661.64 1063.79,-647.94"/>
<polygon fill="black" stroke="black" points="1066.35,-645.55 1056.66,-641.27 1061.57,-650.66 1066.35,-645.55"/>
</g>
<!-- node13 -->
<g id="node22" class="node">
<title>node13</title>
<polygon fill="none" stroke="black" points="937.6,-430.27 892,-442.71 846.4,-430.27 863.82,-410.14 920.18,-410.14 937.6,-430.27"/>
<text xml:space="preserve" text-anchor="middle" x="892" y="-420.43" font-family="Times New Roman,serif" font-size="12.00">glm::glm</text>
</g>
<!-- node0&#45;&gt;node13 -->
<g id="edge72" class="edge">
<title>node0&#45;&gt;node13</title>
<path fill="none" stroke="black" stroke-dasharray="1,5" d="M1498.31,-805.21C1399.81,-806.16 1103.96,-805.56 862,-769.72 815.21,-762.79 766,-771.09 766,-723.79 766,-723.79 766,-723.79 766,-520.54 766,-477.68 813.12,-451.78 849.73,-438.12"/>
<polygon fill="black" stroke="black" points="850.51,-441.55 858.78,-434.93 848.18,-434.95 850.51,-441.55"/>
</g>
<!-- node15 -->
<g id="node24" class="node">
<title>node15</title>
<polygon fill="none" stroke="black" points="1412.6,-514.09 1412.6,-529 1395.26,-539.54 1370.74,-539.54 1353.4,-529 1353.4,-514.09 1370.74,-503.54 1395.26,-503.54 1412.6,-514.09"/>
<text xml:space="preserve" text-anchor="middle" x="1383" y="-517.27" font-family="Times New Roman,serif" font-size="12.00">imgui</text>
</g>
<!-- node0&#45;&gt;node15 -->
<g id="edge73" class="edge">
<title>node0&#45;&gt;node15</title>
<path fill="none" stroke="black" stroke-dasharray="1,5" d="M1511.37,-790.29C1504.6,-784.6 1497.64,-777.55 1493,-769.72 1450.35,-697.76 1491.54,-659.09 1450,-586.48 1440.24,-569.42 1424.53,-554.08 1410.77,-542.7"/>
<polygon fill="black" stroke="black" points="1413.29,-540.23 1403.28,-536.76 1408.94,-545.72 1413.29,-540.23"/>
</g>
<!-- node16 -->
<g id="node25" class="node">
<title>node16</title>
<polygon fill="none" stroke="black" points="1310.68,-430.27 1281,-442.71 1251.32,-430.27 1262.66,-410.14 1299.34,-410.14 1310.68,-430.27"/>
<text xml:space="preserve" text-anchor="middle" x="1281" y="-420.43" font-family="Times New Roman,serif" font-size="12.00">glfw</text>
</g>
<!-- node0&#45;&gt;node16 -->
<g id="edge71" class="edge">
<title>node0&#45;&gt;node16</title>
<path fill="none" stroke="black" stroke-dasharray="1,5" d="M1498.25,-803.97C1415.73,-800 1205.16,-776.61 1132,-642.35 1120.12,-620.55 1122.93,-609.6 1132,-586.48 1145.25,-552.7 1221.45,-480.02 1259.45,-445.15"/>
<polygon fill="black" stroke="black" points="1261.66,-447.88 1266.69,-438.55 1256.94,-442.71 1261.66,-447.88"/>
</g>
<!-- node23 -->
<g id="node32" class="node">
<title>node23</title>
<polygon fill="none" stroke="black" points="1257.17,-602.84 1257.17,-625.99 1223.09,-642.35 1174.91,-642.35 1140.83,-625.99 1140.83,-602.84 1174.91,-586.48 1223.09,-586.48 1257.17,-602.84"/>
<text xml:space="preserve" text-anchor="middle" x="1199" y="-617.27" font-family="Times New Roman,serif" font-size="12.00">engine_hid</text>
<text xml:space="preserve" text-anchor="middle" x="1199" y="-603.02" font-family="Times New Roman,serif" font-size="12.00">(engine::hid)</text>
</g>
<!-- node0&#45;&gt;node23 -->
<g id="edge47" class="edge">
<title>node0&#45;&gt;node23</title>
<path fill="none" stroke="black" stroke-dasharray="1,5" d="M1501.53,-795.23C1472.74,-785.72 1428.75,-769.78 1393,-750.72 1335.97,-720.32 1275.74,-676.16 1237.8,-646.65"/>
<polygon fill="black" stroke="black" points="1240.34,-644.19 1230.31,-640.78 1236.02,-649.7 1240.34,-644.19"/>
</g>
<!-- node24 -->
<g id="node33" class="node">
<title>node24</title>
<polygon fill="none" stroke="black" points="1678.78,-509.97 1678.78,-533.12 1639.66,-549.48 1584.34,-549.48 1545.22,-533.12 1545.22,-509.97 1584.34,-493.61 1639.66,-493.61 1678.78,-509.97"/>
<text xml:space="preserve" text-anchor="middle" x="1612" y="-524.39" font-family="Times New Roman,serif" font-size="12.00">engine_scene</text>
<text xml:space="preserve" text-anchor="middle" x="1612" y="-510.14" font-family="Times New Roman,serif" font-size="12.00">(engine::scene)</text>
</g>
<!-- node0&#45;&gt;node24 -->
<g id="edge49" class="edge">
<title>node0&#45;&gt;node24</title>
<path fill="none" stroke="black" stroke-dasharray="1,5" d="M1553.32,-790.48C1560.28,-784.81 1567.39,-777.72 1572,-769.72 1609.98,-703.82 1614.73,-612.54 1613.93,-561.35"/>
<polygon fill="black" stroke="black" points="1617.43,-561.27 1613.68,-551.36 1610.43,-561.44 1617.43,-561.27"/>
</g>
<!-- node25 -->
<g id="node34" class="node">
<title>node25</title>
<polygon fill="none" stroke="black" points="1739.68,-430.27 1608,-442.71 1476.32,-430.27 1526.62,-410.14 1689.38,-410.14 1739.68,-430.27"/>
<text xml:space="preserve" text-anchor="middle" x="1608" y="-420.43" font-family="Times New Roman,serif" font-size="12.00">nlohmann_json::nlohmann_json</text>
</g>
<!-- node0&#45;&gt;node25 -->
<g id="edge77" class="edge">
<title>node0&#45;&gt;node25</title>
<path fill="none" stroke="black" stroke-dasharray="1,5" d="M1530.48,-787.43C1525.7,-730.08 1512.65,-546.78 1536,-493.61 1544.12,-475.11 1559.98,-459.28 1574.74,-447.57"/>
<polygon fill="black" stroke="black" points="1576.62,-450.54 1582.51,-441.73 1572.41,-444.94 1576.62,-450.54"/>
</g>
<!-- node27 -->
<g id="node36" class="node">
<title>node27</title>
<polygon fill="none" stroke="black" points="1836.11,-430.27 1797,-442.71 1757.89,-430.27 1772.83,-410.14 1821.17,-410.14 1836.11,-430.27"/>
<text xml:space="preserve" text-anchor="middle" x="1797" y="-420.43" font-family="Times New Roman,serif" font-size="12.00">tinygltf</text>
</g>
<!-- node0&#45;&gt;node27 -->
<g id="edge89" class="edge">
<title>node0&#45;&gt;node27</title>
<path fill="none" stroke="black" stroke-dasharray="1,5" d="M1558.76,-792.69C1563.75,-790.79 1568.98,-789.03 1574,-787.72 1636.42,-771.49 1655.84,-786.94 1718,-769.72 1804.93,-745.65 1845.84,-727.36 1876,-642.35 1901.28,-571.09 1846.26,-487.07 1815.67,-447.89"/>
<polygon fill="black" stroke="black" points="1818.77,-446.16 1809.78,-440.54 1813.3,-450.54 1818.77,-446.16"/>
</g>
<!-- node28 -->
<g id="node37" class="node">
<title>node28</title>
<polygon fill="none" stroke="black" points="2084.17,-430.27 1969,-442.71 1853.83,-430.27 1897.82,-410.14 2040.18,-410.14 2084.17,-430.27"/>
<text xml:space="preserve" text-anchor="middle" x="1969" y="-420.43" font-family="Times New Roman,serif" font-size="12.00">tinyobjloader::tinyobjloader</text>
</g>
<!-- node0&#45;&gt;node28 -->
<g id="edge90" class="edge">
<title>node0&#45;&gt;node28</title>
<path fill="none" stroke="black" stroke-dasharray="1,5" d="M1558.23,-792.52C1563.36,-790.59 1568.77,-788.86 1574,-787.72 1759.64,-747.5 1812.76,-795.09 2001,-769.72 2091.39,-757.54 2201,-814.99 2201,-723.79 2201,-723.79 2201,-723.79 2201,-567.48 2201,-533.58 2205.28,-518.25 2182,-493.61 2171.05,-482.01 2086.31,-457.31 2027.08,-441.11"/>
<polygon fill="black" stroke="black" points="2028,-437.73 2017.44,-438.49 2026.17,-444.49 2028,-437.73"/>
</g>
<!-- node31 -->
<g id="node40" class="node">
<title>node31</title>
<polygon fill="none" stroke="black" points="1440.85,-602.84 1440.85,-625.99 1392.32,-642.35 1323.68,-642.35 1275.15,-625.99 1275.15,-602.84 1323.68,-586.48 1392.32,-586.48 1440.85,-602.84"/>
<text xml:space="preserve" text-anchor="middle" x="1358" y="-617.27" font-family="Times New Roman,serif" font-size="12.00">engine_scene_gui</text>
<text xml:space="preserve" text-anchor="middle" x="1358" y="-603.02" font-family="Times New Roman,serif" font-size="12.00">(engine::scene::gui)</text>
</g>
<!-- node0&#45;&gt;node31 -->
<g id="edge54" class="edge">
<title>node0&#45;&gt;node31</title>
<path fill="none" stroke="black" stroke-dasharray="1,5" d="M1501.13,-795.4C1486.02,-789.73 1468.27,-781.32 1455,-769.72 1417.86,-737.27 1389.98,-687.13 1373.86,-652.87"/>
<polygon fill="black" stroke="black" points="1377.22,-651.8 1369.87,-644.16 1370.86,-654.71 1377.22,-651.8"/>
</g>
<!-- node32 -->
<g id="node41" class="node">
<title>node32</title>
<polygon fill="none" stroke="black" points="738.09,-711.22 738.09,-734.36 695.28,-750.72 634.72,-750.72 591.91,-734.36 591.91,-711.22 634.72,-694.85 695.28,-694.85 738.09,-711.22"/>
<text xml:space="preserve" text-anchor="middle" x="665" y="-725.64" font-family="Times New Roman,serif" font-size="12.00">engine_sockets</text>
<text xml:space="preserve" text-anchor="middle" x="665" y="-711.39" font-family="Times New Roman,serif" font-size="12.00">(engine::sockets)</text>
</g>
<!-- node0&#45;&gt;node32 -->
<g id="edge56" class="edge">
<title>node0&#45;&gt;node32</title>
<path fill="none" stroke="black" stroke-dasharray="1,5" d="M1498.22,-804.08C1357.86,-801.28 824.6,-789.45 752,-769.72 738.61,-766.09 724.95,-760.13 712.55,-753.69"/>
<polygon fill="black" stroke="black" points="714.25,-750.63 703.79,-748.94 710.91,-756.78 714.25,-750.63"/>
</g>
<!-- node33 -->
<g id="node42" class="node">
<title>node33</title>
<polygon fill="none" stroke="black" points="1867.31,-602.84 1867.31,-625.99 1814.41,-642.35 1739.59,-642.35 1686.69,-625.99 1686.69,-602.84 1739.59,-586.48 1814.41,-586.48 1867.31,-602.84"/>
<text xml:space="preserve" text-anchor="middle" x="1777" y="-617.27" font-family="Times New Roman,serif" font-size="12.00">engine_vk_renderer</text>
<text xml:space="preserve" text-anchor="middle" x="1777" y="-603.02" font-family="Times New Roman,serif" font-size="12.00">(engine::vk::renderer)</text>
</g>
<!-- node0&#45;&gt;node33 -->
<g id="edge66" class="edge">
<title>node0&#45;&gt;node33</title>
<path fill="none" stroke="black" stroke-dasharray="1,5" d="M1559.34,-792.96C1564.18,-791.08 1569.2,-789.25 1574,-787.72 1642.32,-765.99 1677.93,-798.92 1731,-750.72 1758.28,-725.95 1769.39,-684.38 1773.91,-653.84"/>
<polygon fill="black" stroke="black" points="1777.34,-654.6 1775.15,-644.23 1770.4,-653.7 1777.34,-654.6"/>
</g>
<!-- node34 -->
<g id="node43" class="node">
<title>node34</title>
<polygon fill="none" stroke="black" points="3100.77,-728.35 3008,-740.79 2915.23,-728.35 2950.67,-708.23 3065.33,-708.23 3100.77,-728.35"/>
<text xml:space="preserve" text-anchor="middle" x="3008" y="-718.51" font-family="Times New Roman,serif" font-size="12.00">flatbuffers::flatbuffers</text>
</g>
<!-- node0&#45;&gt;node34 -->
<g id="edge70" class="edge">
<title>node0&#45;&gt;node34</title>
<path fill="none" stroke="black" stroke-dasharray="1,5" d="M1558.2,-792.41C1563.34,-790.49 1568.76,-788.79 1574,-787.72 1698.15,-762.53 2587.74,-780.05 2714,-769.72 2794.18,-763.17 2885.59,-747.59 2944.91,-736.4"/>
<polygon fill="black" stroke="black" points="2945.31,-739.88 2954.48,-734.57 2944,-733.01 2945.31,-739.88"/>
</g>
<!-- node38 -->
<g id="node47" class="node">
<title>node38</title>
<polygon fill="none" stroke="black" points="2832.7,-728.35 2793,-740.79 2753.3,-728.35 2768.46,-708.23 2817.54,-708.23 2832.7,-728.35"/>
<text xml:space="preserve" text-anchor="middle" x="2793" y="-718.51" font-family="Times New Roman,serif" font-size="12.00">lua::lua</text>
</g>
<!-- node0&#45;&gt;node38 -->
<g id="edge76" class="edge">
<title>node0&#45;&gt;node38</title>
<path fill="none" stroke="black" stroke-dasharray="1,5" d="M1558.2,-792.41C1563.34,-790.49 1568.76,-788.79 1574,-787.72 1696.52,-762.85 2577.43,-798.87 2699,-769.72 2722.62,-764.06 2747.22,-751.78 2765.33,-741.34"/>
<polygon fill="black" stroke="black" points="2767.08,-744.36 2773.88,-736.24 2763.5,-738.35 2767.08,-744.36"/>
</g>
<!-- node41 -->
<g id="node50" class="node">
<title>node41</title>
<polygon fill="none" stroke="black" points="2329.31,-619.98 2279,-632.42 2228.69,-619.98 2247.9,-599.85 2310.1,-599.85 2329.31,-619.98"/>
<text xml:space="preserve" text-anchor="middle" x="2279" y="-610.14" font-family="Times New Roman,serif" font-size="12.00">pmp::pmp</text>
</g>
<!-- node0&#45;&gt;node41 -->
<g id="edge82" class="edge">
<title>node0&#45;&gt;node41</title>
<path fill="none" stroke="black" stroke-dasharray="1,5" d="M1558.21,-792.46C1563.35,-790.53 1568.76,-788.82 1574,-787.72 1608.87,-780.43 2185.65,-789.92 2215,-769.72 2256.64,-741.06 2271.25,-679.9 2276.33,-643.78"/>
<polygon fill="black" stroke="black" points="2279.77,-644.43 2277.53,-634.07 2272.83,-643.57 2279.77,-644.43"/>
</g>
<!-- node46 -->
<g id="node55" class="node">
<title>node46</title>
<polygon fill="none" stroke="black" points="1722.18,-715.33 1722.18,-730.24 1703.33,-740.79 1676.67,-740.79 1657.82,-730.24 1657.82,-715.33 1676.67,-704.79 1703.33,-704.79 1722.18,-715.33"/>
<text xml:space="preserve" text-anchor="middle" x="1690" y="-718.51" font-family="Times New Roman,serif" font-size="12.00">scenes</text>
</g>
<!-- node0&#45;&gt;node46 -->
<g id="edge88" class="edge">
<title>node0&#45;&gt;node46</title>
<path fill="none" stroke="black" stroke-dasharray="1,5" d="M1559.42,-793.18C1564.25,-791.27 1569.25,-789.38 1574,-787.72 1600.69,-778.41 1610.08,-783.06 1635,-769.72 1646.02,-763.82 1656.87,-755.48 1665.98,-747.51"/>
<polygon fill="black" stroke="black" points="1668.3,-750.13 1673.33,-740.8 1663.58,-744.96 1668.3,-750.13"/>
</g>
<!-- node2 -->
<g id="node11" class="node">
<title>node2</title>
<polygon fill="none" stroke="black" points="2440.44,-430.27 2363,-442.71 2285.56,-430.27 2315.14,-410.14 2410.86,-410.14 2440.44,-430.27"/>
<text xml:space="preserve" text-anchor="middle" x="2363" y="-420.43" font-family="Times New Roman,serif" font-size="12.00">Threads::Threads</text>
</g>
<!-- node1&#45;&gt;node2 -->
<g id="edge8" class="edge">
<title>node1&#45;&gt;node2</title>
<path fill="none" stroke="black" d="M2146.16,-500.98C2183.71,-488.48 2233.28,-471.82 2277,-456.61 2290.83,-451.8 2305.87,-446.44 2319.45,-441.55"/>
<polygon fill="black" stroke="black" points="2320.33,-444.95 2328.55,-438.26 2317.96,-438.37 2320.33,-444.95"/>
</g>
<!-- node5 -->
<g id="node14" class="node">
<title>node5</title>
<polygon fill="none" stroke="black" points="738.48,-527.11 641,-539.54 543.52,-527.11 580.75,-506.98 701.25,-506.98 738.48,-527.11"/>
<text xml:space="preserve" text-anchor="middle" x="641" y="-517.27" font-family="Times New Roman,serif" font-size="12.00">asio_DEPS_TARGET</text>
</g>
<!-- node4&#45;&gt;node5 -->
<g id="edge11" class="edge">
<title>node4&#45;&gt;node5</title>
<path fill="none" stroke="black" stroke-dasharray="5,2" d="M646.09,-599.61C645.23,-586.67 643.93,-566.92 642.86,-550.66"/>
<polygon fill="black" stroke="black" points="646.38,-550.84 642.22,-541.09 639.39,-551.3 646.38,-550.84"/>
</g>
<!-- node7 -->
<g id="node16" class="node">
<title>node7</title>
<polygon fill="none" stroke="black" points="950.41,-610.41 942.41,-625.64 910,-632.42 877.59,-625.64 869.59,-610.41 892.01,-598.2 927.99,-598.2 950.41,-610.41"/>
<text xml:space="preserve" text-anchor="middle" x="910" y="-610.14" font-family="Times New Roman,serif" font-size="12.00">kernel32</text>
</g>
<!-- node6&#45;&gt;node7 -->
<g id="edge13" class="edge">
<title>node6&#45;&gt;node7</title>
<path fill="none" stroke="black" stroke-dasharray="5,2" d="M1040.39,-707.88C1014.16,-689.28 967.52,-656.21 937.71,-635.07"/>
<polygon fill="black" stroke="black" points="940.09,-632.46 929.91,-629.53 936.04,-638.17 940.09,-632.46"/>
</g>
<!-- node8&#45;&gt;node4 -->
<g id="edge15" class="edge">
<title>node8&#45;&gt;node4</title>
<path fill="none" stroke="black" d="M863.81,-700.52C810.47,-679.58 730.46,-648.18 684.02,-629.95"/>
<polygon fill="black" stroke="black" points="685.52,-626.78 674.93,-626.38 682.96,-633.29 685.52,-626.78"/>
</g>
<!-- node8&#45;&gt;node9 -->
<g id="edge16" class="edge">
<title>node8&#45;&gt;node9</title>
<path fill="none" stroke="black" d="M891.88,-694.58C868.24,-666.51 840.08,-621.94 861,-586.48 907.84,-507.09 1009.49,-464.18 1079.34,-443.14"/>
<polygon fill="black" stroke="black" points="1080.19,-446.53 1088.81,-440.37 1078.23,-439.81 1080.19,-446.53"/>
</g>
<!-- node11&#45;&gt;node10 -->
<g id="edge19" class="edge">
<title>node11&#45;&gt;node10</title>
<path fill="none" stroke="black" d="M2239.44,-403.34C2251.66,-399.35 2264.67,-395.56 2277,-392.8 2416.73,-361.62 2457.48,-387.94 2597,-355.8 2607.08,-353.48 2617.61,-350.39 2627.74,-347.07"/>
<polygon fill="black" stroke="black" points="2628.76,-350.42 2637.1,-343.88 2626.5,-343.79 2628.76,-350.42"/>
</g>
<!-- node12&#45;&gt;node9 -->
<g id="edge21" class="edge">
<title>node12&#45;&gt;node9</title>
<path fill="none" stroke="black" d="M1042.1,-586.18C1056.08,-561.51 1077.84,-524.41 1099,-493.61 1106.73,-482.36 1115.68,-470.5 1124.01,-459.9"/>
<polygon fill="black" stroke="black" points="1126.69,-462.14 1130.17,-452.13 1121.21,-457.79 1126.69,-462.14"/>
</g>
<!-- node12&#45;&gt;node13 -->
<g id="edge23" class="edge">
<title>node12&#45;&gt;node13</title>
<path fill="none" stroke="black" d="M997.43,-588.9C968.83,-563.52 926.47,-521.26 903,-475.61 899.54,-468.88 897.16,-461.09 895.53,-453.7"/>
<polygon fill="black" stroke="black" points="899.02,-453.33 893.81,-444.11 892.14,-454.57 899.02,-453.33"/>
</g>
<!-- node12&#45;&gt;node15 -->
<g id="edge32" class="edge">
<title>node12&#45;&gt;node15</title>
<path fill="none" stroke="black" d="M1079.87,-599.83C1096.55,-595.56 1115.04,-590.82 1132,-586.48 1206.57,-567.42 1293.63,-545.26 1343.15,-532.67"/>
<polygon fill="black" stroke="black" points="1343.71,-536.14 1352.54,-530.29 1341.99,-529.36 1343.71,-536.14"/>
</g>
<!-- node14 -->
<g id="node23" class="node">
<title>node14</title>
<polygon fill="none" stroke="black" points="988.9,-329.46 892,-341.9 795.1,-329.46 832.12,-309.34 951.88,-309.34 988.9,-329.46"/>
<text xml:space="preserve" text-anchor="middle" x="892" y="-319.63" font-family="Times New Roman,serif" font-size="12.00">glm_DEPS_TARGET</text>
</g>
<!-- node13&#45;&gt;node14 -->
<g id="edge22" class="edge">
<title>node13&#45;&gt;node14</title>
<path fill="none" stroke="black" stroke-dasharray="5,2" d="M892,-409.97C892,-395.44 892,-372.1 892,-353.54"/>
<polygon fill="black" stroke="black" points="895.5,-353.69 892,-343.69 888.5,-353.69 895.5,-353.69"/>
</g>
<!-- node15&#45;&gt;node3 -->
<g id="edge24" class="edge">
<title>node15&#45;&gt;node3</title>
<path fill="none" stroke="black" d="M1405.64,-509.31C1418.26,-501.71 1432.85,-490.35 1440,-475.61 1445.25,-464.79 1439,-454.66 1429.58,-446.39"/>
<polygon fill="black" stroke="black" points="1431.98,-443.82 1421.9,-440.55 1427.74,-449.39 1431.98,-443.82"/>
</g>
<!-- node15&#45;&gt;node16 -->
<g id="edge31" class="edge">
<title>node15&#45;&gt;node16</title>
<path fill="none" stroke="black" d="M1367.06,-505.73C1349.57,-489.46 1321.41,-463.28 1302.1,-445.32"/>
<polygon fill="black" stroke="black" points="1304.73,-442.99 1295.03,-438.75 1299.97,-448.12 1304.73,-442.99"/>
</g>
<!-- node17 -->
<g id="node26" class="node">
<title>node17</title>
<polygon fill="none" stroke="black" points="1415.93,-316.45 1415.93,-331.36 1336.89,-341.9 1225.11,-341.9 1146.07,-331.36 1146.07,-316.45 1225.11,-305.9 1336.89,-305.9 1415.93,-316.45"/>
<text xml:space="preserve" text-anchor="middle" x="1281" y="-319.63" font-family="Times New Roman,serif" font-size="12.00">CONAN_LIB::glfw_glfw3_DEBUG</text>
</g>
<!-- node16&#45;&gt;node17 -->
<g id="edge30" class="edge">
<title>node16&#45;&gt;node17</title>
<path fill="none" stroke="black" stroke-dasharray="5,2" d="M1281,-409.97C1281,-395.44 1281,-372.1 1281,-353.54"/>
<polygon fill="black" stroke="black" points="1284.5,-353.69 1281,-343.69 1277.5,-353.69 1284.5,-353.69"/>
</g>
<!-- node18 -->
<g id="node27" class="node">
<title>node18</title>
<polygon fill="none" stroke="black" points="1380.84,-242.56 1281,-255 1181.16,-242.56 1219.29,-222.44 1342.71,-222.44 1380.84,-242.56"/>
<text xml:space="preserve" text-anchor="middle" x="1281" y="-232.72" font-family="Times New Roman,serif" font-size="12.00">glfw_DEPS_TARGET</text>
</g>
<!-- node17&#45;&gt;node18 -->
<g id="edge29" class="edge">
<title>node17&#45;&gt;node18</title>
<path fill="none" stroke="black" stroke-dasharray="5,2" d="M1281,-305.72C1281,-294.52 1281,-279.62 1281,-266.65"/>
<polygon fill="black" stroke="black" points="1284.5,-266.96 1281,-256.96 1277.5,-266.96 1284.5,-266.96"/>
</g>
<!-- node19 -->
<g id="node28" class="node">
<title>node19</title>
<polygon fill="none" stroke="black" points="1299.36,-159.99 1293.34,-175.22 1269,-182 1244.66,-175.22 1238.64,-159.99 1255.49,-147.78 1282.51,-147.78 1299.36,-159.99"/>
<text xml:space="preserve" text-anchor="middle" x="1269" y="-159.72" font-family="Times New Roman,serif" font-size="12.00">gdi32</text>
</g>
<!-- node18&#45;&gt;node19 -->
<g id="edge25" class="edge">
<title>node18&#45;&gt;node19</title>
<path fill="none" stroke="black" stroke-dasharray="5,2" d="M1278.63,-221.97C1277.22,-213.61 1275.37,-202.69 1273.67,-192.66"/>
<polygon fill="black" stroke="black" points="1277.16,-192.26 1272.04,-182.98 1270.25,-193.43 1277.16,-192.26"/>
</g>
<!-- node20 -->
<g id="node29" class="node">
<title>node20</title>
<polygon fill="none" stroke="black" points="1453,-169.56 1385,-182 1317,-169.56 1342.97,-149.44 1427.03,-149.44 1453,-169.56"/>
<text xml:space="preserve" text-anchor="middle" x="1385" y="-159.72" font-family="Times New Roman,serif" font-size="12.00">opengl::opengl</text>
</g>
<!-- node18&#45;&gt;node20 -->
<g id="edge28" class="edge">
<title>node18&#45;&gt;node20</title>
<path fill="none" stroke="black" stroke-dasharray="5,2" d="M1301.55,-221.97C1317.03,-211.4 1338.47,-196.76 1355.75,-184.97"/>
<polygon fill="black" stroke="black" points="1357.31,-188.14 1363.6,-179.61 1353.37,-182.36 1357.31,-188.14"/>
</g>
<!-- node21 -->
<g id="node30" class="node">
<title>node21</title>
<polygon fill="none" stroke="black" points="1493.1,-96.56 1385,-109 1276.9,-96.56 1318.19,-76.44 1451.81,-76.44 1493.1,-96.56"/>
<text xml:space="preserve" text-anchor="middle" x="1385" y="-86.72" font-family="Times New Roman,serif" font-size="12.00">opengl_DEPS_TARGET</text>
</g>
<!-- node20&#45;&gt;node21 -->
<g id="edge27" class="edge">
<title>node20&#45;&gt;node21</title>
<path fill="none" stroke="black" stroke-dasharray="5,2" d="M1385,-148.97C1385,-140.87 1385,-130.38 1385,-120.61"/>
<polygon fill="black" stroke="black" points="1388.5,-120.78 1385,-110.78 1381.5,-120.78 1388.5,-120.78"/>
</g>
<!-- node22 -->
<g id="node31" class="node">
<title>node22</title>
<polygon fill="none" stroke="black" points="1427.53,-13.99 1419.11,-29.22 1385,-36 1350.89,-29.22 1342.47,-13.99 1366.07,-1.78 1403.93,-1.78 1427.53,-13.99"/>
<text xml:space="preserve" text-anchor="middle" x="1385" y="-13.72" font-family="Times New Roman,serif" font-size="12.00">opengl32</text>
</g>
<!-- node21&#45;&gt;node22 -->
<g id="edge26" class="edge">
<title>node21&#45;&gt;node22</title>
<path fill="none" stroke="black" stroke-dasharray="5,2" d="M1385,-75.97C1385,-67.87 1385,-57.38 1385,-47.61"/>
<polygon fill="black" stroke="black" points="1388.5,-47.78 1385,-37.78 1381.5,-47.78 1388.5,-47.78"/>
</g>
<!-- node23&#45;&gt;node9 -->
<g id="edge34" class="edge">
<title>node23&#45;&gt;node9</title>
<path fill="none" stroke="black" d="M1192.17,-586.12C1184.26,-554.56 1171.18,-502.31 1162.1,-466.05"/>
<polygon fill="black" stroke="black" points="1165.5,-465.21 1159.67,-456.36 1158.71,-466.91 1165.5,-465.21"/>
</g>
<!-- node23&#45;&gt;node16 -->
<g id="edge46" class="edge">
<title>node23&#45;&gt;node16</title>
<path fill="none" stroke="black" d="M1210.92,-586.12C1226.8,-549.79 1254.65,-486.04 1270.02,-450.83"/>
<polygon fill="black" stroke="black" points="1273.15,-452.43 1273.94,-441.86 1266.73,-449.63 1273.15,-452.43"/>
</g>
<!-- node23&#45;&gt;node24 -->
<g id="edge45" class="edge">
<title>node23&#45;&gt;node24</title>
<path fill="none" stroke="black" d="M1241.44,-594.88C1249.5,-591.78 1257.93,-588.82 1266,-586.48 1356.21,-560.3 1462.89,-542.5 1533.7,-532.46"/>
<polygon fill="black" stroke="black" points="1533.83,-535.98 1543.25,-531.13 1532.86,-529.05 1533.83,-535.98"/>
</g>
<!-- node24&#45;&gt;node3 -->
<g id="edge35" class="edge">
<title>node24&#45;&gt;node3</title>
<path fill="none" stroke="black" d="M1566.3,-500.66C1527.55,-483.81 1472.47,-459.84 1435.09,-443.58"/>
<polygon fill="black" stroke="black" points="1436.53,-440.39 1425.96,-439.61 1433.73,-446.81 1436.53,-440.39"/>
</g>
<!-- node24&#45;&gt;node9 -->
<g id="edge37" class="edge">
<title>node24&#45;&gt;node9</title>
<path fill="none" stroke="black" d="M1548.66,-508.07C1498.84,-498.42 1427.61,-485.01 1365,-474.61 1310.5,-465.56 1295.69,-469.64 1242,-456.61 1231.63,-454.09 1220.77,-450.88 1210.32,-447.48"/>
<polygon fill="black" stroke="black" points="1211.65,-444.24 1201.06,-444.38 1209.42,-450.87 1211.65,-444.24"/>
</g>
<!-- node24&#45;&gt;node11 -->
<g id="edge36" class="edge">
<title>node24&#45;&gt;node11</title>
<path fill="none" stroke="black" d="M1679.03,-510.3C1743.72,-500.56 1844.45,-485.78 1932,-474.61 2003.42,-465.49 2022.7,-472.16 2093,-456.61 2101.77,-454.67 2110.88,-452.2 2119.81,-449.5"/>
<polygon fill="black" stroke="black" points="2120.63,-452.91 2129.12,-446.57 2118.53,-446.23 2120.63,-452.91"/>
</g>
<!-- node24&#45;&gt;node13 -->
<g id="edge38" class="edge">
<title>node24&#45;&gt;node13</title>
<path fill="none" stroke="black" d="M1544.81,-510.38C1508.5,-505.05 1462.84,-498.61 1422,-493.61 1262.79,-474.13 1221.81,-479.11 1063,-456.61 1021.14,-450.68 973.86,-441.98 939.64,-435.32"/>
<polygon fill="black" stroke="black" points="940.53,-431.93 930.05,-433.44 939.19,-438.8 940.53,-431.93"/>
</g>
<!-- node24&#45;&gt;node25 -->
<g id="edge40" class="edge">
<title>node24&#45;&gt;node25</title>
<path fill="none" stroke="black" d="M1622.04,-493.49C1623.33,-487.32 1623.92,-480.77 1623,-474.61 1621.92,-467.43 1620.01,-459.86 1617.9,-452.87"/>
<polygon fill="black" stroke="black" points="1621.3,-452.02 1614.86,-443.61 1614.65,-454.2 1621.3,-452.02"/>
</g>
<!-- node24&#45;&gt;node27 -->
<g id="edge41" class="edge">
<title>node24&#45;&gt;node27</title>
<path fill="none" stroke="black" d="M1658.12,-500.89C1685.07,-488.95 1719.47,-472.91 1749,-456.61 1756.11,-452.68 1763.59,-448.1 1770.47,-443.69"/>
<polygon fill="black" stroke="black" points="1772.3,-446.68 1778.75,-438.27 1768.47,-440.82 1772.3,-446.68"/>
</g>
<!-- node24&#45;&gt;node28 -->
<g id="edge44" class="edge">
<title>node24&#45;&gt;node28</title>
<path fill="none" stroke="black" d="M1668.96,-505.41C1735.44,-487.75 1844.75,-458.71 1911.47,-440.99"/>
<polygon fill="black" stroke="black" points="1911.98,-444.48 1920.74,-438.53 1910.18,-437.71 1911.98,-444.48"/>
</g>
<!-- node26 -->
<g id="node35" class="node">
<title>node26</title>
<polygon fill="none" stroke="black" points="1747.94,-329.46 1608,-341.9 1468.06,-329.46 1521.51,-309.34 1694.49,-309.34 1747.94,-329.46"/>
<text xml:space="preserve" text-anchor="middle" x="1608" y="-319.63" font-family="Times New Roman,serif" font-size="12.00">nlohmann_json_DEPS_TARGET</text>
</g>
<!-- node25&#45;&gt;node26 -->
<g id="edge39" class="edge">
<title>node25&#45;&gt;node26</title>
<path fill="none" stroke="black" stroke-dasharray="5,2" d="M1608,-409.97C1608,-395.44 1608,-372.1 1608,-353.54"/>
<polygon fill="black" stroke="black" points="1611.5,-353.69 1608,-343.69 1604.5,-353.69 1611.5,-353.69"/>
</g>
<!-- node29 -->
<g id="node38" class="node">
<title>node29</title>
<polygon fill="none" stroke="black" points="2155.56,-316.45 2155.56,-331.36 2046.28,-341.9 1891.72,-341.9 1782.44,-331.36 1782.44,-316.45 1891.72,-305.9 2046.28,-305.9 2155.56,-316.45"/>
<text xml:space="preserve" text-anchor="middle" x="1969" y="-319.63" font-family="Times New Roman,serif" font-size="12.00">CONAN_LIB::tinyobjloader_tinyobjloader_DEBUG</text>
</g>
<!-- node28&#45;&gt;node29 -->
<g id="edge43" class="edge">
<title>node28&#45;&gt;node29</title>
<path fill="none" stroke="black" stroke-dasharray="5,2" d="M1969,-409.97C1969,-395.44 1969,-372.1 1969,-353.54"/>
<polygon fill="black" stroke="black" points="1972.5,-353.69 1969,-343.69 1965.5,-353.69 1972.5,-353.69"/>
</g>
<!-- node30 -->
<g id="node39" class="node">
<title>node30</title>
<polygon fill="none" stroke="black" points="2100.68,-242.56 1969,-255 1837.32,-242.56 1887.62,-222.44 2050.38,-222.44 2100.68,-242.56"/>
<text xml:space="preserve" text-anchor="middle" x="1969" y="-232.72" font-family="Times New Roman,serif" font-size="12.00">tinyobjloader_DEPS_TARGET</text>
</g>
<!-- node29&#45;&gt;node30 -->
<g id="edge42" class="edge">
<title>node29&#45;&gt;node30</title>
<path fill="none" stroke="black" stroke-dasharray="5,2" d="M1969,-305.72C1969,-294.52 1969,-279.62 1969,-266.65"/>
<polygon fill="black" stroke="black" points="1972.5,-266.96 1969,-256.96 1965.5,-266.96 1972.5,-266.96"/>
</g>
<!-- node31&#45;&gt;node9 -->
<g id="edge50" class="edge">
<title>node31&#45;&gt;node9</title>
<path fill="none" stroke="black" d="M1328.05,-586.12C1290.44,-551.85 1226.06,-493.19 1186.45,-457.1"/>
<polygon fill="black" stroke="black" points="1189.26,-454.92 1179.51,-450.78 1184.55,-460.1 1189.26,-454.92"/>
</g>
<!-- node31&#45;&gt;node13 -->
<g id="edge52" class="edge">
<title>node31&#45;&gt;node13</title>
<path fill="none" stroke="black" d="M1305.45,-592.25C1209.98,-553.79 1010.39,-473.39 928.37,-440.36"/>
<polygon fill="black" stroke="black" points="929.82,-437.17 919.23,-436.68 927.2,-443.66 929.82,-437.17"/>
</g>
<!-- node31&#45;&gt;node15 -->
<g id="edge53" class="edge">
<title>node31&#45;&gt;node15</title>
<path fill="none" stroke="black" d="M1365.5,-586.15C1368.55,-575.05 1372.08,-562.23 1375.17,-551.01"/>
<polygon fill="black" stroke="black" points="1378.51,-552.07 1377.78,-541.5 1371.76,-550.22 1378.51,-552.07"/>
</g>
<!-- node31&#45;&gt;node24 -->
<g id="edge51" class="edge">
<title>node31&#45;&gt;node24</title>
<path fill="none" stroke="black" d="M1414.06,-593.36C1454.69,-578.82 1509.59,-559.18 1551.27,-544.27"/>
<polygon fill="black" stroke="black" points="1552.44,-547.57 1560.68,-540.9 1550.09,-540.98 1552.44,-547.57"/>
</g>
<!-- node32&#45;&gt;node4 -->
<g id="edge55" class="edge">
<title>node32&#45;&gt;node4</title>
<path fill="none" stroke="black" d="M660.36,-694.39C657.71,-678.7 654.38,-659.05 651.71,-643.27"/>
<polygon fill="black" stroke="black" points="655.19,-642.86 650.07,-633.59 648.29,-644.03 655.19,-642.86"/>
</g>
<!-- node33&#45;&gt;node1 -->
<g id="edge57" class="edge">
<title>node33&#45;&gt;node1</title>
<path fill="none" stroke="black" d="M1841.61,-594.48C1891.64,-579.81 1960.98,-559.49 2013.2,-544.18"/>
<polygon fill="black" stroke="black" points="2014,-547.59 2022.61,-541.42 2012.03,-540.87 2014,-547.59"/>
</g>
<!-- node33&#45;&gt;node3 -->
<g id="edge58" class="edge">
<title>node33&#45;&gt;node3</title>
<path fill="none" stroke="black" d="M1781.38,-586.2C1784.1,-558.82 1783.3,-517.35 1759,-493.61 1712.22,-447.9 1530.15,-473.63 1467,-456.61 1455.22,-453.43 1442.84,-448.75 1431.69,-443.99"/>
<polygon fill="black" stroke="black" points="1433.39,-440.91 1422.83,-440.05 1430.55,-447.31 1433.39,-440.91"/>
</g>
<!-- node33&#45;&gt;node9 -->
<g id="edge60" class="edge">
<title>node33&#45;&gt;node9</title>
<path fill="none" stroke="black" d="M1751.01,-586.03C1741.14,-575.04 1730.08,-562.03 1721,-549.48 1704.09,-526.12 1712.43,-508.93 1688,-493.61 1603.74,-440.78 1339.33,-477.02 1242,-456.61 1231.32,-454.37 1220.16,-451.23 1209.48,-447.8"/>
<polygon fill="black" stroke="black" points="1210.59,-444.48 1199.99,-444.63 1208.37,-451.12 1210.59,-444.48"/>
</g>
<!-- node33&#45;&gt;node11 -->
<g id="edge59" class="edge">
<title>node33&#45;&gt;node11</title>
<path fill="none" stroke="black" d="M1816.02,-586.79C1864.87,-553.62 1943.97,-500.43 1959,-493.61 2015.27,-468.09 2033.92,-474.67 2093,-456.61 2100.95,-454.18 2109.26,-451.53 2117.49,-448.85"/>
<polygon fill="black" stroke="black" points="2118.39,-452.24 2126.79,-445.79 2116.2,-445.59 2118.39,-452.24"/>
</g>
<!-- node33&#45;&gt;node15 -->
<g id="edge63" class="edge">
<title>node33&#45;&gt;node15</title>
<path fill="none" stroke="black" d="M1704.73,-596.75C1622.16,-577.7 1489.92,-547.21 1423.64,-531.92"/>
<polygon fill="black" stroke="black" points="1424.45,-528.51 1413.92,-529.68 1422.88,-535.33 1424.45,-528.51"/>
</g>
<!-- node33&#45;&gt;node16 -->
<g id="edge62" class="edge">
<title>node33&#45;&gt;node16</title>
<path fill="none" stroke="black" d="M1767.79,-586.02C1756.53,-554.27 1737.01,-504.87 1721,-493.61 1647.98,-442.26 1404.06,-489.31 1321,-456.61 1314.14,-453.91 1307.48,-449.65 1301.62,-445.15"/>
<polygon fill="black" stroke="black" points="1304.24,-442.78 1294.32,-439.04 1299.74,-448.15 1304.24,-442.78"/>
</g>
<!-- node33&#45;&gt;node24 -->
<g id="edge61" class="edge">
<title>node33&#45;&gt;node24</title>
<path fill="none" stroke="black" d="M1731.91,-588.59C1710.32,-576.69 1684.38,-562.41 1662.16,-550.17"/>
<polygon fill="black" stroke="black" points="1664.02,-547.2 1653.57,-545.44 1660.64,-553.33 1664.02,-547.2"/>
</g>
<!-- node33&#45;&gt;node27 -->
<g id="edge64" class="edge">
<title>node33&#45;&gt;node27</title>
<path fill="none" stroke="black" d="M1791.36,-585.98C1793.7,-580.34 1795.76,-574.33 1797,-568.48 1805.34,-529.23 1803.13,-482.53 1800.38,-453.5"/>
<polygon fill="black" stroke="black" points="1803.88,-453.3 1799.36,-443.72 1796.92,-454.03 1803.88,-453.3"/>
</g>
<!-- node33&#45;&gt;node28 -->
<g id="edge65" class="edge">
<title>node33&#45;&gt;node28</title>
<path fill="none" stroke="black" d="M1798.87,-586C1819.46,-560.87 1851.72,-523.18 1883,-493.61 1900.61,-476.96 1921.99,-460.06 1939.03,-447.29"/>
<polygon fill="black" stroke="black" points="1940.83,-450.31 1946.78,-441.55 1936.66,-444.69 1940.83,-450.31"/>
</g>
<!-- node35 -->
<g id="node44" class="node">
<title>node35</title>
<polygon fill="none" stroke="black" points="3223.2,-619.98 3121,-632.42 3018.8,-619.98 3057.84,-599.85 3184.16,-599.85 3223.2,-619.98"/>
<text xml:space="preserve" text-anchor="middle" x="3121" y="-610.14" font-family="Times New Roman,serif" font-size="12.00">flatbuffers::libflatbuffers</text>
</g>
<!-- node34&#45;&gt;node35 -->
<g id="edge69" class="edge">
<title>node34&#45;&gt;node35</title>
<path fill="none" stroke="black" stroke-dasharray="5,2" d="M3022.77,-707.88C3041.47,-690.28 3073.94,-659.72 3096.4,-638.57"/>
<polygon fill="black" stroke="black" points="3098.78,-641.14 3103.66,-631.74 3093.98,-636.05 3098.78,-641.14"/>
</g>
<!-- node36 -->
<g id="node45" class="node">
<title>node36</title>
<polygon fill="none" stroke="black" points="3431.55,-514.09 3431.55,-529 3285.37,-539.54 3078.63,-539.54 2932.45,-529 2932.45,-514.09 3078.63,-503.54 3285.37,-503.54 3431.55,-514.09"/>
<text xml:space="preserve" text-anchor="middle" x="3182" y="-517.27" font-family="Times New Roman,serif" font-size="12.00">CONAN_LIB::flatbuffers_flatbuffers_libflatbuffers_flatbuffers_DEBUG</text>
</g>
<!-- node35&#45;&gt;node36 -->
<g id="edge68" class="edge">
<title>node35&#45;&gt;node36</title>
<path fill="none" stroke="black" stroke-dasharray="5,2" d="M3130.26,-599.61C3139.24,-586.25 3153.07,-565.64 3164.18,-549.09"/>
<polygon fill="black" stroke="black" points="3166.84,-551.41 3169.5,-541.16 3161.02,-547.51 3166.84,-551.41"/>
</g>
<!-- node37 -->
<g id="node46" class="node">
<title>node37</title>
<polygon fill="none" stroke="black" points="3396.82,-430.27 3182,-442.71 2967.18,-430.27 3049.23,-410.14 3314.77,-410.14 3396.82,-430.27"/>
<text xml:space="preserve" text-anchor="middle" x="3182" y="-420.43" font-family="Times New Roman,serif" font-size="12.00">flatbuffers_flatbuffers_libflatbuffers_DEPS_TARGET</text>
</g>
<!-- node36&#45;&gt;node37 -->
<g id="edge67" class="edge">
<title>node36&#45;&gt;node37</title>
<path fill="none" stroke="black" stroke-dasharray="5,2" d="M3182,-503.15C3182,-489.51 3182,-470.25 3182,-454.35"/>
<polygon fill="black" stroke="black" points="3185.5,-454.5 3182,-444.5 3178.5,-454.5 3185.5,-454.5"/>
</g>
<!-- node39 -->
<g id="node48" class="node">
<title>node39</title>
<polygon fill="none" stroke="black" points="2953.47,-606.96 2953.47,-621.87 2882.9,-632.42 2783.1,-632.42 2712.53,-621.87 2712.53,-606.96 2783.1,-596.42 2882.9,-596.42 2953.47,-606.96"/>
<text xml:space="preserve" text-anchor="middle" x="2833" y="-610.14" font-family="Times New Roman,serif" font-size="12.00">CONAN_LIB::lua_lua_DEBUG</text>
</g>
<!-- node38&#45;&gt;node39 -->
<g id="edge75" class="edge">
<title>node38&#45;&gt;node39</title>
<path fill="none" stroke="black" stroke-dasharray="5,2" d="M2798.23,-707.88C2804.34,-691.63 2814.61,-664.33 2822.41,-643.59"/>
<polygon fill="black" stroke="black" points="2825.66,-644.87 2825.91,-634.28 2819.11,-642.4 2825.66,-644.87"/>
</g>
<!-- node40 -->
<g id="node49" class="node">
<title>node40</title>
<polygon fill="none" stroke="black" points="2913.95,-527.11 2820,-539.54 2726.05,-527.11 2761.94,-506.98 2878.06,-506.98 2913.95,-527.11"/>
<text xml:space="preserve" text-anchor="middle" x="2820" y="-517.27" font-family="Times New Roman,serif" font-size="12.00">lua_DEPS_TARGET</text>
</g>
<!-- node39&#45;&gt;node40 -->
<g id="edge74" class="edge">
<title>node39&#45;&gt;node40</title>
<path fill="none" stroke="black" stroke-dasharray="5,2" d="M2830.55,-596.32C2828.72,-583.5 2826.17,-565.67 2824.04,-550.75"/>
<polygon fill="black" stroke="black" points="2827.53,-550.46 2822.65,-541.06 2820.6,-551.45 2827.53,-550.46"/>
</g>
<!-- node42 -->
<g id="node51" class="node">
<title>node42</title>
<polygon fill="none" stroke="black" points="2488.77,-514.09 2488.77,-529 2412.75,-539.54 2305.25,-539.54 2229.23,-529 2229.23,-514.09 2305.25,-503.54 2412.75,-503.54 2488.77,-514.09"/>
<text xml:space="preserve" text-anchor="middle" x="2359" y="-517.27" font-family="Times New Roman,serif" font-size="12.00">CONAN_LIB::pmp_pmp_DEBUG</text>
</g>
<!-- node41&#45;&gt;node42 -->
<g id="edge81" class="edge">
<title>node41&#45;&gt;node42</title>
<path fill="none" stroke="black" stroke-dasharray="5,2" d="M2291.15,-599.61C2303.14,-586 2321.74,-564.86 2336.44,-548.17"/>
<polygon fill="black" stroke="black" points="2338.74,-550.86 2342.72,-541.04 2333.48,-546.23 2338.74,-550.86"/>
</g>
<!-- node43 -->
<g id="node52" class="node">
<title>node43</title>
<polygon fill="none" stroke="black" points="2657.25,-430.27 2558,-442.71 2458.75,-430.27 2496.66,-410.14 2619.34,-410.14 2657.25,-430.27"/>
<text xml:space="preserve" text-anchor="middle" x="2558" y="-420.43" font-family="Times New Roman,serif" font-size="12.00">pmp_DEPS_TARGET</text>
</g>
<!-- node42&#45;&gt;node43 -->
<g id="edge80" class="edge">
<title>node42&#45;&gt;node43</title>
<path fill="none" stroke="black" stroke-dasharray="5,2" d="M2395.5,-503.15C2430.53,-486.46 2483.25,-461.33 2519.07,-444.26"/>
<polygon fill="black" stroke="black" points="2520.27,-447.57 2527.79,-440.11 2517.25,-441.25 2520.27,-447.57"/>
</g>
<!-- node44 -->
<g id="node53" class="node">
<title>node44</title>
<polygon fill="none" stroke="black" points="2587.65,-329.46 2522,-341.9 2456.35,-329.46 2481.43,-309.34 2562.57,-309.34 2587.65,-329.46"/>
<text xml:space="preserve" text-anchor="middle" x="2522" y="-319.63" font-family="Times New Roman,serif" font-size="12.00">Eigen3::Eigen</text>
</g>
<!-- node43&#45;&gt;node44 -->
<g id="edge79" class="edge">
<title>node43&#45;&gt;node44</title>
<path fill="none" stroke="black" stroke-dasharray="5,2" d="M2552.99,-409.97C2547.53,-394.97 2538.64,-370.57 2531.78,-351.75"/>
<polygon fill="black" stroke="black" points="2535.15,-350.77 2528.44,-342.57 2528.57,-353.16 2535.15,-350.77"/>
</g>
<!-- node45 -->
<g id="node54" class="node">
<title>node45</title>
<polygon fill="none" stroke="black" points="2682.57,-242.56 2522,-255 2361.43,-242.56 2422.76,-222.44 2621.24,-222.44 2682.57,-242.56"/>
<text xml:space="preserve" text-anchor="middle" x="2522" y="-232.72" font-family="Times New Roman,serif" font-size="12.00">eigen_Eigen3_Eigen_DEPS_TARGET</text>
</g>
<!-- node44&#45;&gt;node45 -->
<g id="edge78" class="edge">
<title>node44&#45;&gt;node45</title>
<path fill="none" stroke="black" stroke-dasharray="5,2" d="M2522,-308.88C2522,-297.4 2522,-280.79 2522,-266.53"/>
<polygon fill="black" stroke="black" points="2525.5,-266.78 2522,-256.78 2518.5,-266.78 2525.5,-266.78"/>
</g>
<!-- node46&#45;&gt;node9 -->
<g id="edge84" class="edge">
<title>node46&#45;&gt;node9</title>
<path fill="none" stroke="black" d="M1673.79,-706.07C1625.12,-659.21 1480.07,-521.95 1422,-493.61 1385.3,-475.7 1281.39,-467.37 1242,-456.61 1231.83,-453.83 1221.13,-450.51 1210.81,-447.1"/>
<polygon fill="black" stroke="black" points="1212.25,-443.9 1201.66,-444.02 1210.01,-450.53 1212.25,-443.9"/>
</g>
<!-- node46&#45;&gt;node11 -->
<g id="edge83" class="edge">
<title>node46&#45;&gt;node11</title>
<path fill="none" stroke="black" d="M1720.46,-713.93C1759.45,-702.79 1827.72,-679.51 1876,-642.35 1942.43,-591.21 1923.93,-542.55 1992,-493.61 1997.42,-489.71 2063.08,-466.96 2116.33,-448.85"/>
<polygon fill="black" stroke="black" points="2117.36,-452.2 2125.7,-445.67 2115.11,-445.57 2117.36,-452.2"/>
</g>
<!-- node46&#45;&gt;node24 -->
<g id="edge85" class="edge">
<title>node46&#45;&gt;node24</title>
<path fill="none" stroke="black" d="M1683.65,-704.59C1673.04,-676 1650.92,-616.97 1631,-567.48 1630.01,-565.03 1628.98,-562.5 1627.94,-559.96"/>
<polygon fill="black" stroke="black" points="1631.27,-558.85 1624.19,-550.97 1624.8,-561.54 1631.27,-558.85"/>
</g>
<!-- node46&#45;&gt;node33 -->
<g id="edge86" class="edge">
<title>node46&#45;&gt;node33</title>
<path fill="none" stroke="black" d="M1703.98,-704.7C1715.7,-690.36 1732.84,-669.41 1747.57,-651.4"/>
<polygon fill="black" stroke="black" points="1749.99,-653.97 1753.61,-644.01 1744.57,-649.54 1749.99,-653.97"/>
</g>
<!-- node46&#45;&gt;node41 -->
<g id="edge87" class="edge">
<title>node46&#45;&gt;node41</title>
<path fill="none" stroke="black" d="M1722.51,-715.92C1819.6,-698.38 2108.08,-646.28 2226.93,-624.82"/>
<polygon fill="black" stroke="black" points="2227.52,-628.27 2236.74,-623.05 2226.27,-621.38 2227.52,-628.27"/>
</g>
<!-- node47 -->
<g id="node56" class="node">
<title>node47</title>
<polygon fill="none" stroke="black" points="1650.7,-787.77 1654.48,-787.87 1658.22,-788.02 1661.9,-788.22 1665.51,-788.46 1669.04,-788.75 1672.48,-789.09 1675.8,-789.47 1678.99,-789.9 1682.06,-790.37 1684.97,-790.88 1687.73,-791.44 1690.32,-792.03 1692.74,-792.66 1694.98,-793.33 1697.03,-794.03 1698.89,-794.76 1700.55,-795.53 1702.01,-796.32 1703.27,-797.13 1704.33,-797.97 1705.19,-798.83 1705.85,-799.71 1706.3,-800.61 1706.57,-801.52 1706.64,-802.44 1706.52,-803.37 1706.22,-804.31 1705.75,-805.25 1705.11,-806.2 1704.3,-807.14 1703.34,-808.07 1702.23,-809.01 1700.99,-809.93 1699.61,-810.84 1698.11,-811.73 1696.5,-812.61 1694.78,-813.48 1692.97,-814.32 1691.07,-815.13 1689.08,-815.92 1687.02,-816.69 1684.9,-817.42 1682.71,-818.12 1680.47,-818.79 1678.19,-819.42 1675.86,-820.01 1673.5,-820.56 1671.11,-821.08 1668.69,-821.55 1666.25,-821.98 1663.79,-822.36 1661.31,-822.7 1658.82,-822.99 1656.32,-823.23 1653.81,-823.43 1651.3,-823.58 1648.78,-823.67 1646.26,-823.72 1643.74,-823.72 1641.22,-823.67 1638.7,-823.58 1636.19,-823.43 1633.68,-823.23 1631.18,-822.99 1628.69,-822.7 1626.21,-822.36 1623.75,-821.98 1621.31,-821.55 1618.89,-821.08 1616.5,-820.56 1614.14,-820.01 1611.81,-819.42 1609.53,-818.79 1607.29,-818.12 1605.1,-817.42 1602.98,-816.69 1600.92,-815.92 1598.93,-815.13 1597.03,-814.32 1595.22,-813.48 1593.5,-812.61 1591.89,-811.73 1590.39,-810.84 1589.01,-809.93 1587.77,-809.01 1586.66,-808.07 1585.7,-807.14 1584.89,-806.2 1584.25,-805.25 1583.78,-804.31 1583.48,-803.37 1583.36,-802.44 1583.43,-801.52 1583.7,-800.61 1584.15,-799.71 1584.81,-798.83 1585.67,-797.97 1586.73,-797.13 1587.99,-796.32 1589.45,-795.53 1591.11,-794.76 1592.97,-794.03 1595.02,-793.33 1597.26,-792.66 1599.68,-792.03 1602.27,-791.44 1605.03,-790.88 1607.94,-790.37 1611.01,-789.9 1614.2,-789.47 1617.52,-789.09 1620.96,-788.75 1624.49,-788.46 1628.1,-788.22 1631.78,-788.02 1635.52,-787.87 1639.3,-787.77 1643.1,-787.72 1646.9,-787.72 1650.7,-787.77"/>
<text xml:space="preserve" text-anchor="middle" x="1645" y="-801.45" font-family="Times New Roman,serif" font-size="12.00">loader_example</text>
</g>
</g>
</svg>
