<?xml version="1.0" encoding="UTF-8" standalone="no"?>
<!DOCTYPE svg PUBLIC "-//W3C//DTD SVG 1.1//EN"
 "http://www.w3.org/Graphics/SVG/1.1/DTD/svg11.dtd">
<!-- Generated by graphviz version 14.1.1 (20251213.1925)
 -->
<!-- Pages: 1 -->
<svg width="2817pt" height="631pt"
 viewBox="0.00 0.00 2817.00 631.00" xmlns="http://www.w3.org/2000/svg" xmlns:xlink="http://www.w3.org/1999/xlink">
<g id="graph0" class="graph" transform="scale(1 1) rotate(0) translate(4 626.87)">
<polygon fill="white" stroke="none" points="-4,4 -4,-626.87 2812.56,-626.87 2812.56,4 -4,4"/>
<g id="clust1" class="cluster">
<title>clusterLegend</title>
<polygon fill="none" stroke="black" points="8,-357 8,-614.87 544,-614.87 544,-357 8,-357"/>
<text xml:space="preserve" text-anchor="middle" x="276" y="-597.57" font-family="Times New Roman,serif" font-size="14.00">Legend</text>
</g>
<!-- legendNode0 -->
<g id="node1" class="node">
<title>legendNode0</title>
<polygon fill="none" stroke="black" points="288.29,-546.42 291.14,-546.52 293.95,-546.67 296.72,-546.86 299.44,-547.11 302.1,-547.4 304.68,-547.74 307.18,-548.12 309.59,-548.55 311.89,-549.02 314.09,-549.53 316.17,-550.09 318.12,-550.68 319.94,-551.31 321.62,-551.98 323.17,-552.68 324.57,-553.41 325.82,-554.17 326.92,-554.96 327.87,-555.78 328.66,-556.62 329.31,-557.48 329.8,-558.36 330.15,-559.26 330.34,-560.17 330.4,-561.09 330.31,-562.02 330.08,-562.96 329.73,-563.9 329.24,-564.84 328.64,-565.78 327.92,-566.72 327.08,-567.65 326.14,-568.58 325.11,-569.49 323.98,-570.38 322.77,-571.26 321.48,-572.12 320.11,-572.96 318.68,-573.78 317.18,-574.57 315.63,-575.33 314.03,-576.07 312.39,-576.77 310.7,-577.43 308.98,-578.06 307.23,-578.66 305.46,-579.21 303.65,-579.72 301.83,-580.2 300,-580.62 298.14,-581.01 296.28,-581.35 294.4,-581.64 292.52,-581.88 290.63,-582.08 288.74,-582.22 286.85,-582.32 284.95,-582.37 283.05,-582.37 281.15,-582.32 279.26,-582.22 277.37,-582.08 275.48,-581.88 273.6,-581.64 271.72,-581.35 269.86,-581.01 268,-580.62 266.17,-580.2 264.35,-579.72 262.54,-579.21 260.77,-578.66 259.02,-578.06 257.3,-577.43 255.61,-576.77 253.97,-576.07 252.37,-575.33 250.82,-574.57 249.32,-573.78 247.89,-572.96 246.52,-572.12 245.23,-571.26 244.02,-570.38 242.89,-569.49 241.86,-568.58 240.92,-567.65 240.08,-566.72 239.36,-565.78 238.76,-564.84 238.27,-563.9 237.92,-562.96 237.69,-562.02 237.6,-561.09 237.66,-560.17 237.85,-559.26 238.2,-558.36 238.69,-557.48 239.34,-556.62 240.13,-555.78 241.08,-554.96 242.18,-554.17 243.43,-553.41 244.83,-552.68 246.38,-551.98 248.06,-551.31 249.88,-550.68 251.83,-550.09 253.91,-549.53 256.11,-549.02 258.41,-548.55 260.82,-548.12 263.32,-547.74 265.9,-547.4 268.56,-547.11 271.28,-546.86 274.05,-546.67 276.86,-546.52 279.71,-546.42 282.57,-546.37 285.43,-546.37 288.29,-546.42"/>
<text xml:space="preserve" text-anchor="middle" x="284" y="-560.1" font-family="Times New Roman,serif" font-size="12.00">Executable</text>
</g>
<!-- legendNode1 -->
<g id="node2" class="node">
<title>legendNode1</title>
<polygon fill="none" stroke="black" points="126.42,-473.98 126.42,-488.89 93.96,-499.44 48.04,-499.44 15.58,-488.89 15.58,-473.98 48.04,-463.44 93.96,-463.44 126.42,-473.98"/>
<text xml:space="preserve" text-anchor="middle" x="71" y="-477.16" font-family="Times New Roman,serif" font-size="12.00">Static Library</text>
</g>
<!-- legendNode0&#45;&gt;legendNode1 -->
<g id="edge1" class="edge">
<title>legendNode0&#45;&gt;legendNode1</title>
<path fill="none" stroke="black" d="M247.98,-550.89C217.69,-540.26 173.31,-524.36 135,-509.37 128.3,-506.75 121.24,-503.88 114.35,-501.03"/>
<polygon fill="black" stroke="black" points="115.73,-497.81 105.15,-497.18 113.03,-504.27 115.73,-497.81"/>
</g>
<!-- legendNode2 -->
<g id="node3" class="node">
<title>legendNode2</title>
<polygon fill="none" stroke="black" points="268.07,-473.98 268.07,-488.89 232.88,-499.44 183.12,-499.44 147.93,-488.89 147.93,-473.98 183.12,-463.44 232.88,-463.44 268.07,-473.98"/>
<polygon fill="none" stroke="black" points="272.07,-471 272.07,-491.87 233.47,-503.44 182.53,-503.44 143.93,-491.87 143.93,-471 182.53,-459.44 233.47,-459.44 272.07,-471"/>
<text xml:space="preserve" text-anchor="middle" x="208" y="-477.16" font-family="Times New Roman,serif" font-size="12.00">Shared Library</text>
</g>
<!-- legendNode0&#45;&gt;legendNode2 -->
<g id="edge2" class="edge">
<title>legendNode0&#45;&gt;legendNode2</title>
<path fill="none" stroke="black" d="M268.62,-546.99C259.2,-536.96 246.85,-523.81 235.77,-512.01"/>
<polygon fill="black" stroke="black" points="238.41,-509.71 229.01,-504.81 233.31,-514.5 238.41,-509.71"/>
</g>
<!-- legendNode3 -->
<g id="node4" class="node">
<title>legendNode3</title>
<polygon fill="none" stroke="black" points="423.65,-473.98 423.65,-488.89 386.95,-499.44 335.05,-499.44 298.35,-488.89 298.35,-473.98 335.05,-463.44 386.95,-463.44 423.65,-473.98"/>
<polygon fill="none" stroke="black" points="427.65,-470.97 427.65,-491.9 387.51,-503.44 334.49,-503.44 294.35,-491.9 294.35,-470.97 334.49,-459.44 387.51,-459.44 427.65,-470.97"/>
<polygon fill="none" stroke="black" points="431.65,-467.95 431.65,-494.92 388.08,-507.44 333.92,-507.44 290.35,-494.92 290.35,-467.95 333.92,-455.44 388.08,-455.44 431.65,-467.95"/>
<text xml:space="preserve" text-anchor="middle" x="361" y="-477.16" font-family="Times New Roman,serif" font-size="12.00">Module Library</text>
</g>
<!-- legendNode0&#45;&gt;legendNode3 -->
<!-- legendNode7 -->
<g id="node8" class="node">
<title>legendNode7</title>
<polygon fill="none" stroke="black" points="535.88,-499.44 450.12,-499.44 450.12,-463.44 535.88,-463.44 535.88,-499.44"/>
<text xml:space="preserve" text-anchor="middle" x="493" y="-477.16" font-family="Times New Roman,serif" font-size="12.00">Custom Target</text>
</g>
<!-- legendNode0&#45;&gt;legendNode7 -->
<!-- legendNode4 -->
<g id="node5" class="node">
<title>legendNode4</title>
<polygon fill="none" stroke="black" points="166.08,-388.56 91,-401 15.92,-388.56 44.6,-368.44 137.4,-368.44 166.08,-388.56"/>
<text xml:space="preserve" text-anchor="middle" x="91" y="-378.73" font-family="Times New Roman,serif" font-size="12.00">Interface Library</text>
</g>
<!-- legendNode1&#45;&gt;legendNode4 -->
<g id="edge4" class="edge">
<title>legendNode1&#45;&gt;legendNode4</title>
<path fill="none" stroke="black" stroke-dasharray="5,2" d="M74.58,-463.2C77.52,-448.98 81.76,-428.54 85.19,-411.99"/>
<polygon fill="black" stroke="black" points="88.61,-412.75 87.21,-402.25 81.76,-411.33 88.61,-412.75"/>
<text xml:space="preserve" text-anchor="middle" x="107.38" y="-422.2" font-family="Times New Roman,serif" font-size="14.00">Interface</text>
</g>
<!-- legendNode5 -->
<g id="node6" class="node">
<title>legendNode5</title>
<polygon fill="none" stroke="black" points="309.98,-383 278.49,-401 215.51,-401 184.02,-383 215.51,-365 278.49,-365 309.98,-383"/>
<text xml:space="preserve" text-anchor="middle" x="247" y="-378.73" font-family="Times New Roman,serif" font-size="12.00">Object Library</text>
</g>
<!-- legendNode2&#45;&gt;legendNode5 -->
<g id="edge5" class="edge">
<title>legendNode2&#45;&gt;legendNode5</title>
<path fill="none" stroke="black" stroke-dasharray="1,5" d="M216.66,-459.03C222.29,-445.1 229.69,-426.79 235.78,-411.75"/>
<polygon fill="black" stroke="black" points="238.86,-413.46 239.36,-402.88 232.37,-410.84 238.86,-413.46"/>
<text xml:space="preserve" text-anchor="middle" x="251.27" y="-422.2" font-family="Times New Roman,serif" font-size="14.00">Private</text>
</g>
<!-- legendNode6 -->
<g id="node7" class="node">
<title>legendNode6</title>
<polygon fill="none" stroke="black" points="472.18,-378.99 457.89,-394.22 400,-401 342.11,-394.22 327.82,-378.99 367.88,-366.78 432.12,-366.78 472.18,-378.99"/>
<text xml:space="preserve" text-anchor="middle" x="400" y="-378.73" font-family="Times New Roman,serif" font-size="12.00">Unknown Library</text>
</g>
<!-- legendNode3&#45;&gt;legendNode6 -->
<g id="edge6" class="edge">
<title>legendNode3&#45;&gt;legendNode6</title>
<path fill="none" stroke="black" d="M371.25,-455.1C376.73,-441.54 383.49,-424.83 389.07,-411.02"/>
<polygon fill="black" stroke="black" points="392.18,-412.67 392.69,-402.08 385.69,-410.04 392.18,-412.67"/>
</g>
<!-- node0 -->
<g id="node9" class="node">
<title>node0</title>
<polygon fill="none" stroke="black" points="1341.12,-546.42 1343.18,-546.52 1345.23,-546.67 1347.24,-546.86 1349.21,-547.11 1351.14,-547.4 1353.02,-547.74 1354.84,-548.12 1356.59,-548.55 1358.26,-549.02 1359.85,-549.53 1361.36,-550.09 1362.78,-550.68 1364.1,-551.31 1365.33,-551.98 1366.45,-552.68 1367.46,-553.41 1368.37,-554.17 1369.17,-554.96 1369.86,-555.78 1370.44,-556.62 1370.91,-557.48 1371.26,-558.36 1371.51,-559.26 1371.66,-560.17 1371.7,-561.09 1371.63,-562.02 1371.47,-562.96 1371.21,-563.9 1370.86,-564.84 1370.42,-565.78 1369.89,-566.72 1369.29,-567.65 1368.61,-568.58 1367.86,-569.49 1367.04,-570.38 1366.16,-571.26 1365.22,-572.12 1364.23,-572.96 1363.18,-573.78 1362.1,-574.57 1360.97,-575.33 1359.81,-576.07 1358.62,-576.77 1357.39,-577.43 1356.15,-578.06 1354.87,-578.66 1353.58,-579.21 1352.27,-579.72 1350.95,-580.2 1349.62,-580.62 1348.27,-581.01 1346.92,-581.35 1345.56,-581.64 1344.19,-581.88 1342.82,-582.08 1341.44,-582.22 1340.07,-582.32 1338.69,-582.37 1337.31,-582.37 1335.93,-582.32 1334.56,-582.22 1333.18,-582.08 1331.81,-581.88 1330.44,-581.64 1329.08,-581.35 1327.73,-581.01 1326.38,-580.62 1325.05,-580.2 1323.73,-579.72 1322.42,-579.21 1321.13,-578.66 1319.85,-578.06 1318.61,-577.43 1317.38,-576.77 1316.19,-576.07 1315.03,-575.33 1313.9,-574.57 1312.82,-573.78 1311.77,-572.96 1310.78,-572.12 1309.84,-571.26 1308.96,-570.38 1308.14,-569.49 1307.39,-568.58 1306.71,-567.65 1306.11,-566.72 1305.58,-565.78 1305.14,-564.84 1304.79,-563.9 1304.53,-562.96 1304.37,-562.02 1304.3,-561.09 1304.34,-560.17 1304.49,-559.26 1304.74,-558.36 1305.09,-557.48 1305.56,-556.62 1306.14,-555.78 1306.83,-554.96 1307.63,-554.17 1308.54,-553.41 1309.55,-552.68 1310.67,-551.98 1311.9,-551.31 1313.22,-550.68 1314.64,-550.09 1316.15,-549.53 1317.74,-549.02 1319.41,-548.55 1321.16,-548.12 1322.98,-547.74 1324.86,-547.4 1326.79,-547.11 1328.76,-546.86 1330.77,-546.67 1332.82,-546.52 1334.88,-546.42 1336.96,-546.37 1339.04,-546.37 1341.12,-546.42"/>
<text xml:space="preserve" text-anchor="middle" x="1338" y="-560.1" font-family="Times New Roman,serif" font-size="12.00">Engine</text>
</g>
<!-- node1 -->
<g id="node10" class="node">
<title>node1</title>
<polygon fill="none" stroke="black" points="725.72,-469.86 725.72,-493.01 675.51,-509.37 604.49,-509.37 554.28,-493.01 554.28,-469.86 604.49,-453.5 675.51,-453.5 725.72,-469.86"/>
<text xml:space="preserve" text-anchor="middle" x="640" y="-484.29" font-family="Times New Roman,serif" font-size="12.00">TracyClient</text>
<text xml:space="preserve" text-anchor="middle" x="640" y="-470.04" font-family="Times New Roman,serif" font-size="12.00">(Tracy::TracyClient)</text>
</g>
<!-- node0&#45;&gt;node1 -->
<g id="edge9" class="edge">
<title>node0&#45;&gt;node1</title>
<path fill="none" stroke="black" stroke-dasharray="1,5" d="M1304.24,-563.48C1219.92,-563.26 993.52,-559.53 808,-528.37 775.47,-522.91 740.15,-513.76 710.33,-505.06"/>
<polygon fill="black" stroke="black" points="711.64,-501.79 701.06,-502.31 709.65,-508.5 711.64,-501.79"/>
</g>
<!-- node3 -->
<g id="node12" class="node">
<title>node3</title>
<polygon fill="none" stroke="black" points="859.24,-378.99 846.52,-394.22 795,-401 743.48,-394.22 730.76,-378.99 766.41,-366.78 823.59,-366.78 859.24,-378.99"/>
<text xml:space="preserve" text-anchor="middle" x="795" y="-378.73" font-family="Times New Roman,serif" font-size="12.00">Vulkan::Vulkan</text>
</g>
<!-- node0&#45;&gt;node3 -->
<g id="edge10" class="edge">
<title>node0&#45;&gt;node3</title>
<path fill="none" stroke="black" stroke-dasharray="1,5" d="M1304.32,-563.72C1208.59,-564.07 937.38,-560.42 868,-509.37 834.69,-484.86 814.08,-440.22 803.58,-411.35"/>
<polygon fill="black" stroke="black" points="806.99,-410.51 800.42,-402.2 800.37,-412.79 806.99,-410.51"/>
</g>
<!-- node4 -->
<g id="node13" class="node">
<title>node4</title>
<polygon fill="none" stroke="black" points="1128.78,-487 1082,-499.44 1035.22,-487 1053.09,-466.87 1110.91,-466.87 1128.78,-487"/>
<text xml:space="preserve" text-anchor="middle" x="1082" y="-477.16" font-family="Times New Roman,serif" font-size="12.00">asio::asio</text>
</g>
<!-- node0&#45;&gt;node4 -->
<g id="edge12" class="edge">
<title>node0&#45;&gt;node4</title>
<path fill="none" stroke="black" stroke-dasharray="1,5" d="M1307.63,-553.77C1261.6,-539.22 1174.12,-511.56 1122.65,-495.29"/>
<polygon fill="black" stroke="black" points="1123.97,-492.03 1113.38,-492.36 1121.86,-498.71 1123.97,-492.03"/>
</g>
<!-- node6 -->
<g id="node15" class="node">
<title>node6</title>
<polygon fill="none" stroke="black" points="1362.77,-487 1270,-499.44 1177.23,-487 1212.67,-466.87 1327.33,-466.87 1362.77,-487"/>
<text xml:space="preserve" text-anchor="middle" x="1270" y="-477.16" font-family="Times New Roman,serif" font-size="12.00">flatbuffers::flatbuffers</text>
</g>
<!-- node0&#45;&gt;node6 -->
<g id="edge16" class="edge">
<title>node0&#45;&gt;node6</title>
<path fill="none" stroke="black" stroke-dasharray="1,5" d="M1324.57,-547.38C1314.82,-535.78 1301.45,-519.87 1290.39,-506.71"/>
<polygon fill="black" stroke="black" points="1293.26,-504.68 1284.15,-499.28 1287.9,-509.18 1293.26,-504.68"/>
</g>
<!-- node10 -->
<g id="node19" class="node">
<title>node10</title>
<polygon fill="none" stroke="black" points="936.68,-388.56 907,-401 877.32,-388.56 888.66,-368.44 925.34,-368.44 936.68,-388.56"/>
<text xml:space="preserve" text-anchor="middle" x="907" y="-378.73" font-family="Times New Roman,serif" font-size="12.00">glfw</text>
</g>
<!-- node0&#45;&gt;node10 -->
<g id="edge23" class="edge">
<title>node0&#45;&gt;node10</title>
<path fill="none" stroke="black" stroke-dasharray="1,5" d="M1304.84,-564.28C1245.35,-564.53 1118.09,-558.66 1026,-509.37 980.08,-484.8 941.74,-435.93 921.79,-406.99"/>
<polygon fill="black" stroke="black" points="924.85,-405.27 916.37,-398.92 919.04,-409.17 924.85,-405.27"/>
</g>
<!-- node17 -->
<g id="node26" class="node">
<title>node17</title>
<polygon fill="none" stroke="black" points="1471.6,-487 1426,-499.44 1380.4,-487 1397.82,-466.87 1454.18,-466.87 1471.6,-487"/>
<text xml:space="preserve" text-anchor="middle" x="1426" y="-477.16" font-family="Times New Roman,serif" font-size="12.00">glm::glm</text>
</g>
<!-- node0&#45;&gt;node17 -->
<g id="edge25" class="edge">
<title>node0&#45;&gt;node17</title>
<path fill="none" stroke="black" stroke-dasharray="1,5" d="M1354.97,-547.77C1368.66,-535.17 1388.06,-517.33 1403.13,-503.47"/>
<polygon fill="black" stroke="black" points="1405.31,-506.22 1410.31,-496.87 1400.58,-501.06 1405.31,-506.22"/>
</g>
<!-- node19 -->
<g id="node28" class="node">
<title>node19</title>
<polygon fill="none" stroke="black" points="936.6,-473.98 936.6,-488.89 919.26,-499.44 894.74,-499.44 877.4,-488.89 877.4,-473.98 894.74,-463.44 919.26,-463.44 936.6,-473.98"/>
<text xml:space="preserve" text-anchor="middle" x="907" y="-477.16" font-family="Times New Roman,serif" font-size="12.00">imgui</text>
</g>
<!-- node0&#45;&gt;node19 -->
<g id="edge28" class="edge">
<title>node0&#45;&gt;node19</title>
<path fill="none" stroke="black" stroke-dasharray="1,5" d="M1304.3,-563.02C1223.1,-561.72 1018.79,-555.77 957,-528.37 946.12,-523.55 936.05,-515.39 927.84,-507.27"/>
<polygon fill="black" stroke="black" points="930.45,-504.94 921.04,-500.07 925.36,-509.74 930.45,-504.94"/>
</g>
<!-- node20 -->
<g id="node29" class="node">
<title>node20</title>
<polygon fill="none" stroke="black" points="1568.7,-487 1529,-499.44 1489.3,-487 1504.46,-466.87 1553.54,-466.87 1568.7,-487"/>
<text xml:space="preserve" text-anchor="middle" x="1529" y="-477.16" font-family="Times New Roman,serif" font-size="12.00">lua::lua</text>
</g>
<!-- node0&#45;&gt;node20 -->
<g id="edge31" class="edge">
<title>node0&#45;&gt;node20</title>
<path fill="none" stroke="black" stroke-dasharray="1,5" d="M1365.96,-551.9C1370.64,-550.03 1375.45,-548.13 1380,-546.37 1424.61,-529.18 1437.57,-529.36 1481,-509.37 1487.34,-506.45 1493.97,-503.01 1500.21,-499.58"/>
<polygon fill="black" stroke="black" points="1501.92,-502.63 1508.9,-494.65 1498.47,-496.54 1501.92,-502.63"/>
</g>
<!-- node23 -->
<g id="node32" class="node">
<title>node23</title>
<polygon fill="none" stroke="black" points="1849.68,-487 1718,-499.44 1586.32,-487 1636.62,-466.87 1799.38,-466.87 1849.68,-487"/>
<text xml:space="preserve" text-anchor="middle" x="1718" y="-477.16" font-family="Times New Roman,serif" font-size="12.00">nlohmann_json::nlohmann_json</text>
</g>
<!-- node0&#45;&gt;node23 -->
<g id="edge33" class="edge">
<title>node0&#45;&gt;node23</title>
<path fill="none" stroke="black" stroke-dasharray="1,5" d="M1365.28,-551.41C1370.13,-549.56 1375.17,-547.79 1380,-546.37 1465.92,-521.23 1490.04,-526.05 1578,-509.37 1600.16,-505.17 1624.28,-500.55 1646.16,-496.33"/>
<polygon fill="black" stroke="black" points="1646.73,-499.79 1655.89,-494.46 1645.4,-492.92 1646.73,-499.79"/>
</g>
<!-- node25 -->
<g id="node34" class="node">
<title>node25</title>
<polygon fill="none" stroke="black" points="1968.31,-487 1918,-499.44 1867.69,-487 1886.9,-466.87 1949.1,-466.87 1968.31,-487"/>
<text xml:space="preserve" text-anchor="middle" x="1918" y="-477.16" font-family="Times New Roman,serif" font-size="12.00">pmp::pmp</text>
</g>
<!-- node0&#45;&gt;node25 -->
<g id="edge38" class="edge">
<title>node0&#45;&gt;node25</title>
<path fill="none" stroke="black" stroke-dasharray="1,5" d="M1364.71,-551.14C1369.71,-549.27 1374.95,-547.56 1380,-546.37 1587.86,-497.52 1652.26,-562.75 1859,-509.37 1868.12,-507.02 1877.58,-503.32 1886.19,-499.42"/>
<polygon fill="black" stroke="black" points="1887.68,-502.59 1895.18,-495.1 1884.65,-496.28 1887.68,-502.59"/>
</g>
<!-- node30 -->
<g id="node39" class="node">
<title>node30</title>
<polygon fill="none" stroke="black" points="2064.11,-487 2025,-499.44 1985.89,-487 2000.83,-466.87 2049.17,-466.87 2064.11,-487"/>
<text xml:space="preserve" text-anchor="middle" x="2025" y="-477.16" font-family="Times New Roman,serif" font-size="12.00">tinygltf</text>
</g>
<!-- node0&#45;&gt;node30 -->
<g id="edge39" class="edge">
<title>node0&#45;&gt;node30</title>
<path fill="none" stroke="black" stroke-dasharray="1,5" d="M1364.7,-551.08C1369.69,-549.21 1374.94,-547.52 1380,-546.37 1509.62,-516.94 1849.5,-546.95 1977,-509.37 1984.22,-507.24 1991.54,-503.88 1998.21,-500.23"/>
<polygon fill="black" stroke="black" points="1999.93,-503.29 2006.76,-495.19 1996.37,-497.26 1999.93,-503.29"/>
</g>
<!-- node31 -->
<g id="node40" class="node">
<title>node31</title>
<polygon fill="none" stroke="black" points="2370.17,-487 2255,-499.44 2139.83,-487 2183.82,-466.87 2326.18,-466.87 2370.17,-487"/>
<text xml:space="preserve" text-anchor="middle" x="2255" y="-477.16" font-family="Times New Roman,serif" font-size="12.00">tinyobjloader::tinyobjloader</text>
</g>
<!-- node0&#45;&gt;node31 -->
<g id="edge42" class="edge">
<title>node0&#45;&gt;node31</title>
<path fill="none" stroke="black" stroke-dasharray="1,5" d="M1364.22,-551.15C1369.36,-549.22 1374.77,-547.5 1380,-546.37 1480.67,-524.73 1740.22,-534.61 1843,-528.37 1945.38,-522.16 1971.1,-521.11 2073,-509.37 2108.06,-505.33 2146.75,-499.76 2179.41,-494.74"/>
<polygon fill="black" stroke="black" points="2179.86,-498.21 2189.2,-493.22 2178.78,-491.29 2179.86,-498.21"/>
</g>
<!-- node2 -->
<g id="node11" class="node">
<title>node2</title>
<polygon fill="none" stroke="black" points="712.44,-388.56 635,-401 557.56,-388.56 587.14,-368.44 682.86,-368.44 712.44,-388.56"/>
<text xml:space="preserve" text-anchor="middle" x="635" y="-378.73" font-family="Times New Roman,serif" font-size="12.00">Threads::Threads</text>
</g>
<!-- node1&#45;&gt;node2 -->
<g id="edge8" class="edge">
<title>node1&#45;&gt;node2</title>
<path fill="none" stroke="black" d="M638.58,-453.06C637.92,-440.4 637.14,-425.37 636.48,-412.56"/>
<polygon fill="black" stroke="black" points="639.98,-412.44 635.97,-402.63 632.99,-412.8 639.98,-412.44"/>
</g>
<!-- node5 -->
<g id="node14" class="node">
<title>node5</title>
<polygon fill="none" stroke="black" points="1149.48,-388.56 1052,-401 954.52,-388.56 991.75,-368.44 1112.25,-368.44 1149.48,-388.56"/>
<text xml:space="preserve" text-anchor="middle" x="1052" y="-378.73" font-family="Times New Roman,serif" font-size="12.00">asio_DEPS_TARGET</text>
</g>
<!-- node4&#45;&gt;node5 -->
<g id="edge11" class="edge">
<title>node4&#45;&gt;node5</title>
<path fill="none" stroke="black" stroke-dasharray="5,2" d="M1077.7,-466.62C1073.24,-452.28 1066.15,-429.48 1060.54,-411.46"/>
<polygon fill="black" stroke="black" points="1063.96,-410.66 1057.65,-402.15 1057.28,-412.74 1063.96,-410.66"/>
</g>
<!-- node7 -->
<g id="node16" class="node">
<title>node7</title>
<polygon fill="none" stroke="black" points="1372.2,-388.56 1270,-401 1167.8,-388.56 1206.84,-368.44 1333.16,-368.44 1372.2,-388.56"/>
<text xml:space="preserve" text-anchor="middle" x="1270" y="-378.73" font-family="Times New Roman,serif" font-size="12.00">flatbuffers::libflatbuffers</text>
</g>
<!-- node6&#45;&gt;node7 -->
<g id="edge15" class="edge">
<title>node6&#45;&gt;node7</title>
<path fill="none" stroke="black" stroke-dasharray="5,2" d="M1270,-466.62C1270,-452.65 1270,-430.66 1270,-412.87"/>
<polygon fill="black" stroke="black" points="1273.5,-412.9 1270,-402.9 1266.5,-412.9 1273.5,-412.9"/>
</g>
<!-- node8 -->
<g id="node17" class="node">
<title>node8</title>
<polygon fill="none" stroke="black" points="1534.55,-302.54 1534.55,-317.46 1388.37,-328 1181.63,-328 1035.45,-317.46 1035.45,-302.54 1181.63,-292 1388.37,-292 1534.55,-302.54"/>
<text xml:space="preserve" text-anchor="middle" x="1285" y="-305.73" font-family="Times New Roman,serif" font-size="12.00">CONAN_LIB::flatbuffers_flatbuffers_libflatbuffers_flatbuffers_DEBUG</text>
</g>
<!-- node7&#45;&gt;node8 -->
<g id="edge14" class="edge">
<title>node7&#45;&gt;node8</title>
<path fill="none" stroke="black" stroke-dasharray="5,2" d="M1272.96,-367.97C1274.69,-359.78 1276.94,-349.15 1279.02,-339.29"/>
<polygon fill="black" stroke="black" points="1282.4,-340.25 1281.04,-329.74 1275.55,-338.8 1282.4,-340.25"/>
</g>
<!-- node9 -->
<g id="node18" class="node">
<title>node9</title>
<polygon fill="none" stroke="black" points="1499.82,-242.56 1285,-255 1070.18,-242.56 1152.23,-222.44 1417.77,-222.44 1499.82,-242.56"/>
<text xml:space="preserve" text-anchor="middle" x="1285" y="-232.72" font-family="Times New Roman,serif" font-size="12.00">flatbuffers_flatbuffers_libflatbuffers_DEPS_TARGET</text>
</g>
<!-- node8&#45;&gt;node9 -->
<g id="edge13" class="edge">
<title>node8&#45;&gt;node9</title>
<path fill="none" stroke="black" stroke-dasharray="5,2" d="M1285,-291.81C1285,-284.23 1285,-275.1 1285,-266.54"/>
<polygon fill="black" stroke="black" points="1288.5,-266.54 1285,-256.54 1281.5,-266.54 1288.5,-266.54"/>
</g>
<!-- node11 -->
<g id="node20" class="node">
<title>node11</title>
<polygon fill="none" stroke="black" points="1017.93,-302.54 1017.93,-317.46 938.89,-328 827.11,-328 748.07,-317.46 748.07,-302.54 827.11,-292 938.89,-292 1017.93,-302.54"/>
<text xml:space="preserve" text-anchor="middle" x="883" y="-305.73" font-family="Times New Roman,serif" font-size="12.00">CONAN_LIB::glfw_glfw3_DEBUG</text>
</g>
<!-- node10&#45;&gt;node11 -->
<g id="edge22" class="edge">
<title>node10&#45;&gt;node11</title>
<path fill="none" stroke="black" stroke-dasharray="5,2" d="M902.26,-367.97C899.46,-359.69 895.82,-348.92 892.45,-338.97"/>
<polygon fill="black" stroke="black" points="895.84,-338.05 889.32,-329.7 889.21,-340.29 895.84,-338.05"/>
</g>
<!-- node12 -->
<g id="node21" class="node">
<title>node12</title>
<polygon fill="none" stroke="black" points="982.84,-242.56 883,-255 783.16,-242.56 821.29,-222.44 944.71,-222.44 982.84,-242.56"/>
<text xml:space="preserve" text-anchor="middle" x="883" y="-232.72" font-family="Times New Roman,serif" font-size="12.00">glfw_DEPS_TARGET</text>
</g>
<!-- node11&#45;&gt;node12 -->
<g id="edge21" class="edge">
<title>node11&#45;&gt;node12</title>
<path fill="none" stroke="black" stroke-dasharray="5,2" d="M883,-291.81C883,-284.23 883,-275.1 883,-266.54"/>
<polygon fill="black" stroke="black" points="886.5,-266.54 883,-256.54 879.5,-266.54 886.5,-266.54"/>
</g>
<!-- node13 -->
<g id="node22" class="node">
<title>node13</title>
<polygon fill="none" stroke="black" points="855.36,-159.99 849.34,-175.22 825,-182 800.66,-175.22 794.64,-159.99 811.49,-147.78 838.51,-147.78 855.36,-159.99"/>
<text xml:space="preserve" text-anchor="middle" x="825" y="-159.72" font-family="Times New Roman,serif" font-size="12.00">gdi32</text>
</g>
<!-- node12&#45;&gt;node13 -->
<g id="edge17" class="edge">
<title>node12&#45;&gt;node13</title>
<path fill="none" stroke="black" stroke-dasharray="5,2" d="M871.54,-221.97C863.6,-212.25 852.84,-199.08 843.67,-187.85"/>
<polygon fill="black" stroke="black" points="846.43,-185.7 837.39,-180.17 841.01,-190.13 846.43,-185.7"/>
</g>
<!-- node14 -->
<g id="node23" class="node">
<title>node14</title>
<polygon fill="none" stroke="black" points="1009,-169.56 941,-182 873,-169.56 898.97,-149.44 983.03,-149.44 1009,-169.56"/>
<text xml:space="preserve" text-anchor="middle" x="941" y="-159.72" font-family="Times New Roman,serif" font-size="12.00">opengl::opengl</text>
</g>
<!-- node12&#45;&gt;node14 -->
<g id="edge20" class="edge">
<title>node12&#45;&gt;node14</title>
<path fill="none" stroke="black" stroke-dasharray="5,2" d="M894.46,-221.97C902.2,-212.5 912.6,-199.76 921.61,-188.73"/>
<polygon fill="black" stroke="black" points="924.19,-191.11 927.81,-181.15 918.77,-186.68 924.19,-191.11"/>
</g>
<!-- node15 -->
<g id="node24" class="node">
<title>node15</title>
<polygon fill="none" stroke="black" points="1049.1,-96.56 941,-109 832.9,-96.56 874.19,-76.44 1007.81,-76.44 1049.1,-96.56"/>
<text xml:space="preserve" text-anchor="middle" x="941" y="-86.72" font-family="Times New Roman,serif" font-size="12.00">opengl_DEPS_TARGET</text>
</g>
<!-- node14&#45;&gt;node15 -->
<g id="edge19" class="edge">
<title>node14&#45;&gt;node15</title>
<path fill="none" stroke="black" stroke-dasharray="5,2" d="M941,-148.97C941,-140.87 941,-130.38 941,-120.61"/>
<polygon fill="black" stroke="black" points="944.5,-120.78 941,-110.78 937.5,-120.78 944.5,-120.78"/>
</g>
<!-- node16 -->
<g id="node25" class="node">
<title>node16</title>
<polygon fill="none" stroke="black" points="983.53,-13.99 975.11,-29.22 941,-36 906.89,-29.22 898.47,-13.99 922.07,-1.78 959.93,-1.78 983.53,-13.99"/>
<text xml:space="preserve" text-anchor="middle" x="941" y="-13.72" font-family="Times New Roman,serif" font-size="12.00">opengl32</text>
</g>
<!-- node15&#45;&gt;node16 -->
<g id="edge18" class="edge">
<title>node15&#45;&gt;node16</title>
<path fill="none" stroke="black" stroke-dasharray="5,2" d="M941,-75.97C941,-67.87 941,-57.38 941,-47.61"/>
<polygon fill="black" stroke="black" points="944.5,-47.78 941,-37.78 937.5,-47.78 944.5,-47.78"/>
</g>
<!-- node18 -->
<g id="node27" class="node">
<title>node18</title>
<polygon fill="none" stroke="black" points="1583.9,-388.56 1487,-401 1390.1,-388.56 1427.12,-368.44 1546.88,-368.44 1583.9,-388.56"/>
<text xml:space="preserve" text-anchor="middle" x="1487" y="-378.73" font-family="Times New Roman,serif" font-size="12.00">glm_DEPS_TARGET</text>
</g>
<!-- node17&#45;&gt;node18 -->
<g id="edge24" class="edge">
<title>node17&#45;&gt;node18</title>
<path fill="none" stroke="black" stroke-dasharray="5,2" d="M1434.74,-466.62C1444.13,-451.77 1459.28,-427.83 1470.85,-409.53"/>
<polygon fill="black" stroke="black" points="1473.66,-411.64 1476.04,-401.32 1467.74,-407.9 1473.66,-411.64"/>
</g>
<!-- node19&#45;&gt;node3 -->
<g id="edge26" class="edge">
<title>node19&#45;&gt;node3</title>
<path fill="none" stroke="black" d="M890.1,-465.76C875.73,-453.29 854.54,-434.94 836,-419 831.21,-414.88 826.09,-410.5 821.16,-406.29"/>
<polygon fill="black" stroke="black" points="823.61,-403.78 813.73,-399.94 819.06,-409.1 823.61,-403.78"/>
</g>
<!-- node19&#45;&gt;node10 -->
<g id="edge27" class="edge">
<title>node19&#45;&gt;node10</title>
<path fill="none" stroke="black" d="M907,-463.2C907,-449.16 907,-429.05 907,-412.6"/>
<polygon fill="black" stroke="black" points="910.5,-412.93 907,-402.93 903.5,-412.93 910.5,-412.93"/>
</g>
<!-- node21 -->
<g id="node30" class="node">
<title>node21</title>
<polygon fill="none" stroke="black" points="1842.47,-375.54 1842.47,-390.46 1771.9,-401 1672.1,-401 1601.53,-390.46 1601.53,-375.54 1672.1,-365 1771.9,-365 1842.47,-375.54"/>
<text xml:space="preserve" text-anchor="middle" x="1722" y="-378.73" font-family="Times New Roman,serif" font-size="12.00">CONAN_LIB::lua_lua_DEBUG</text>
</g>
<!-- node20&#45;&gt;node21 -->
<g id="edge30" class="edge">
<title>node20&#45;&gt;node21</title>
<path fill="none" stroke="black" stroke-dasharray="5,2" d="M1553.25,-466.43C1560.81,-462.17 1569.2,-457.55 1577,-453.5 1608.88,-436.94 1645.35,-419.46 1673.74,-406.18"/>
<polygon fill="black" stroke="black" points="1674.86,-409.52 1682.44,-402.12 1671.9,-403.18 1674.86,-409.52"/>
</g>
<!-- node22 -->
<g id="node31" class="node">
<title>node22</title>
<polygon fill="none" stroke="black" points="1815.95,-315.56 1722,-328 1628.05,-315.56 1663.94,-295.44 1780.06,-295.44 1815.95,-315.56"/>
<text xml:space="preserve" text-anchor="middle" x="1722" y="-305.73" font-family="Times New Roman,serif" font-size="12.00">lua_DEPS_TARGET</text>
</g>
<!-- node21&#45;&gt;node22 -->
<g id="edge29" class="edge">
<title>node21&#45;&gt;node22</title>
<path fill="none" stroke="black" stroke-dasharray="5,2" d="M1722,-364.81C1722,-357.23 1722,-348.1 1722,-339.54"/>
<polygon fill="black" stroke="black" points="1725.5,-339.54 1722,-329.54 1718.5,-339.54 1725.5,-339.54"/>
</g>
<!-- node24 -->
<g id="node33" class="node">
<title>node24</title>
<polygon fill="none" stroke="black" points="2139.94,-388.56 2000,-401 1860.06,-388.56 1913.51,-368.44 2086.49,-368.44 2139.94,-388.56"/>
<text xml:space="preserve" text-anchor="middle" x="2000" y="-378.73" font-family="Times New Roman,serif" font-size="12.00">nlohmann_json_DEPS_TARGET</text>
</g>
<!-- node23&#45;&gt;node24 -->
<g id="edge32" class="edge">
<title>node23&#45;&gt;node24</title>
<path fill="none" stroke="black" stroke-dasharray="5,2" d="M1759.01,-466.41C1809.17,-449.26 1894.12,-420.21 1948.6,-401.58"/>
<polygon fill="black" stroke="black" points="1949.64,-404.92 1957.97,-398.37 1947.38,-398.3 1949.64,-404.92"/>
</g>
<!-- node26 -->
<g id="node35" class="node">
<title>node26</title>
<polygon fill="none" stroke="black" points="2417.77,-375.54 2417.77,-390.46 2341.75,-401 2234.25,-401 2158.23,-390.46 2158.23,-375.54 2234.25,-365 2341.75,-365 2417.77,-375.54"/>
<text xml:space="preserve" text-anchor="middle" x="2288" y="-378.73" font-family="Times New Roman,serif" font-size="12.00">CONAN_LIB::pmp_pmp_DEBUG</text>
</g>
<!-- node25&#45;&gt;node26 -->
<g id="edge37" class="edge">
<title>node25&#45;&gt;node26</title>
<path fill="none" stroke="black" stroke-dasharray="5,2" d="M1945.43,-466.47C1955.22,-461.88 1966.43,-457.05 1977,-453.5 2048.61,-429.44 2132.32,-411.28 2194.83,-399.56"/>
<polygon fill="black" stroke="black" points="2195.17,-403.06 2204.37,-397.8 2193.9,-396.17 2195.17,-403.06"/>
</g>
<!-- node27 -->
<g id="node36" class="node">
<title>node27</title>
<polygon fill="none" stroke="black" points="2387.25,-315.56 2288,-328 2188.75,-315.56 2226.66,-295.44 2349.34,-295.44 2387.25,-315.56"/>
<text xml:space="preserve" text-anchor="middle" x="2288" y="-305.73" font-family="Times New Roman,serif" font-size="12.00">pmp_DEPS_TARGET</text>
</g>
<!-- node26&#45;&gt;node27 -->
<g id="edge36" class="edge">
<title>node26&#45;&gt;node27</title>
<path fill="none" stroke="black" stroke-dasharray="5,2" d="M2288,-364.81C2288,-357.23 2288,-348.1 2288,-339.54"/>
<polygon fill="black" stroke="black" points="2291.5,-339.54 2288,-329.54 2284.5,-339.54 2291.5,-339.54"/>
</g>
<!-- node28 -->
<g id="node37" class="node">
<title>node28</title>
<polygon fill="none" stroke="black" points="2353.65,-242.56 2288,-255 2222.35,-242.56 2247.43,-222.44 2328.57,-222.44 2353.65,-242.56"/>
<text xml:space="preserve" text-anchor="middle" x="2288" y="-232.72" font-family="Times New Roman,serif" font-size="12.00">Eigen3::Eigen</text>
</g>
<!-- node27&#45;&gt;node28 -->
<g id="edge35" class="edge">
<title>node27&#45;&gt;node28</title>
<path fill="none" stroke="black" stroke-dasharray="5,2" d="M2288,-294.97C2288,-286.87 2288,-276.38 2288,-266.61"/>
<polygon fill="black" stroke="black" points="2291.5,-266.78 2288,-256.78 2284.5,-266.78 2291.5,-266.78"/>
</g>
<!-- node29 -->
<g id="node38" class="node">
<title>node29</title>
<polygon fill="none" stroke="black" points="2448.57,-169.56 2288,-182 2127.43,-169.56 2188.76,-149.44 2387.24,-149.44 2448.57,-169.56"/>
<text xml:space="preserve" text-anchor="middle" x="2288" y="-159.72" font-family="Times New Roman,serif" font-size="12.00">eigen_Eigen3_Eigen_DEPS_TARGET</text>
</g>
<!-- node28&#45;&gt;node29 -->
<g id="edge34" class="edge">
<title>node28&#45;&gt;node29</title>
<path fill="none" stroke="black" stroke-dasharray="5,2" d="M2288,-221.97C2288,-213.87 2288,-203.38 2288,-193.61"/>
<polygon fill="black" stroke="black" points="2291.5,-193.78 2288,-183.78 2284.5,-193.78 2291.5,-193.78"/>
</g>
<!-- node32 -->
<g id="node41" class="node">
<title>node32</title>
<polygon fill="none" stroke="black" points="2808.56,-375.54 2808.56,-390.46 2699.28,-401 2544.72,-401 2435.44,-390.46 2435.44,-375.54 2544.72,-365 2699.28,-365 2808.56,-375.54"/>
<text xml:space="preserve" text-anchor="middle" x="2622" y="-378.73" font-family="Times New Roman,serif" font-size="12.00">CONAN_LIB::tinyobjloader_tinyobjloader_DEBUG</text>
</g>
<!-- node31&#45;&gt;node32 -->
<g id="edge41" class="edge">
<title>node31&#45;&gt;node32</title>
<path fill="none" stroke="black" stroke-dasharray="5,2" d="M2308.36,-466.41C2370.45,-450.1 2473.48,-423.03 2544.41,-404.39"/>
<polygon fill="black" stroke="black" points="2545.26,-407.78 2554.04,-401.86 2543.48,-401.01 2545.26,-407.78"/>
</g>
<!-- node33 -->
<g id="node42" class="node">
<title>node33</title>
<polygon fill="none" stroke="black" points="2753.68,-315.56 2622,-328 2490.32,-315.56 2540.62,-295.44 2703.38,-295.44 2753.68,-315.56"/>
<text xml:space="preserve" text-anchor="middle" x="2622" y="-305.73" font-family="Times New Roman,serif" font-size="12.00">tinyobjloader_DEPS_TARGET</text>
</g>
<!-- node32&#45;&gt;node33 -->
<g id="edge40" class="edge">
<title>node32&#45;&gt;node33</title>
<path fill="none" stroke="black" stroke-dasharray="5,2" d="M2622,-364.81C2622,-357.23 2622,-348.1 2622,-339.54"/>
<polygon fill="black" stroke="black" points="2625.5,-339.54 2622,-329.54 2618.5,-339.54 2625.5,-339.54"/>
</g>
<!-- node34 -->
<g id="node43" class="node">
<title>node34</title>
<polygon fill="none" stroke="black" points="1456.7,-546.42 1460.48,-546.52 1464.22,-546.67 1467.9,-546.86 1471.51,-547.11 1475.04,-547.4 1478.48,-547.74 1481.8,-548.12 1484.99,-548.55 1488.06,-549.02 1490.97,-549.53 1493.73,-550.09 1496.32,-550.68 1498.74,-551.31 1500.98,-551.98 1503.03,-552.68 1504.89,-553.41 1506.55,-554.17 1508.01,-554.96 1509.27,-555.78 1510.33,-556.62 1511.19,-557.48 1511.85,-558.36 1512.3,-559.26 1512.57,-560.17 1512.64,-561.09 1512.52,-562.02 1512.22,-562.96 1511.75,-563.9 1511.11,-564.84 1510.3,-565.78 1509.34,-566.72 1508.23,-567.65 1506.99,-568.58 1505.61,-569.49 1504.11,-570.38 1502.5,-571.26 1500.78,-572.12 1498.97,-572.96 1497.07,-573.78 1495.08,-574.57 1493.02,-575.33 1490.9,-576.07 1488.71,-576.77 1486.47,-577.43 1484.19,-578.06 1481.86,-578.66 1479.5,-579.21 1477.11,-579.72 1474.69,-580.2 1472.25,-580.62 1469.79,-581.01 1467.31,-581.35 1464.82,-581.64 1462.32,-581.88 1459.81,-582.08 1457.3,-582.22 1454.78,-582.32 1452.26,-582.37 1449.74,-582.37 1447.22,-582.32 1444.7,-582.22 1442.19,-582.08 1439.68,-581.88 1437.18,-581.64 1434.69,-581.35 1432.21,-581.01 1429.75,-580.62 1427.31,-580.2 1424.89,-579.72 1422.5,-579.21 1420.14,-578.66 1417.81,-578.06 1415.53,-577.43 1413.29,-576.77 1411.1,-576.07 1408.98,-575.33 1406.92,-574.57 1404.93,-573.78 1403.03,-572.96 1401.22,-572.12 1399.5,-571.26 1397.89,-570.38 1396.39,-569.49 1395.01,-568.58 1393.77,-567.65 1392.66,-566.72 1391.7,-565.78 1390.89,-564.84 1390.25,-563.9 1389.78,-562.96 1389.48,-562.02 1389.36,-561.09 1389.43,-560.17 1389.7,-559.26 1390.15,-558.36 1390.81,-557.48 1391.67,-556.62 1392.73,-555.78 1393.99,-554.96 1395.45,-554.17 1397.11,-553.41 1398.97,-552.68 1401.02,-551.98 1403.26,-551.31 1405.68,-550.68 1408.27,-550.09 1411.03,-549.53 1413.94,-549.02 1417.01,-548.55 1420.2,-548.12 1423.52,-547.74 1426.96,-547.4 1430.49,-547.11 1434.1,-546.86 1437.78,-546.67 1441.52,-546.52 1445.3,-546.42 1449.1,-546.37 1452.9,-546.37 1456.7,-546.42"/>
<text xml:space="preserve" text-anchor="middle" x="1451" y="-560.1" font-family="Times New Roman,serif" font-size="12.00">loader_example</text>
</g>
</g>
</svg>
