<?xml version="1.0" encoding="UTF-8" standalone="no"?>
<!DOCTYPE svg PUBLIC "-//W3C//DTD SVG 1.1//EN"
 "http://www.w3.org/Graphics/SVG/1.1/DTD/svg11.dtd">
<!-- Generated by graphviz version 14.1.1 (20251213.1925)
 -->
<!-- Pages: 1 -->
<svg width="3526pt" height="872pt"
 viewBox="0.00 0.00 3526.00 872.00" xmlns="http://www.w3.org/2000/svg" xmlns:xlink="http://www.w3.org/1999/xlink">
<g id="graph0" class="graph" transform="scale(1 1) rotate(0) translate(4 868.22)">
<polygon fill="white" stroke="none" points="-4,4 -4,-868.22 3521.55,-868.22 3521.55,4 -4,4"/>
<g id="clust1" class="cluster">
<title>clusterLegend</title>
<polygon fill="none" stroke="black" points="8,-588.42 8,-856.22 544,-856.22 544,-588.42 8,-588.42"/>
<text xml:space="preserve" text-anchor="middle" x="276" y="-838.92" font-family="Times New Roman,serif" font-size="14.00">Legend</text>
</g>
<!-- legendNode0 -->
<g id="node1" class="node">
<title>legendNode0</title>
<polygon fill="none" stroke="black" points="288.29,-787.77 291.14,-787.87 293.95,-788.02 296.72,-788.22 299.44,-788.46 302.1,-788.75 304.68,-789.09 307.18,-789.47 309.59,-789.9 311.89,-790.37 314.09,-790.88 316.17,-791.44 318.12,-792.03 319.94,-792.66 321.62,-793.33 323.17,-794.03 324.57,-794.76 325.82,-795.53 326.92,-796.32 327.87,-797.13 328.66,-797.97 329.31,-798.83 329.8,-799.71 330.15,-800.61 330.34,-801.52 330.4,-802.44 330.31,-803.37 330.08,-804.31 329.73,-805.25 329.24,-806.2 328.64,-807.14 327.92,-808.07 327.08,-809.01 326.14,-809.93 325.11,-810.84 323.98,-811.73 322.77,-812.61 321.48,-813.48 320.11,-814.32 318.68,-815.13 317.18,-815.92 315.63,-816.69 314.03,-817.42 312.39,-818.12 310.7,-818.79 308.98,-819.42 307.23,-820.01 305.46,-820.56 303.65,-821.08 301.83,-821.55 300,-821.98 298.14,-822.36 296.28,-822.7 294.4,-822.99 292.52,-823.23 290.63,-823.43 288.74,-823.58 286.85,-823.67 284.95,-823.72 283.05,-823.72 281.15,-823.67 279.26,-823.58 277.37,-823.43 275.48,-823.23 273.6,-822.99 271.72,-822.7 269.86,-822.36 268,-821.98 266.17,-821.55 264.35,-821.08 262.54,-820.56 260.77,-820.01 259.02,-819.42 257.3,-818.79 255.61,-818.12 253.97,-817.42 252.37,-816.69 250.82,-815.92 249.32,-815.13 247.89,-814.32 246.52,-813.48 245.23,-812.61 244.02,-811.73 242.89,-810.84 241.86,-809.93 240.92,-809.01 240.08,-808.07 239.36,-807.14 238.76,-806.2 238.27,-805.25 237.92,-804.31 237.69,-803.37 237.6,-802.44 237.66,-801.52 237.85,-800.61 238.2,-799.71 238.69,-798.83 239.34,-797.97 240.13,-797.13 241.08,-796.32 242.18,-795.53 243.43,-794.76 244.83,-794.03 246.38,-793.33 248.06,-792.66 249.88,-792.03 251.83,-791.44 253.91,-790.88 256.11,-790.37 258.41,-789.9 260.82,-789.47 263.32,-789.09 265.9,-788.75 268.56,-788.46 271.28,-788.22 274.05,-788.02 276.86,-787.87 279.71,-787.77 282.57,-787.72 285.43,-787.72 288.29,-787.77"/>
<text xml:space="preserve" text-anchor="middle" x="284" y="-801.45" font-family="Times New Roman,serif" font-size="12.00">Executable</text>
</g>
<!-- legendNode1 -->
<g id="node2" class="node">
<title>legendNode1</title>
<polygon fill="none" stroke="black" points="126.42,-715.33 126.42,-730.24 93.96,-740.79 48.04,-740.79 15.58,-730.24 15.58,-715.33 48.04,-704.79 93.96,-704.79 126.42,-715.33"/>
<text xml:space="preserve" text-anchor="middle" x="71" y="-718.51" font-family="Times New Roman,serif" font-size="12.00">Static Library</text>
</g>
<!-- legendNode0&#45;&gt;legendNode1 -->
<g id="edge1" class="edge">
<title>legendNode0&#45;&gt;legendNode1</title>
<path fill="none" stroke="black" d="M247.98,-792.25C217.69,-781.61 173.31,-765.71 135,-750.72 128.3,-748.1 121.24,-745.23 114.35,-742.38"/>
<polygon fill="black" stroke="black" points="115.73,-739.17 105.15,-738.53 113.03,-745.62 115.73,-739.17"/>
</g>
<!-- legendNode2 -->
<g id="node3" class="node">
<title>legendNode2</title>
<polygon fill="none" stroke="black" points="268.07,-715.33 268.07,-730.24 232.88,-740.79 183.12,-740.79 147.93,-730.24 147.93,-715.33 183.12,-704.79 232.88,-704.79 268.07,-715.33"/>
<polygon fill="none" stroke="black" points="272.07,-712.36 272.07,-733.22 233.47,-744.79 182.53,-744.79 143.93,-733.22 143.93,-712.36 182.53,-700.79 233.47,-700.79 272.07,-712.36"/>
<text xml:space="preserve" text-anchor="middle" x="208" y="-718.51" font-family="Times New Roman,serif" font-size="12.00">Shared Library</text>
</g>
<!-- legendNode0&#45;&gt;legendNode2 -->
<g id="edge2" class="edge">
<title>legendNode0&#45;&gt;legendNode2</title>
<path fill="none" stroke="black" d="M268.62,-788.35C259.2,-778.31 246.85,-765.17 235.77,-753.36"/>
<polygon fill="black" stroke="black" points="238.41,-751.06 229.01,-746.17 233.31,-755.85 238.41,-751.06"/>
</g>
<!-- legendNode3 -->
<g id="node4" class="node">
<title>legendNode3</title>
<polygon fill="none" stroke="black" points="423.65,-715.33 423.65,-730.24 386.95,-740.79 335.05,-740.79 298.35,-730.24 298.35,-715.33 335.05,-704.79 386.95,-704.79 423.65,-715.33"/>
<polygon fill="none" stroke="black" points="427.65,-712.32 427.65,-733.26 387.51,-744.79 334.49,-744.79 294.35,-733.26 294.35,-712.32 334.49,-700.79 387.51,-700.79 427.65,-712.32"/>
<polygon fill="none" stroke="black" points="431.65,-709.31 431.65,-736.27 388.08,-748.79 333.92,-748.79 290.35,-736.27 290.35,-709.31 333.92,-696.79 388.08,-696.79 431.65,-709.31"/>
<text xml:space="preserve" text-anchor="middle" x="361" y="-718.51" font-family="Times New Roman,serif" font-size="12.00">Module Library</text>
</g>
<!-- legendNode0&#45;&gt;legendNode3 -->
<!-- legendNode7 -->
<g id="node8" class="node">
<title>legendNode7</title>
<polygon fill="none" stroke="black" points="535.88,-740.79 450.12,-740.79 450.12,-704.79 535.88,-704.79 535.88,-740.79"/>
<text xml:space="preserve" text-anchor="middle" x="493" y="-718.51" font-family="Times New Roman,serif" font-size="12.00">Custom Target</text>
</g>
<!-- legendNode0&#45;&gt;legendNode7 -->
<!-- legendNode4 -->
<g id="node5" class="node">
<title>legendNode4</title>
<polygon fill="none" stroke="black" points="166.08,-619.98 91,-632.42 15.92,-619.98 44.6,-599.85 137.4,-599.85 166.08,-619.98"/>
<text xml:space="preserve" text-anchor="middle" x="91" y="-610.14" font-family="Times New Roman,serif" font-size="12.00">Interface Library</text>
</g>
<!-- legendNode1&#45;&gt;legendNode4 -->
<g id="edge4" class="edge">
<title>legendNode1&#45;&gt;legendNode4</title>
<path fill="none" stroke="black" stroke-dasharray="5,2" d="M74.21,-704.7C77.32,-688.16 82.09,-662.81 85.75,-643.34"/>
<polygon fill="black" stroke="black" points="89.17,-644.08 87.58,-633.6 82.29,-642.78 89.17,-644.08"/>
<text xml:space="preserve" text-anchor="middle" x="106.2" y="-663.55" font-family="Times New Roman,serif" font-size="14.00">Interface</text>
</g>
<!-- legendNode5 -->
<g id="node6" class="node">
<title>legendNode5</title>
<polygon fill="none" stroke="black" points="309.98,-614.42 278.49,-632.42 215.51,-632.42 184.02,-614.42 215.51,-596.42 278.49,-596.42 309.98,-614.42"/>
<text xml:space="preserve" text-anchor="middle" x="247" y="-610.14" font-family="Times New Roman,serif" font-size="12.00">Object Library</text>
</g>
<!-- legendNode2&#45;&gt;legendNode5 -->
<g id="edge5" class="edge">
<title>legendNode2&#45;&gt;legendNode5</title>
<path fill="none" stroke="black" stroke-dasharray="1,5" d="M215.8,-700.52C221.81,-684.13 230.17,-661.32 236.73,-643.44"/>
<polygon fill="black" stroke="black" points="239.95,-644.8 240.11,-634.21 233.38,-642.39 239.95,-644.8"/>
<text xml:space="preserve" text-anchor="middle" x="248.96" y="-663.55" font-family="Times New Roman,serif" font-size="14.00">Private</text>
</g>
<!-- legendNode6 -->
<g id="node7" class="node">
<title>legendNode6</title>
<polygon fill="none" stroke="black" points="472.18,-610.41 457.89,-625.64 400,-632.42 342.11,-625.64 327.82,-610.41 367.88,-598.2 432.12,-598.2 472.18,-610.41"/>
<text xml:space="preserve" text-anchor="middle" x="400" y="-610.14" font-family="Times New Roman,serif" font-size="12.00">Unknown Library</text>
</g>
<!-- legendNode3&#45;&gt;legendNode6 -->
<g id="edge6" class="edge">
<title>legendNode3&#45;&gt;legendNode6</title>
<path fill="none" stroke="black" d="M370.34,-696.31C376.27,-680.13 383.95,-659.2 390,-642.69"/>
<polygon fill="black" stroke="black" points="393.22,-644.09 393.37,-633.49 386.64,-641.68 393.22,-644.09"/>
</g>
<!-- node0 -->
<g id="node9" class="node">
<title>node0</title>
<polygon fill="none" stroke="black" points="1649.12,-787.77 1651.18,-787.87 1653.23,-788.02 1655.24,-788.22 1657.21,-788.46 1659.14,-788.75 1661.02,-789.09 1662.84,-789.47 1664.59,-789.9 1666.26,-790.37 1667.85,-790.88 1669.36,-791.44 1670.78,-792.03 1672.1,-792.66 1673.33,-793.33 1674.45,-794.03 1675.46,-794.76 1676.37,-795.53 1677.17,-796.32 1677.86,-797.13 1678.44,-797.97 1678.91,-798.83 1679.26,-799.71 1679.51,-800.61 1679.66,-801.52 1679.7,-802.44 1679.63,-803.37 1679.47,-804.31 1679.21,-805.25 1678.86,-806.2 1678.42,-807.14 1677.89,-808.07 1677.29,-809.01 1676.61,-809.93 1675.86,-810.84 1675.04,-811.73 1674.16,-812.61 1673.22,-813.48 1672.23,-814.32 1671.18,-815.13 1670.1,-815.92 1668.97,-816.69 1667.81,-817.42 1666.62,-818.12 1665.39,-818.79 1664.15,-819.42 1662.87,-820.01 1661.58,-820.56 1660.27,-821.08 1658.95,-821.55 1657.62,-821.98 1656.27,-822.36 1654.92,-822.7 1653.56,-822.99 1652.19,-823.23 1650.82,-823.43 1649.44,-823.58 1648.07,-823.67 1646.69,-823.72 1645.31,-823.72 1643.93,-823.67 1642.56,-823.58 1641.18,-823.43 1639.81,-823.23 1638.44,-822.99 1637.08,-822.7 1635.73,-822.36 1634.38,-821.98 1633.05,-821.55 1631.73,-821.08 1630.42,-820.56 1629.13,-820.01 1627.85,-819.42 1626.61,-818.79 1625.38,-818.12 1624.19,-817.42 1623.03,-816.69 1621.9,-815.92 1620.82,-815.13 1619.77,-814.32 1618.78,-813.48 1617.84,-812.61 1616.96,-811.73 1616.14,-810.84 1615.39,-809.93 1614.71,-809.01 1614.11,-808.07 1613.58,-807.14 1613.14,-806.2 1612.79,-805.25 1612.53,-804.31 1612.37,-803.37 1612.3,-802.44 1612.34,-801.52 1612.49,-800.61 1612.74,-799.71 1613.09,-798.83 1613.56,-797.97 1614.14,-797.13 1614.83,-796.32 1615.63,-795.53 1616.54,-794.76 1617.55,-794.03 1618.67,-793.33 1619.9,-792.66 1621.22,-792.03 1622.64,-791.44 1624.15,-790.88 1625.74,-790.37 1627.41,-789.9 1629.16,-789.47 1630.98,-789.09 1632.86,-788.75 1634.79,-788.46 1636.76,-788.22 1638.77,-788.02 1640.82,-787.87 1642.88,-787.77 1644.96,-787.72 1647.04,-787.72 1649.12,-787.77"/>
<text xml:space="preserve" text-anchor="middle" x="1646" y="-801.45" font-family="Times New Roman,serif" font-size="12.00">Engine</text>
</g>
<!-- node1 -->
<g id="node10" class="node">
<title>node1</title>
<polygon fill="none" stroke="black" points="2402.72,-509.97 2402.72,-533.12 2352.51,-549.48 2281.49,-549.48 2231.28,-533.12 2231.28,-509.97 2281.49,-493.61 2352.51,-493.61 2402.72,-509.97"/>
<text xml:space="preserve" text-anchor="middle" x="2317" y="-524.39" font-family="Times New Roman,serif" font-size="12.00">TracyClient</text>
<text xml:space="preserve" text-anchor="middle" x="2317" y="-510.14" font-family="Times New Roman,serif" font-size="12.00">(Tracy::TracyClient)</text>
</g>
<!-- node0&#45;&gt;node1 -->
<g id="edge9" class="edge">
<title>node0&#45;&gt;node1</title>
<path fill="none" stroke="black" stroke-dasharray="1,5" d="M1672.22,-792.48C1677.35,-790.56 1682.77,-788.84 1688,-787.72 1745.53,-775.5 2168.8,-803.42 2217,-769.72 2285.71,-721.68 2307.25,-617.89 2313.97,-561.29"/>
<polygon fill="black" stroke="black" points="2317.44,-561.78 2315.03,-551.47 2310.48,-561.03 2317.44,-561.78"/>
</g>
<!-- node3 -->
<g id="node12" class="node">
<title>node3</title>
<polygon fill="none" stroke="black" points="1460.24,-420.7 1447.52,-435.93 1396,-442.71 1344.48,-435.93 1331.76,-420.7 1367.41,-408.49 1424.59,-408.49 1460.24,-420.7"/>
<text xml:space="preserve" text-anchor="middle" x="1396" y="-420.43" font-family="Times New Roman,serif" font-size="12.00">Vulkan::Vulkan</text>
</g>
<!-- node0&#45;&gt;node3 -->
<g id="edge10" class="edge">
<title>node0&#45;&gt;node3</title>
<path fill="none" stroke="black" stroke-dasharray="1,5" d="M1642.42,-787.34C1633.87,-748.67 1609.59,-653.66 1565,-586.48 1526.18,-528.01 1462.47,-475.02 1425.36,-446.89"/>
<polygon fill="black" stroke="black" points="1427.84,-444.38 1417.74,-441.19 1423.65,-449.98 1427.84,-444.38"/>
</g>
<!-- node4 -->
<g id="node13" class="node">
<title>node4</title>
<polygon fill="none" stroke="black" points="772.78,-619.98 726,-632.42 679.22,-619.98 697.09,-599.85 754.91,-599.85 772.78,-619.98"/>
<text xml:space="preserve" text-anchor="middle" x="726" y="-610.14" font-family="Times New Roman,serif" font-size="12.00">asio::asio</text>
</g>
<!-- node0&#45;&gt;node4 -->
<g id="edge12" class="edge">
<title>node0&#45;&gt;node4</title>
<path fill="none" stroke="black" stroke-dasharray="1,5" d="M1612.12,-803.9C1452.17,-799.85 778.98,-781.05 747,-750.72 718.22,-723.43 718.03,-674.24 721.39,-643.29"/>
<polygon fill="black" stroke="black" points="724.85,-643.89 722.67,-633.52 717.9,-642.98 724.85,-643.89"/>
</g>
<!-- node6 -->
<g id="node15" class="node">
<title>node6</title>
<polygon fill="none" stroke="black" points="1077.93,-728.35 1040,-740.79 1002.07,-728.35 1016.56,-708.23 1063.44,-708.23 1077.93,-728.35"/>
<text xml:space="preserve" text-anchor="middle" x="1040" y="-718.51" font-family="Times New Roman,serif" font-size="12.00">dynalo</text>
</g>
<!-- node0&#45;&gt;node6 -->
<g id="edge14" class="edge">
<title>node0&#45;&gt;node6</title>
<path fill="none" stroke="black" stroke-dasharray="1,5" d="M1612.32,-805.07C1508.62,-805.73 1195.46,-804.72 1101,-769.72 1086.24,-764.26 1072.05,-753.98 1061.07,-744.53"/>
<polygon fill="black" stroke="black" points="1063.55,-742.05 1053.79,-737.92 1058.85,-747.23 1063.55,-742.05"/>
</g>
<!-- node8 -->
<g id="node17" class="node">
<title>node8</title>
<polygon fill="none" stroke="black" points="928.3,-711.22 928.3,-734.36 877.74,-750.72 806.26,-750.72 755.7,-734.36 755.7,-711.22 806.26,-694.85 877.74,-694.85 928.3,-711.22"/>
<text xml:space="preserve" text-anchor="middle" x="842" y="-725.64" font-family="Times New Roman,serif" font-size="12.00">engine_application</text>
<text xml:space="preserve" text-anchor="middle" x="842" y="-711.39" font-family="Times New Roman,serif" font-size="12.00">(engine::application)</text>
</g>
<!-- node0&#45;&gt;node8 -->
<g id="edge17" class="edge">
<title>node0&#45;&gt;node8</title>
<path fill="none" stroke="black" stroke-dasharray="1,5" d="M1612.21,-804.74C1490.01,-804.52 1071.41,-801.41 942,-769.72 926.62,-765.96 910.72,-759.82 896.24,-753.23"/>
<polygon fill="black" stroke="black" points="897.89,-750.14 887.35,-749.03 894.9,-756.47 897.89,-750.14"/>
</g>
<!-- node9 -->
<g id="node18" class="node">
<title>node9</title>
<polygon fill="none" stroke="black" points="1236.54,-434.56 1157,-456.61 1077.46,-434.56 1107.84,-398.9 1206.16,-398.9 1236.54,-434.56"/>
<text xml:space="preserve" text-anchor="middle" x="1157" y="-427.56" font-family="Times New Roman,serif" font-size="12.00">engine_logger</text>
<text xml:space="preserve" text-anchor="middle" x="1157" y="-413.31" font-family="Times New Roman,serif" font-size="12.00">(engine::logger)</text>
</g>
<!-- node0&#45;&gt;node9 -->
<g id="edge48" class="edge">
<title>node0&#45;&gt;node9</title>
<path fill="none" stroke="black" stroke-dasharray="1,5" d="M1612,-802.7C1501.11,-795.63 1157,-769.99 1157,-723.79 1157,-723.79 1157,-723.79 1157,-520.54 1157,-503.45 1157,-484.63 1157,-468.29"/>
<polygon fill="black" stroke="black" points="1160.5,-468.4 1157,-458.4 1153.5,-468.4 1160.5,-468.4"/>
</g>
<!-- node10 -->
<g id="node19" class="node">
<title>node10</title>
<polygon fill="none" stroke="black" points="2664.54,-333.76 2585,-355.8 2505.46,-333.76 2535.84,-298.09 2634.16,-298.09 2664.54,-333.76"/>
<text xml:space="preserve" text-anchor="middle" x="2585" y="-326.75" font-family="Times New Roman,serif" font-size="12.00">engine_config</text>
<text xml:space="preserve" text-anchor="middle" x="2585" y="-312.5" font-family="Times New Roman,serif" font-size="12.00">(engine::config)</text>
</g>
<!-- node0&#45;&gt;node10 -->
<g id="edge18" class="edge">
<title>node0&#45;&gt;node10</title>
<path fill="none" stroke="black" stroke-dasharray="1,5" d="M1672.22,-792.48C1677.35,-790.55 1682.77,-788.83 1688,-787.72 1806.33,-762.65 2111.29,-777.48 2232,-769.72 2339.15,-762.84 2713,-831.16 2713,-723.79 2713,-723.79 2713,-723.79 2713,-567.48 2713,-489.84 2750.26,-459.19 2710,-392.8 2696.73,-370.92 2673.72,-355.63 2651.03,-345.18"/>
<polygon fill="black" stroke="black" points="2652.62,-342.05 2642.05,-341.31 2649.85,-348.48 2652.62,-342.05"/>
</g>
<!-- node11 -->
<g id="node20" class="node">
<title>node11</title>
<polygon fill="none" stroke="black" points="2528.85,-413.14 2528.85,-436.28 2480.32,-452.64 2411.68,-452.64 2363.15,-436.28 2363.15,-413.14 2411.68,-396.77 2480.32,-396.77 2528.85,-413.14"/>
<text xml:space="preserve" text-anchor="middle" x="2446" y="-427.56" font-family="Times New Roman,serif" font-size="12.00">engine_filesystem</text>
<text xml:space="preserve" text-anchor="middle" x="2446" y="-413.31" font-family="Times New Roman,serif" font-size="12.00">(engine::filesystem)</text>
</g>
<!-- node0&#45;&gt;node11 -->
<g id="edge20" class="edge">
<title>node0&#45;&gt;node11</title>
<path fill="none" stroke="black" stroke-dasharray="1,5" d="M1672.23,-792.53C1677.36,-790.6 1682.77,-788.87 1688,-787.72 1858.82,-750.39 1909.74,-804.96 2081,-769.72 2137.75,-758.05 2203,-781.73 2203,-723.79 2203,-723.79 2203,-723.79 2203,-520.54 2203,-452.19 2292.69,-475.48 2354,-456.61 2361.95,-454.16 2370.25,-451.51 2378.48,-448.82"/>
<polygon fill="black" stroke="black" points="2379.38,-452.21 2387.78,-445.76 2377.19,-445.56 2379.38,-452.21"/>
</g>
<!-- node12 -->
<g id="node21" class="node">
<title>node12</title>
<polygon fill="none" stroke="black" points="1129.17,-602.84 1129.17,-625.99 1095.09,-642.35 1046.91,-642.35 1012.83,-625.99 1012.83,-602.84 1046.91,-586.48 1095.09,-586.48 1129.17,-602.84"/>
<text xml:space="preserve" text-anchor="middle" x="1071" y="-617.27" font-family="Times New Roman,serif" font-size="12.00">engine_gui</text>
<text xml:space="preserve" text-anchor="middle" x="1071" y="-603.02" font-family="Times New Roman,serif" font-size="12.00">(engine::gui)</text>
</g>
<!-- node0&#45;&gt;node12 -->
<g id="edge33" class="edge">
<title>node0&#45;&gt;node12</title>
<path fill="none" stroke="black" stroke-dasharray="1,5" d="M1612.2,-804.34C1505.64,-802.85 1181.51,-796.18 1143,-769.72 1104.3,-743.14 1085.91,-690.16 1077.52,-653.76"/>
<polygon fill="black" stroke="black" points="1080.96,-653.11 1075.45,-644.06 1074.11,-654.57 1080.96,-653.11"/>
</g>
<!-- node13 -->
<g id="node22" class="node">
<title>node13</title>
<polygon fill="none" stroke="black" points="1055.6,-430.27 1010,-442.71 964.4,-430.27 981.82,-410.14 1038.18,-410.14 1055.6,-430.27"/>
<text xml:space="preserve" text-anchor="middle" x="1010" y="-420.43" font-family="Times New Roman,serif" font-size="12.00">glm::glm</text>
</g>
<!-- node0&#45;&gt;node13 -->
<g id="edge75" class="edge">
<title>node0&#45;&gt;node13</title>
<path fill="none" stroke="black" stroke-dasharray="1,5" d="M1611.94,-803.65C1485.35,-799.41 1046.47,-782.52 993,-750.72 966.34,-734.87 915.38,-671.59 905,-642.35 896.7,-618.95 897.92,-610.28 905,-586.48 921.48,-531.12 963.74,-477.06 989.34,-447.89"/>
<polygon fill="black" stroke="black" points="991.94,-450.24 996.01,-440.45 986.73,-445.56 991.94,-450.24"/>
</g>
<!-- node15 -->
<g id="node24" class="node">
<title>node15</title>
<polygon fill="none" stroke="black" points="1428.6,-514.09 1428.6,-529 1411.26,-539.54 1386.74,-539.54 1369.4,-529 1369.4,-514.09 1386.74,-503.54 1411.26,-503.54 1428.6,-514.09"/>
<text xml:space="preserve" text-anchor="middle" x="1399" y="-517.27" font-family="Times New Roman,serif" font-size="12.00">imgui</text>
</g>
<!-- node0&#45;&gt;node15 -->
<g id="edge76" class="edge">
<title>node0&#45;&gt;node15</title>
<path fill="none" stroke="black" stroke-dasharray="1,5" d="M1629.32,-789.32C1623.67,-783.54 1617.62,-776.68 1613,-769.72 1563.75,-695.54 1595.66,-648.74 1532,-586.48 1501.37,-556.53 1481.16,-568.94 1443,-549.48 1438.17,-547.02 1433.16,-544.21 1428.33,-541.36"/>
<polygon fill="black" stroke="black" points="1430.43,-538.54 1420.07,-536.34 1426.8,-544.53 1430.43,-538.54"/>
</g>
<!-- node16 -->
<g id="node25" class="node">
<title>node16</title>
<polygon fill="none" stroke="black" points="1313.68,-430.27 1284,-442.71 1254.32,-430.27 1265.66,-410.14 1302.34,-410.14 1313.68,-430.27"/>
<text xml:space="preserve" text-anchor="middle" x="1284" y="-420.43" font-family="Times New Roman,serif" font-size="12.00">glfw</text>
</g>
<!-- node0&#45;&gt;node16 -->
<g id="edge74" class="edge">
<title>node0&#45;&gt;node16</title>
<path fill="none" stroke="black" stroke-dasharray="1,5" d="M1612.48,-799.81C1577.61,-793.35 1522.79,-779.3 1484,-750.72 1434.5,-714.25 1431.57,-693.87 1398,-642.35 1354.94,-576.28 1314.41,-492.17 1295.36,-450.88"/>
<polygon fill="black" stroke="black" points="1298.55,-449.44 1291.21,-441.8 1292.19,-452.35 1298.55,-449.44"/>
</g>
<!-- node23 -->
<g id="node32" class="node">
<title>node23</title>
<polygon fill="none" stroke="black" points="1523.17,-602.84 1523.17,-625.99 1489.09,-642.35 1440.91,-642.35 1406.83,-625.99 1406.83,-602.84 1440.91,-586.48 1489.09,-586.48 1523.17,-602.84"/>
<text xml:space="preserve" text-anchor="middle" x="1465" y="-617.27" font-family="Times New Roman,serif" font-size="12.00">engine_hid</text>
<text xml:space="preserve" text-anchor="middle" x="1465" y="-603.02" font-family="Times New Roman,serif" font-size="12.00">(engine::hid)</text>
</g>
<!-- node0&#45;&gt;node23 -->
<g id="edge47" class="edge">
<title>node0&#45;&gt;node23</title>
<path fill="none" stroke="black" stroke-dasharray="1,5" d="M1612,-801.01C1588.52,-796.87 1557.87,-788.12 1537,-769.72 1502.28,-739.12 1483.1,-688.24 1473.44,-653.33"/>
<polygon fill="black" stroke="black" points="1476.93,-652.85 1471.01,-644.06 1470.16,-654.62 1476.93,-652.85"/>
</g>
<!-- node24 -->
<g id="node33" class="node">
<title>node24</title>
<polygon fill="none" stroke="black" points="1732.78,-509.97 1732.78,-533.12 1693.66,-549.48 1638.34,-549.48 1599.22,-533.12 1599.22,-509.97 1638.34,-493.61 1693.66,-493.61 1732.78,-509.97"/>
<text xml:space="preserve" text-anchor="middle" x="1666" y="-524.39" font-family="Times New Roman,serif" font-size="12.00">engine_scene</text>
<text xml:space="preserve" text-anchor="middle" x="1666" y="-510.14" font-family="Times New Roman,serif" font-size="12.00">(engine::scene)</text>
</g>
<!-- node0&#45;&gt;node24 -->
<g id="edge49" class="edge">
<title>node0&#45;&gt;node24</title>
<path fill="none" stroke="black" stroke-dasharray="1,5" d="M1647.22,-787.5C1650.38,-742.98 1658.86,-623.27 1663.26,-561.14"/>
<polygon fill="black" stroke="black" points="1666.74,-561.62 1663.96,-551.4 1659.76,-561.12 1666.74,-561.62"/>
</g>
<!-- node25 -->
<g id="node34" class="node">
<title>node25</title>
<polygon fill="none" stroke="black" points="1741.68,-430.27 1610,-442.71 1478.32,-430.27 1528.62,-410.14 1691.38,-410.14 1741.68,-430.27"/>
<text xml:space="preserve" text-anchor="middle" x="1610" y="-420.43" font-family="Times New Roman,serif" font-size="12.00">nlohmann_json::nlohmann_json</text>
</g>
<!-- node0&#45;&gt;node25 -->
<g id="edge78" class="edge">
<title>node0&#45;&gt;node25</title>
<path fill="none" stroke="black" stroke-dasharray="1,5" d="M1659.61,-788.7C1698.62,-740.75 1804.12,-595.42 1742,-493.61 1726.72,-468.57 1698.94,-452.37 1672.79,-442.11"/>
<polygon fill="black" stroke="black" points="1674.12,-438.87 1663.53,-438.71 1671.71,-445.44 1674.12,-438.87"/>
</g>
<!-- node27 -->
<g id="node36" class="node">
<title>node27</title>
<polygon fill="none" stroke="black" points="2086.11,-430.27 2047,-442.71 2007.89,-430.27 2022.83,-410.14 2071.17,-410.14 2086.11,-430.27"/>
<text xml:space="preserve" text-anchor="middle" x="2047" y="-420.43" font-family="Times New Roman,serif" font-size="12.00">tinygltf</text>
</g>
<!-- node0&#45;&gt;node27 -->
<g id="edge90" class="edge">
<title>node0&#45;&gt;node27</title>
<path fill="none" stroke="black" stroke-dasharray="1,5" d="M1672.75,-792.63C1677.74,-790.74 1682.97,-789 1688,-787.72 1790.08,-761.92 1839.23,-815.8 1922,-750.72 2016.95,-676.07 1966.89,-606.43 2010,-493.61 2015.8,-478.42 2024.39,-462.41 2031.84,-449.75"/>
<polygon fill="black" stroke="black" points="2034.77,-451.66 2036.95,-441.29 2028.78,-448.04 2034.77,-451.66"/>
</g>
<!-- node28 -->
<g id="node37" class="node">
<title>node28</title>
<polygon fill="none" stroke="black" points="1990.17,-430.27 1875,-442.71 1759.83,-430.27 1803.82,-410.14 1946.18,-410.14 1990.17,-430.27"/>
<text xml:space="preserve" text-anchor="middle" x="1875" y="-420.43" font-family="Times New Roman,serif" font-size="12.00">tinyobjloader::tinyobjloader</text>
</g>
<!-- node0&#45;&gt;node28 -->
<g id="edge91" class="edge">
<title>node0&#45;&gt;node28</title>
<path fill="none" stroke="black" stroke-dasharray="1,5" d="M1672.76,-792.68C1677.75,-790.78 1682.97,-789.02 1688,-787.72 1751.72,-771.23 1772.71,-790.98 1835,-769.72 1909.48,-744.31 1931.07,-716.3 1958,-642.35 1983.52,-572.28 1928.71,-490.24 1896.41,-450.2"/>
<polygon fill="black" stroke="black" points="1899.17,-448.04 1890.1,-442.57 1893.78,-452.51 1899.17,-448.04"/>
</g>
<!-- node31 -->
<g id="node40" class="node">
<title>node31</title>
<polygon fill="none" stroke="black" points="1350.85,-602.84 1350.85,-625.99 1302.32,-642.35 1233.68,-642.35 1185.15,-625.99 1185.15,-602.84 1233.68,-586.48 1302.32,-586.48 1350.85,-602.84"/>
<text xml:space="preserve" text-anchor="middle" x="1268" y="-617.27" font-family="Times New Roman,serif" font-size="12.00">engine_scene_gui</text>
<text xml:space="preserve" text-anchor="middle" x="1268" y="-603.02" font-family="Times New Roman,serif" font-size="12.00">(engine::scene::gui)</text>
</g>
<!-- node0&#45;&gt;node31 -->
<g id="edge54" class="edge">
<title>node0&#45;&gt;node31</title>
<path fill="none" stroke="black" stroke-dasharray="1,5" d="M1612.12,-804.08C1546.58,-802.26 1405.33,-795.39 1365,-769.72 1322.54,-742.7 1295.4,-689.7 1280.93,-653.42"/>
<polygon fill="black" stroke="black" points="1284.23,-652.25 1277.39,-644.16 1277.69,-654.75 1284.23,-652.25"/>
</g>
<!-- node32 -->
<g id="node41" class="node">
<title>node32</title>
<polygon fill="none" stroke="black" points="700.09,-711.22 700.09,-734.36 657.28,-750.72 596.72,-750.72 553.91,-734.36 553.91,-711.22 596.72,-694.85 657.28,-694.85 700.09,-711.22"/>
<text xml:space="preserve" text-anchor="middle" x="627" y="-725.64" font-family="Times New Roman,serif" font-size="12.00">engine_sockets</text>
<text xml:space="preserve" text-anchor="middle" x="627" y="-711.39" font-family="Times New Roman,serif" font-size="12.00">(engine::sockets)</text>
</g>
<!-- node0&#45;&gt;node32 -->
<g id="edge56" class="edge">
<title>node0&#45;&gt;node32</title>
<path fill="none" stroke="black" stroke-dasharray="1,5" d="M1612.18,-804.35C1455.26,-802.47 801.98,-793.29 714,-769.72 700.59,-766.13 686.93,-760.2 674.53,-753.76"/>
<polygon fill="black" stroke="black" points="676.23,-750.7 665.77,-749 672.89,-756.85 676.23,-750.7"/>
</g>
<!-- node33 -->
<g id="node42" class="node">
<title>node33</title>
<polygon fill="none" stroke="black" points="1949.31,-602.84 1949.31,-625.99 1896.41,-642.35 1821.59,-642.35 1768.69,-625.99 1768.69,-602.84 1821.59,-586.48 1896.41,-586.48 1949.31,-602.84"/>
<text xml:space="preserve" text-anchor="middle" x="1859" y="-617.27" font-family="Times New Roman,serif" font-size="12.00">engine_vk_renderer</text>
<text xml:space="preserve" text-anchor="middle" x="1859" y="-603.02" font-family="Times New Roman,serif" font-size="12.00">(engine::vk::renderer)</text>
</g>
<!-- node0&#45;&gt;node33 -->
<g id="edge69" class="edge">
<title>node0&#45;&gt;node33</title>
<path fill="none" stroke="black" stroke-dasharray="1,5" d="M1673.32,-792.89C1678.16,-791.02 1683.19,-789.21 1688,-787.72 1755.24,-766.9 1795.64,-803.7 1842,-750.72 1864.92,-724.54 1867.12,-683.81 1864.84,-653.88"/>
<polygon fill="black" stroke="black" points="1868.34,-653.71 1863.89,-644.1 1861.38,-654.39 1868.34,-653.71"/>
</g>
<!-- node34 -->
<g id="node43" class="node">
<title>node34</title>
<polygon fill="none" stroke="black" points="2098.7,-527.11 2059,-539.54 2019.3,-527.11 2034.46,-506.98 2083.54,-506.98 2098.7,-527.11"/>
<text xml:space="preserve" text-anchor="middle" x="2059" y="-517.27" font-family="Times New Roman,serif" font-size="12.00">lua::lua</text>
</g>
<!-- node0&#45;&gt;node34 -->
<g id="edge77" class="edge">
<title>node0&#45;&gt;node34</title>
<path fill="none" stroke="black" stroke-dasharray="1,5" d="M1672.23,-792.54C1677.36,-790.61 1682.78,-788.87 1688,-787.72 1729.18,-778.69 2037.91,-800.23 2067,-769.72 2124.59,-709.33 2090.12,-598.16 2070.18,-548.13"/>
<polygon fill="black" stroke="black" points="2073.47,-546.91 2066.42,-539 2067,-549.58 2073.47,-546.91"/>
</g>
<!-- node37 -->
<g id="node46" class="node">
<title>node37</title>
<polygon fill="none" stroke="black" points="3019.77,-728.35 2927,-740.79 2834.23,-728.35 2869.67,-708.23 2984.33,-708.23 3019.77,-728.35"/>
<text xml:space="preserve" text-anchor="middle" x="2927" y="-718.51" font-family="Times New Roman,serif" font-size="12.00">flatbuffers::flatbuffers</text>
</g>
<!-- node0&#45;&gt;node37 -->
<g id="edge73" class="edge">
<title>node0&#45;&gt;node37</title>
<path fill="none" stroke="black" stroke-dasharray="1,5" d="M1672.2,-792.41C1677.34,-790.49 1682.76,-788.79 1688,-787.72 1926.93,-739.17 2544.49,-809.68 2785,-769.72 2819.52,-763.99 2857.15,-751.52 2884.99,-741.02"/>
<polygon fill="black" stroke="black" points="2886.04,-744.36 2894.12,-737.5 2883.53,-737.83 2886.04,-744.36"/>
</g>
<!-- node41 -->
<g id="node50" class="node">
<title>node41</title>
<polygon fill="none" stroke="black" points="2841.31,-619.98 2791,-632.42 2740.69,-619.98 2759.9,-599.85 2822.1,-599.85 2841.31,-619.98"/>
<text xml:space="preserve" text-anchor="middle" x="2791" y="-610.14" font-family="Times New Roman,serif" font-size="12.00">pmp::pmp</text>
</g>
<!-- node0&#45;&gt;node41 -->
<g id="edge83" class="edge">
<title>node0&#45;&gt;node41</title>
<path fill="none" stroke="black" stroke-dasharray="1,5" d="M1672.2,-792.41C1677.34,-790.49 1682.76,-788.79 1688,-787.72 1744.57,-776.2 2679.27,-802.2 2727,-769.72 2768.79,-741.29 2783.34,-680.04 2788.38,-643.85"/>
<polygon fill="black" stroke="black" points="2791.83,-644.47 2789.56,-634.12 2784.88,-643.62 2791.83,-644.47"/>
</g>
<!-- node46 -->
<g id="node55" class="node">
<title>node46</title>
<polygon fill="none" stroke="black" points="1833.18,-715.33 1833.18,-730.24 1814.33,-740.79 1787.67,-740.79 1768.82,-730.24 1768.82,-715.33 1787.67,-704.79 1814.33,-704.79 1833.18,-715.33"/>
<text xml:space="preserve" text-anchor="middle" x="1801" y="-718.51" font-family="Times New Roman,serif" font-size="12.00">scenes</text>
</g>
<!-- node0&#45;&gt;node46 -->
<g id="edge89" class="edge">
<title>node0&#45;&gt;node46</title>
<path fill="none" stroke="black" stroke-dasharray="1,5" d="M1673.38,-793.08C1678.22,-791.19 1683.23,-789.32 1688,-787.72 1717.23,-777.92 1728.3,-785.14 1755,-769.72 1764.33,-764.34 1773.1,-756.58 1780.43,-748.97"/>
<polygon fill="black" stroke="black" points="1782.62,-751.76 1786.76,-742.01 1777.44,-747.05 1782.62,-751.76"/>
</g>
<!-- node2 -->
<g id="node11" class="node">
<title>node2</title>
<polygon fill="none" stroke="black" points="2701.44,-430.27 2624,-442.71 2546.56,-430.27 2576.14,-410.14 2671.86,-410.14 2701.44,-430.27"/>
<text xml:space="preserve" text-anchor="middle" x="2624" y="-420.43" font-family="Times New Roman,serif" font-size="12.00">Threads::Threads</text>
</g>
<!-- node1&#45;&gt;node2 -->
<g id="edge8" class="edge">
<title>node1&#45;&gt;node2</title>
<path fill="none" stroke="black" d="M2382.12,-502.87C2426.31,-490.6 2485.94,-473.47 2538,-456.61 2552.05,-452.06 2567.26,-446.73 2580.92,-441.79"/>
<polygon fill="black" stroke="black" points="2581.88,-445.17 2590.08,-438.45 2579.48,-438.59 2581.88,-445.17"/>
</g>
<!-- node5 -->
<g id="node14" class="node">
<title>node5</title>
<polygon fill="none" stroke="black" points="820.48,-527.11 723,-539.54 625.52,-527.11 662.75,-506.98 783.25,-506.98 820.48,-527.11"/>
<text xml:space="preserve" text-anchor="middle" x="723" y="-517.27" font-family="Times New Roman,serif" font-size="12.00">asio_DEPS_TARGET</text>
</g>
<!-- node4&#45;&gt;node5 -->
<g id="edge11" class="edge">
<title>node4&#45;&gt;node5</title>
<path fill="none" stroke="black" stroke-dasharray="5,2" d="M725.54,-599.61C725.12,-586.75 724.47,-567.17 723.94,-550.96"/>
<polygon fill="black" stroke="black" points="727.45,-551.29 723.62,-541.42 720.45,-551.53 727.45,-551.29"/>
</g>
<!-- node7 -->
<g id="node16" class="node">
<title>node7</title>
<polygon fill="none" stroke="black" points="994.41,-610.41 986.41,-625.64 954,-632.42 921.59,-625.64 913.59,-610.41 936.01,-598.2 971.99,-598.2 994.41,-610.41"/>
<text xml:space="preserve" text-anchor="middle" x="954" y="-610.14" font-family="Times New Roman,serif" font-size="12.00">kernel32</text>
</g>
<!-- node6&#45;&gt;node7 -->
<g id="edge13" class="edge">
<title>node6&#45;&gt;node7</title>
<path fill="none" stroke="black" stroke-dasharray="5,2" d="M1028.76,-707.88C1014.64,-690.42 990.2,-660.19 973.12,-639.06"/>
<polygon fill="black" stroke="black" points="976.04,-637.11 967.03,-631.53 970.59,-641.51 976.04,-637.11"/>
</g>
<!-- node8&#45;&gt;node4 -->
<g id="edge15" class="edge">
<title>node8&#45;&gt;node4</title>
<path fill="none" stroke="black" d="M812.13,-694.39C792.4,-676.3 766.94,-652.96 748.83,-636.35"/>
<polygon fill="black" stroke="black" points="751.44,-633.99 741.7,-629.82 746.71,-639.15 751.44,-633.99"/>
</g>
<!-- node8&#45;&gt;node9 -->
<g id="edge16" class="edge">
<title>node8&#45;&gt;node9</title>
<path fill="none" stroke="black" d="M849.63,-694.58C858.91,-665.27 876.91,-618.55 905,-586.48 960.25,-523.4 1046.15,-475.9 1102,-449.44"/>
<polygon fill="black" stroke="black" points="1103.45,-452.63 1111.03,-445.23 1100.49,-446.28 1103.45,-452.63"/>
</g>
<!-- node11&#45;&gt;node10 -->
<g id="edge19" class="edge">
<title>node11&#45;&gt;node10</title>
<path fill="none" stroke="black" d="M2482.88,-397.49C2501.82,-384.03 2524.94,-367.59 2544.39,-353.77"/>
<polygon fill="black" stroke="black" points="2546.25,-356.74 2552.37,-348.1 2542.19,-351.04 2546.25,-356.74"/>
</g>
<!-- node12&#45;&gt;node9 -->
<g id="edge21" class="edge">
<title>node12&#45;&gt;node9</title>
<path fill="none" stroke="black" d="M1083.51,-586.12C1098.3,-553.82 1123.03,-499.86 1139.67,-463.54"/>
<polygon fill="black" stroke="black" points="1142.73,-465.27 1143.71,-454.72 1136.36,-462.35 1142.73,-465.27"/>
</g>
<!-- node12&#45;&gt;node13 -->
<g id="edge23" class="edge">
<title>node12&#45;&gt;node13</title>
<path fill="none" stroke="black" d="M1059.04,-586.19C1047.38,-558.74 1029.86,-514.92 1019,-475.61 1017.05,-468.57 1015.42,-460.84 1014.11,-453.62"/>
<polygon fill="black" stroke="black" points="1017.6,-453.29 1012.5,-444 1010.7,-454.45 1017.6,-453.29"/>
</g>
<!-- node12&#45;&gt;node15 -->
<g id="edge32" class="edge">
<title>node12&#45;&gt;node15</title>
<path fill="none" stroke="black" d="M1122.25,-599.22C1188.09,-580.98 1300.94,-549.71 1360.14,-533.31"/>
<polygon fill="black" stroke="black" points="1360.73,-536.78 1369.43,-530.74 1358.86,-530.03 1360.73,-536.78"/>
</g>
<!-- node14 -->
<g id="node23" class="node">
<title>node14</title>
<polygon fill="none" stroke="black" points="1106.9,-329.46 1010,-341.9 913.1,-329.46 950.12,-309.34 1069.88,-309.34 1106.9,-329.46"/>
<text xml:space="preserve" text-anchor="middle" x="1010" y="-319.63" font-family="Times New Roman,serif" font-size="12.00">glm_DEPS_TARGET</text>
</g>
<!-- node13&#45;&gt;node14 -->
<g id="edge22" class="edge">
<title>node13&#45;&gt;node14</title>
<path fill="none" stroke="black" stroke-dasharray="5,2" d="M1010,-409.97C1010,-395.44 1010,-372.1 1010,-353.54"/>
<polygon fill="black" stroke="black" points="1013.5,-353.69 1010,-343.69 1006.5,-353.69 1013.5,-353.69"/>
</g>
<!-- node15&#45;&gt;node3 -->
<g id="edge24" class="edge">
<title>node15&#45;&gt;node3</title>
<path fill="none" stroke="black" d="M1398.45,-503.15C1398.02,-489.51 1397.41,-470.25 1396.91,-454.35"/>
<polygon fill="black" stroke="black" points="1400.41,-454.39 1396.59,-444.5 1393.41,-454.61 1400.41,-454.39"/>
</g>
<!-- node15&#45;&gt;node16 -->
<g id="edge31" class="edge">
<title>node15&#45;&gt;node16</title>
<path fill="none" stroke="black" d="M1381.53,-506.14C1361.52,-489.64 1328.66,-462.54 1306.69,-444.42"/>
<polygon fill="black" stroke="black" points="1309.11,-441.88 1299.17,-438.22 1304.66,-447.28 1309.11,-441.88"/>
</g>
<!-- node17 -->
<g id="node26" class="node">
<title>node17</title>
<polygon fill="none" stroke="black" points="1418.93,-316.45 1418.93,-331.36 1339.89,-341.9 1228.11,-341.9 1149.07,-331.36 1149.07,-316.45 1228.11,-305.9 1339.89,-305.9 1418.93,-316.45"/>
<text xml:space="preserve" text-anchor="middle" x="1284" y="-319.63" font-family="Times New Roman,serif" font-size="12.00">CONAN_LIB::glfw_glfw3_DEBUG</text>
</g>
<!-- node16&#45;&gt;node17 -->
<g id="edge30" class="edge">
<title>node16&#45;&gt;node17</title>
<path fill="none" stroke="black" stroke-dasharray="5,2" d="M1284,-409.97C1284,-395.44 1284,-372.1 1284,-353.54"/>
<polygon fill="black" stroke="black" points="1287.5,-353.69 1284,-343.69 1280.5,-353.69 1287.5,-353.69"/>
</g>
<!-- node18 -->
<g id="node27" class="node">
<title>node18</title>
<polygon fill="none" stroke="black" points="1383.84,-242.56 1284,-255 1184.16,-242.56 1222.29,-222.44 1345.71,-222.44 1383.84,-242.56"/>
<text xml:space="preserve" text-anchor="middle" x="1284" y="-232.72" font-family="Times New Roman,serif" font-size="12.00">glfw_DEPS_TARGET</text>
</g>
<!-- node17&#45;&gt;node18 -->
<g id="edge29" class="edge">
<title>node17&#45;&gt;node18</title>
<path fill="none" stroke="black" stroke-dasharray="5,2" d="M1284,-305.72C1284,-294.52 1284,-279.62 1284,-266.65"/>
<polygon fill="black" stroke="black" points="1287.5,-266.96 1284,-256.96 1280.5,-266.96 1287.5,-266.96"/>
</g>
<!-- node19 -->
<g id="node28" class="node">
<title>node19</title>
<polygon fill="none" stroke="black" points="1302.36,-159.99 1296.34,-175.22 1272,-182 1247.66,-175.22 1241.64,-159.99 1258.49,-147.78 1285.51,-147.78 1302.36,-159.99"/>
<text xml:space="preserve" text-anchor="middle" x="1272" y="-159.72" font-family="Times New Roman,serif" font-size="12.00">gdi32</text>
</g>
<!-- node18&#45;&gt;node19 -->
<g id="edge25" class="edge">
<title>node18&#45;&gt;node19</title>
<path fill="none" stroke="black" stroke-dasharray="5,2" d="M1281.63,-221.97C1280.22,-213.61 1278.37,-202.69 1276.67,-192.66"/>
<polygon fill="black" stroke="black" points="1280.16,-192.26 1275.04,-182.98 1273.25,-193.43 1280.16,-192.26"/>
</g>
<!-- node20 -->
<g id="node29" class="node">
<title>node20</title>
<polygon fill="none" stroke="black" points="1456,-169.56 1388,-182 1320,-169.56 1345.97,-149.44 1430.03,-149.44 1456,-169.56"/>
<text xml:space="preserve" text-anchor="middle" x="1388" y="-159.72" font-family="Times New Roman,serif" font-size="12.00">opengl::opengl</text>
</g>
<!-- node18&#45;&gt;node20 -->
<g id="edge28" class="edge">
<title>node18&#45;&gt;node20</title>
<path fill="none" stroke="black" stroke-dasharray="5,2" d="M1304.55,-221.97C1320.03,-211.4 1341.47,-196.76 1358.75,-184.97"/>
<polygon fill="black" stroke="black" points="1360.31,-188.14 1366.6,-179.61 1356.37,-182.36 1360.31,-188.14"/>
</g>
<!-- node21 -->
<g id="node30" class="node">
<title>node21</title>
<polygon fill="none" stroke="black" points="1496.1,-96.56 1388,-109 1279.9,-96.56 1321.19,-76.44 1454.81,-76.44 1496.1,-96.56"/>
<text xml:space="preserve" text-anchor="middle" x="1388" y="-86.72" font-family="Times New Roman,serif" font-size="12.00">opengl_DEPS_TARGET</text>
</g>
<!-- node20&#45;&gt;node21 -->
<g id="edge27" class="edge">
<title>node20&#45;&gt;node21</title>
<path fill="none" stroke="black" stroke-dasharray="5,2" d="M1388,-148.97C1388,-140.87 1388,-130.38 1388,-120.61"/>
<polygon fill="black" stroke="black" points="1391.5,-120.78 1388,-110.78 1384.5,-120.78 1391.5,-120.78"/>
</g>
<!-- node22 -->
<g id="node31" class="node">
<title>node22</title>
<polygon fill="none" stroke="black" points="1430.53,-13.99 1422.11,-29.22 1388,-36 1353.89,-29.22 1345.47,-13.99 1369.07,-1.78 1406.93,-1.78 1430.53,-13.99"/>
<text xml:space="preserve" text-anchor="middle" x="1388" y="-13.72" font-family="Times New Roman,serif" font-size="12.00">opengl32</text>
</g>
<!-- node21&#45;&gt;node22 -->
<g id="edge26" class="edge">
<title>node21&#45;&gt;node22</title>
<path fill="none" stroke="black" stroke-dasharray="5,2" d="M1388,-75.97C1388,-67.87 1388,-57.38 1388,-47.61"/>
<polygon fill="black" stroke="black" points="1391.5,-47.78 1388,-37.78 1384.5,-47.78 1391.5,-47.78"/>
</g>
<!-- node23&#45;&gt;node9 -->
<g id="edge34" class="edge">
<title>node23&#45;&gt;node9</title>
<path fill="none" stroke="black" d="M1429.52,-591.82C1409.17,-579.43 1383.15,-563.58 1360,-549.48 1305.62,-516.34 1243.05,-478.19 1201.92,-453.11"/>
<polygon fill="black" stroke="black" points="1203.85,-450.19 1193.49,-447.97 1200.21,-456.16 1203.85,-450.19"/>
</g>
<!-- node23&#45;&gt;node16 -->
<g id="edge46" class="edge">
<title>node23&#45;&gt;node16</title>
<path fill="none" stroke="black" d="M1466.17,-586.13C1465.81,-559.29 1461.02,-518.79 1438,-493.61 1401.77,-453.98 1370.36,-481.91 1323,-456.61 1316.85,-453.32 1310.7,-449.04 1305.16,-444.71"/>
<polygon fill="black" stroke="black" points="1307.63,-442.2 1297.7,-438.52 1303.16,-447.59 1307.63,-442.2"/>
</g>
<!-- node23&#45;&gt;node24 -->
<g id="edge45" class="edge">
<title>node23&#45;&gt;node24</title>
<path fill="none" stroke="black" d="M1523.43,-607.08C1557.14,-601.22 1599.04,-589.97 1631,-568.48 1635.23,-565.63 1639.17,-562.1 1642.75,-558.28"/>
<polygon fill="black" stroke="black" points="1645.33,-560.65 1649.05,-550.73 1639.96,-556.16 1645.33,-560.65"/>
</g>
<!-- node24&#45;&gt;node3 -->
<g id="edge35" class="edge">
<title>node24&#45;&gt;node3</title>
<path fill="none" stroke="black" d="M1630.24,-496.56C1616.6,-488.42 1600.57,-480.03 1585,-474.61 1535.73,-457.46 1519.18,-470.89 1469,-456.61 1457.36,-453.3 1445.11,-448.62 1434.04,-443.9"/>
<polygon fill="black" stroke="black" points="1435.79,-440.84 1425.23,-440.01 1432.97,-447.25 1435.79,-440.84"/>
</g>
<!-- node24&#45;&gt;node9 -->
<g id="edge37" class="edge">
<title>node24&#45;&gt;node9</title>
<path fill="none" stroke="black" d="M1605.79,-506.79C1586.97,-502.53 1566.13,-497.84 1547,-493.61 1507.93,-484.97 1498.57,-480.52 1459,-474.61 1364.6,-460.51 1338.33,-476.58 1245,-456.61 1234.66,-454.4 1223.87,-451.3 1213.53,-447.92"/>
<polygon fill="black" stroke="black" points="1214.98,-444.71 1204.38,-444.8 1212.72,-451.34 1214.98,-444.71"/>
</g>
<!-- node24&#45;&gt;node11 -->
<g id="edge36" class="edge">
<title>node24&#45;&gt;node11</title>
<path fill="none" stroke="black" d="M1732.96,-513.08C1820.33,-503.47 1977.98,-486.59 2113,-474.61 2219.99,-465.12 2248.72,-477.87 2354,-456.61 2362.92,-454.81 2372.18,-452.39 2381.23,-449.69"/>
<polygon fill="black" stroke="black" points="2382.18,-453.06 2390.68,-446.75 2380.09,-446.38 2382.18,-453.06"/>
</g>
<!-- node24&#45;&gt;node13 -->
<g id="edge38" class="edge">
<title>node24&#45;&gt;node13</title>
<path fill="none" stroke="black" d="M1599.19,-512.33C1553.76,-506.83 1492.28,-499.53 1438,-493.61 1273.71,-475.69 1226.14,-504.6 1068,-456.61 1057.85,-453.53 1047.42,-448.61 1038.25,-443.59"/>
<polygon fill="black" stroke="black" points="1040.24,-440.7 1029.83,-438.73 1036.74,-446.76 1040.24,-440.7"/>
</g>
<!-- node24&#45;&gt;node25 -->
<g id="edge40" class="edge">
<title>node24&#45;&gt;node25</title>
<path fill="none" stroke="black" d="M1649.8,-493.11C1642.1,-480.08 1632.95,-464.57 1625.36,-451.72"/>
<polygon fill="black" stroke="black" points="1628.54,-450.22 1620.44,-443.39 1622.51,-453.78 1628.54,-450.22"/>
</g>
<!-- node24&#45;&gt;node27 -->
<g id="edge41" class="edge">
<title>node24&#45;&gt;node27</title>
<path fill="none" stroke="black" d="M1731.04,-508.71C1824.4,-491.64 1986.6,-461.57 1999,-456.61 2006.97,-453.42 2015.04,-448.85 2022.24,-444.2"/>
<polygon fill="black" stroke="black" points="2023.88,-447.32 2030.16,-438.78 2019.93,-441.54 2023.88,-447.32"/>
</g>
<!-- node24&#45;&gt;node28 -->
<g id="edge44" class="edge">
<title>node24&#45;&gt;node28</title>
<path fill="none" stroke="black" d="M1710.58,-500.32C1747.13,-483.73 1798.46,-460.44 1834,-444.31"/>
<polygon fill="black" stroke="black" points="1835,-447.7 1842.66,-440.38 1832.1,-441.33 1835,-447.7"/>
</g>
<!-- node26 -->
<g id="node35" class="node">
<title>node26</title>
<polygon fill="none" stroke="black" points="1718.94,-329.46 1579,-341.9 1439.06,-329.46 1492.51,-309.34 1665.49,-309.34 1718.94,-329.46"/>
<text xml:space="preserve" text-anchor="middle" x="1579" y="-319.63" font-family="Times New Roman,serif" font-size="12.00">nlohmann_json_DEPS_TARGET</text>
</g>
<!-- node25&#45;&gt;node26 -->
<g id="edge39" class="edge">
<title>node25&#45;&gt;node26</title>
<path fill="none" stroke="black" stroke-dasharray="5,2" d="M1605.69,-409.97C1601.06,-395.21 1593.58,-371.37 1587.71,-352.68"/>
<polygon fill="black" stroke="black" points="1591.1,-351.77 1584.76,-343.28 1584.42,-353.86 1591.1,-351.77"/>
</g>
<!-- node29 -->
<g id="node38" class="node">
<title>node29</title>
<polygon fill="none" stroke="black" points="2110.56,-316.45 2110.56,-331.36 2001.28,-341.9 1846.72,-341.9 1737.44,-331.36 1737.44,-316.45 1846.72,-305.9 2001.28,-305.9 2110.56,-316.45"/>
<text xml:space="preserve" text-anchor="middle" x="1924" y="-319.63" font-family="Times New Roman,serif" font-size="12.00">CONAN_LIB::tinyobjloader_tinyobjloader_DEBUG</text>
</g>
<!-- node28&#45;&gt;node29 -->
<g id="edge43" class="edge">
<title>node28&#45;&gt;node29</title>
<path fill="none" stroke="black" stroke-dasharray="5,2" d="M1881.81,-409.97C1889.16,-395.16 1901.04,-371.21 1910.32,-352.49"/>
<polygon fill="black" stroke="black" points="1913.45,-354.05 1914.76,-343.53 1907.18,-350.94 1913.45,-354.05"/>
</g>
<!-- node30 -->
<g id="node39" class="node">
<title>node30</title>
<polygon fill="none" stroke="black" points="2055.68,-242.56 1924,-255 1792.32,-242.56 1842.62,-222.44 2005.38,-222.44 2055.68,-242.56"/>
<text xml:space="preserve" text-anchor="middle" x="1924" y="-232.72" font-family="Times New Roman,serif" font-size="12.00">tinyobjloader_DEPS_TARGET</text>
</g>
<!-- node29&#45;&gt;node30 -->
<g id="edge42" class="edge">
<title>node29&#45;&gt;node30</title>
<path fill="none" stroke="black" stroke-dasharray="5,2" d="M1924,-305.72C1924,-294.52 1924,-279.62 1924,-266.65"/>
<polygon fill="black" stroke="black" points="1927.5,-266.96 1924,-256.96 1920.5,-266.96 1927.5,-266.96"/>
</g>
<!-- node31&#45;&gt;node9 -->
<g id="edge50" class="edge">
<title>node31&#45;&gt;node9</title>
<path fill="none" stroke="black" d="M1251.86,-586.12C1232.51,-553.41 1200.02,-498.46 1178.55,-462.14"/>
<polygon fill="black" stroke="black" points="1181.67,-460.56 1173.57,-453.73 1175.65,-464.12 1181.67,-460.56"/>
</g>
<!-- node31&#45;&gt;node13 -->
<g id="edge52" class="edge">
<title>node31&#45;&gt;node13</title>
<path fill="none" stroke="black" d="M1231.58,-586.92C1178.93,-548.61 1082.8,-478.67 1036.42,-444.93"/>
<polygon fill="black" stroke="black" points="1038.68,-442.24 1028.53,-439.19 1034.56,-447.9 1038.68,-442.24"/>
</g>
<!-- node31&#45;&gt;node15 -->
<g id="edge53" class="edge">
<title>node31&#45;&gt;node15</title>
<path fill="none" stroke="black" d="M1334.96,-597.08C1351.63,-590.43 1368.34,-581.2 1381,-568.48 1385.95,-563.5 1389.58,-557 1392.22,-550.46"/>
<polygon fill="black" stroke="black" points="1395.49,-551.71 1395.32,-541.12 1388.85,-549.51 1395.49,-551.71"/>
</g>
<!-- node31&#45;&gt;node24 -->
<g id="edge51" class="edge">
<title>node31&#45;&gt;node24</title>
<path fill="none" stroke="black" d="M1336.87,-597.69C1409.04,-581.22 1521.85,-555.46 1594.86,-538.79"/>
<polygon fill="black" stroke="black" points="1595.33,-542.27 1604.3,-536.63 1593.77,-535.45 1595.33,-542.27"/>
</g>
<!-- node32&#45;&gt;node4 -->
<g id="edge55" class="edge">
<title>node32&#45;&gt;node4</title>
<path fill="none" stroke="black" d="M652.49,-694.39C668.98,-676.68 690.16,-653.92 705.55,-637.39"/>
<polygon fill="black" stroke="black" points="707.73,-640.18 711.98,-630.48 702.61,-635.42 707.73,-640.18"/>
</g>
<!-- node33&#45;&gt;node1 -->
<g id="edge57" class="edge">
<title>node33&#45;&gt;node1</title>
<path fill="none" stroke="black" d="M1935.66,-598.21C2017.42,-581.98 2146.61,-556.35 2231.58,-539.49"/>
<polygon fill="black" stroke="black" points="2232.14,-542.95 2241.27,-537.57 2230.78,-536.08 2232.14,-542.95"/>
</g>
<!-- node33&#45;&gt;node3 -->
<g id="edge58" class="edge">
<title>node33&#45;&gt;node3</title>
<path fill="none" stroke="black" d="M1856.6,-586.24C1852.56,-558.27 1841.79,-515.75 1813,-493.61 1752.06,-446.73 1543.42,-475.91 1469,-456.61 1457.19,-453.54 1444.8,-448.9 1433.66,-444.13"/>
<polygon fill="black" stroke="black" points="1435.35,-441.05 1424.79,-440.18 1432.5,-447.45 1435.35,-441.05"/>
</g>
<!-- node33&#45;&gt;node9 -->
<g id="edge60" class="edge">
<title>node33&#45;&gt;node9</title>
<path fill="none" stroke="black" d="M1779.49,-599.02C1725.28,-588.11 1652.3,-571.29 1590,-549.48 1516.28,-523.67 1506.32,-495.31 1431,-474.61 1350.92,-452.59 1326.1,-474.5 1245,-456.61 1234.67,-454.33 1223.89,-451.2 1213.55,-447.81"/>
<polygon fill="black" stroke="black" points="1215,-444.61 1204.41,-444.69 1212.74,-451.23 1215,-444.61"/>
</g>
<!-- node33&#45;&gt;node11 -->
<g id="edge59" class="edge">
<title>node33&#45;&gt;node11</title>
<path fill="none" stroke="black" d="M1927.52,-595.63C1939.35,-592.57 1951.53,-589.43 1963,-586.48 2027.41,-569.92 2055.04,-589.71 2108,-549.48 2138.56,-526.27 2118.67,-495.28 2151,-474.61 2189.15,-450.21 2309.67,-465.88 2354,-456.61 2362.79,-454.77 2371.92,-452.35 2380.85,-449.69"/>
<polygon fill="black" stroke="black" points="2381.66,-453.1 2390.17,-446.78 2379.58,-446.42 2381.66,-453.1"/>
</g>
<!-- node33&#45;&gt;node15 -->
<g id="edge63" class="edge">
<title>node33&#45;&gt;node15</title>
<path fill="none" stroke="black" d="M1779.16,-599.22C1710.16,-586.75 1607.83,-567.8 1519,-549.48 1492.52,-544.02 1462.88,-537.37 1439.69,-532.05"/>
<polygon fill="black" stroke="black" points="1440.53,-528.65 1430,-529.81 1438.96,-535.47 1440.53,-528.65"/>
</g>
<!-- node33&#45;&gt;node16 -->
<g id="edge62" class="edge">
<title>node33&#45;&gt;node16</title>
<path fill="none" stroke="black" d="M1841.22,-586.03C1820.98,-557.46 1785.08,-514.03 1742,-493.61 1657.54,-453.57 1409.84,-491.2 1323,-456.61 1316.42,-453.99 1310.05,-449.87 1304.44,-445.5"/>
<polygon fill="black" stroke="black" points="1306.82,-442.92 1296.94,-439.07 1302.26,-448.24 1306.82,-442.92"/>
</g>
<!-- node33&#45;&gt;node24 -->
<g id="edge61" class="edge">
<title>node33&#45;&gt;node24</title>
<path fill="none" stroke="black" d="M1809.05,-589.9C1781.81,-577.07 1748.07,-561.19 1720.2,-548.06"/>
<polygon fill="black" stroke="black" points="1721.74,-544.92 1711.2,-543.83 1718.76,-551.25 1721.74,-544.92"/>
</g>
<!-- node33&#45;&gt;node27 -->
<g id="edge67" class="edge">
<title>node33&#45;&gt;node27</title>
<path fill="none" stroke="black" d="M1878.9,-586.04C1900.99,-556.66 1938.62,-509.51 1977,-474.61 1989.76,-463 2005.38,-451.85 2018.62,-443.13"/>
<polygon fill="black" stroke="black" points="2020.41,-446.14 2026.93,-437.79 2016.63,-440.25 2020.41,-446.14"/>
</g>
<!-- node33&#45;&gt;node28 -->
<g id="edge68" class="edge">
<title>node33&#45;&gt;node28</title>
<path fill="none" stroke="black" d="M1861.33,-586.12C1864.33,-550.86 1869.54,-489.77 1872.59,-454.02"/>
<polygon fill="black" stroke="black" points="1876.04,-454.71 1873.4,-444.45 1869.07,-454.11 1876.04,-454.71"/>
</g>
<!-- node33&#45;&gt;node34 -->
<g id="edge66" class="edge">
<title>node33&#45;&gt;node34</title>
<path fill="none" stroke="black" d="M1913.98,-591.4C1931.08,-584.32 1949.91,-576.29 1967,-568.48 1987.67,-559.03 2010.53,-547.62 2028.3,-538.54"/>
<polygon fill="black" stroke="black" points="2029.73,-541.73 2037.02,-534.05 2026.53,-535.51 2029.73,-541.73"/>
</g>
<!-- node35 -->
<g id="node44" class="node">
<title>node35</title>
<polygon fill="none" stroke="black" points="2345.47,-417.25 2345.47,-432.16 2274.9,-442.71 2175.1,-442.71 2104.53,-432.16 2104.53,-417.25 2175.1,-406.71 2274.9,-406.71 2345.47,-417.25"/>
<text xml:space="preserve" text-anchor="middle" x="2225" y="-420.43" font-family="Times New Roman,serif" font-size="12.00">CONAN_LIB::lua_lua_DEBUG</text>
</g>
<!-- node34&#45;&gt;node35 -->
<g id="edge65" class="edge">
<title>node34&#45;&gt;node35</title>
<path fill="none" stroke="black" stroke-dasharray="5,2" d="M2072.77,-506.84C2083.18,-496.99 2098.18,-483.87 2113,-474.61 2129.62,-464.23 2148.83,-454.97 2166.6,-447.38"/>
<polygon fill="black" stroke="black" points="2167.57,-450.76 2175.46,-443.69 2164.88,-444.3 2167.57,-450.76"/>
</g>
<!-- node36 -->
<g id="node45" class="node">
<title>node36</title>
<polygon fill="none" stroke="black" points="2318.95,-329.46 2225,-341.9 2131.05,-329.46 2166.94,-309.34 2283.06,-309.34 2318.95,-329.46"/>
<text xml:space="preserve" text-anchor="middle" x="2225" y="-319.63" font-family="Times New Roman,serif" font-size="12.00">lua_DEPS_TARGET</text>
</g>
<!-- node35&#45;&gt;node36 -->
<g id="edge64" class="edge">
<title>node35&#45;&gt;node36</title>
<path fill="none" stroke="black" stroke-dasharray="5,2" d="M2225,-406.5C2225,-391.85 2225,-370.52 2225,-353.34"/>
<polygon fill="black" stroke="black" points="2228.5,-353.76 2225,-343.76 2221.5,-353.76 2228.5,-353.76"/>
</g>
<!-- node38 -->
<g id="node47" class="node">
<title>node38</title>
<polygon fill="none" stroke="black" points="3217.2,-619.98 3115,-632.42 3012.8,-619.98 3051.84,-599.85 3178.16,-599.85 3217.2,-619.98"/>
<text xml:space="preserve" text-anchor="middle" x="3115" y="-610.14" font-family="Times New Roman,serif" font-size="12.00">flatbuffers::libflatbuffers</text>
</g>
<!-- node37&#45;&gt;node38 -->
<g id="edge72" class="edge">
<title>node37&#45;&gt;node38</title>
<path fill="none" stroke="black" stroke-dasharray="5,2" d="M2951.58,-707.88C2984.33,-689.35 3042.49,-656.45 3079.86,-635.3"/>
<polygon fill="black" stroke="black" points="3081.52,-638.38 3088.5,-630.41 3078.07,-632.29 3081.52,-638.38"/>
</g>
<!-- node39 -->
<g id="node48" class="node">
<title>node39</title>
<polygon fill="none" stroke="black" points="3517.55,-514.09 3517.55,-529 3371.37,-539.54 3164.63,-539.54 3018.45,-529 3018.45,-514.09 3164.63,-503.54 3371.37,-503.54 3517.55,-514.09"/>
<text xml:space="preserve" text-anchor="middle" x="3268" y="-517.27" font-family="Times New Roman,serif" font-size="12.00">CONAN_LIB::flatbuffers_flatbuffers_libflatbuffers_flatbuffers_DEBUG</text>
</g>
<!-- node38&#45;&gt;node39 -->
<g id="edge71" class="edge">
<title>node38&#45;&gt;node39</title>
<path fill="none" stroke="black" stroke-dasharray="5,2" d="M3138.57,-599.42C3162.64,-585.12 3200.42,-562.68 3228.96,-545.73"/>
<polygon fill="black" stroke="black" points="3230.52,-548.87 3237.34,-540.76 3226.95,-542.85 3230.52,-548.87"/>
</g>
<!-- node40 -->
<g id="node49" class="node">
<title>node40</title>
<polygon fill="none" stroke="black" points="3482.82,-430.27 3268,-442.71 3053.18,-430.27 3135.23,-410.14 3400.77,-410.14 3482.82,-430.27"/>
<text xml:space="preserve" text-anchor="middle" x="3268" y="-420.43" font-family="Times New Roman,serif" font-size="12.00">flatbuffers_flatbuffers_libflatbuffers_DEPS_TARGET</text>
</g>
<!-- node39&#45;&gt;node40 -->
<g id="edge70" class="edge">
<title>node39&#45;&gt;node40</title>
<path fill="none" stroke="black" stroke-dasharray="5,2" d="M3268,-503.15C3268,-489.51 3268,-470.25 3268,-454.35"/>
<polygon fill="black" stroke="black" points="3271.5,-454.5 3268,-444.5 3264.5,-454.5 3271.5,-454.5"/>
</g>
<!-- node42 -->
<g id="node51" class="node">
<title>node42</title>
<polygon fill="none" stroke="black" points="3000.77,-514.09 3000.77,-529 2924.75,-539.54 2817.25,-539.54 2741.23,-529 2741.23,-514.09 2817.25,-503.54 2924.75,-503.54 3000.77,-514.09"/>
<text xml:space="preserve" text-anchor="middle" x="2871" y="-517.27" font-family="Times New Roman,serif" font-size="12.00">CONAN_LIB::pmp_pmp_DEBUG</text>
</g>
<!-- node41&#45;&gt;node42 -->
<g id="edge82" class="edge">
<title>node41&#45;&gt;node42</title>
<path fill="none" stroke="black" stroke-dasharray="5,2" d="M2803.15,-599.61C2815.14,-586 2833.74,-564.86 2848.44,-548.17"/>
<polygon fill="black" stroke="black" points="2850.74,-550.86 2854.72,-541.04 2845.48,-546.23 2850.74,-550.86"/>
</g>
<!-- node43 -->
<g id="node52" class="node">
<title>node43</title>
<polygon fill="none" stroke="black" points="2970.25,-430.27 2871,-442.71 2771.75,-430.27 2809.66,-410.14 2932.34,-410.14 2970.25,-430.27"/>
<text xml:space="preserve" text-anchor="middle" x="2871" y="-420.43" font-family="Times New Roman,serif" font-size="12.00">pmp_DEPS_TARGET</text>
</g>
<!-- node42&#45;&gt;node43 -->
<g id="edge81" class="edge">
<title>node42&#45;&gt;node43</title>
<path fill="none" stroke="black" stroke-dasharray="5,2" d="M2871,-503.15C2871,-489.51 2871,-470.25 2871,-454.35"/>
<polygon fill="black" stroke="black" points="2874.5,-454.5 2871,-444.5 2867.5,-454.5 2874.5,-454.5"/>
</g>
<!-- node44 -->
<g id="node53" class="node">
<title>node44</title>
<polygon fill="none" stroke="black" points="2936.65,-329.46 2871,-341.9 2805.35,-329.46 2830.43,-309.34 2911.57,-309.34 2936.65,-329.46"/>
<text xml:space="preserve" text-anchor="middle" x="2871" y="-319.63" font-family="Times New Roman,serif" font-size="12.00">Eigen3::Eigen</text>
</g>
<!-- node43&#45;&gt;node44 -->
<g id="edge80" class="edge">
<title>node43&#45;&gt;node44</title>
<path fill="none" stroke="black" stroke-dasharray="5,2" d="M2871,-409.97C2871,-395.44 2871,-372.1 2871,-353.54"/>
<polygon fill="black" stroke="black" points="2874.5,-353.69 2871,-343.69 2867.5,-353.69 2874.5,-353.69"/>
</g>
<!-- node45 -->
<g id="node54" class="node">
<title>node45</title>
<polygon fill="none" stroke="black" points="3031.57,-242.56 2871,-255 2710.43,-242.56 2771.76,-222.44 2970.24,-222.44 3031.57,-242.56"/>
<text xml:space="preserve" text-anchor="middle" x="2871" y="-232.72" font-family="Times New Roman,serif" font-size="12.00">eigen_Eigen3_Eigen_DEPS_TARGET</text>
</g>
<!-- node44&#45;&gt;node45 -->
<g id="edge79" class="edge">
<title>node44&#45;&gt;node45</title>
<path fill="none" stroke="black" stroke-dasharray="5,2" d="M2871,-308.88C2871,-297.4 2871,-280.79 2871,-266.53"/>
<polygon fill="black" stroke="black" points="2874.5,-266.78 2871,-256.78 2867.5,-266.78 2874.5,-266.78"/>
</g>
<!-- node46&#45;&gt;node9 -->
<g id="edge85" class="edge">
<title>node46&#45;&gt;node9</title>
<path fill="none" stroke="black" d="M1779.97,-708.64C1739.27,-683.44 1646.54,-627.23 1565,-586.48 1555.69,-581.83 1487.14,-555.96 1479,-549.48 1454.9,-530.31 1464.04,-510.06 1438,-493.61 1364.17,-446.95 1329.32,-479.36 1245,-456.61 1235.35,-454 1225.23,-450.86 1215.43,-447.58"/>
<polygon fill="black" stroke="black" points="1216.58,-444.27 1205.98,-444.34 1214.31,-450.9 1216.58,-444.27"/>
</g>
<!-- node46&#45;&gt;node11 -->
<g id="edge84" class="edge">
<title>node46&#45;&gt;node11</title>
<path fill="none" stroke="black" d="M1824.46,-710.05C1855.2,-694.65 1910.75,-666.7 1958,-642.35 2036.97,-601.66 2067.89,-607.7 2135,-549.48 2165.99,-522.59 2153.54,-495.25 2189,-474.61 2252.75,-437.49 2281.95,-472.44 2354,-456.61 2362.77,-454.68 2371.89,-452.21 2380.81,-449.52"/>
<polygon fill="black" stroke="black" points="2381.64,-452.93 2390.13,-446.59 2379.54,-446.25 2381.64,-452.93"/>
</g>
<!-- node46&#45;&gt;node24 -->
<g id="edge86" class="edge">
<title>node46&#45;&gt;node24</title>
<path fill="none" stroke="black" d="M1789.26,-704.46C1767.37,-672.15 1719.92,-602.12 1690.69,-558.99"/>
<polygon fill="black" stroke="black" points="1693.75,-557.26 1685.24,-550.94 1687.95,-561.19 1693.75,-557.26"/>
</g>
<!-- node46&#45;&gt;node33 -->
<g id="edge87" class="edge">
<title>node46&#45;&gt;node33</title>
<path fill="none" stroke="black" d="M1810.32,-704.7C1817.92,-690.76 1828.94,-670.55 1838.57,-652.88"/>
<polygon fill="black" stroke="black" points="1841.61,-654.62 1843.32,-644.17 1835.46,-651.27 1841.61,-654.62"/>
</g>
<!-- node46&#45;&gt;node41 -->
<g id="edge88" class="edge">
<title>node46&#45;&gt;node41</title>
<path fill="none" stroke="black" d="M1833.66,-718.28C1975.96,-702.99 2543.16,-642.05 2730.56,-621.91"/>
<polygon fill="black" stroke="black" points="2730.75,-625.41 2740.32,-620.86 2730,-618.45 2730.75,-625.41"/>
</g>
<!-- node47 -->
<g id="node56" class="node">
<title>node47</title>
<polygon fill="none" stroke="black" points="1764.7,-787.77 1768.48,-787.87 1772.22,-788.02 1775.9,-788.22 1779.51,-788.46 1783.04,-788.75 1786.48,-789.09 1789.8,-789.47 1792.99,-789.9 1796.06,-790.37 1798.97,-790.88 1801.73,-791.44 1804.32,-792.03 1806.74,-792.66 1808.98,-793.33 1811.03,-794.03 1812.89,-794.76 1814.55,-795.53 1816.01,-796.32 1817.27,-797.13 1818.33,-797.97 1819.19,-798.83 1819.85,-799.71 1820.3,-800.61 1820.57,-801.52 1820.64,-802.44 1820.52,-803.37 1820.22,-804.31 1819.75,-805.25 1819.11,-806.2 1818.3,-807.14 1817.34,-808.07 1816.23,-809.01 1814.99,-809.93 1813.61,-810.84 1812.11,-811.73 1810.5,-812.61 1808.78,-813.48 1806.97,-814.32 1805.07,-815.13 1803.08,-815.92 1801.02,-816.69 1798.9,-817.42 1796.71,-818.12 1794.47,-818.79 1792.19,-819.42 1789.86,-820.01 1787.5,-820.56 1785.11,-821.08 1782.69,-821.55 1780.25,-821.98 1777.79,-822.36 1775.31,-822.7 1772.82,-822.99 1770.32,-823.23 1767.81,-823.43 1765.3,-823.58 1762.78,-823.67 1760.26,-823.72 1757.74,-823.72 1755.22,-823.67 1752.7,-823.58 1750.19,-823.43 1747.68,-823.23 1745.18,-822.99 1742.69,-822.7 1740.21,-822.36 1737.75,-821.98 1735.31,-821.55 1732.89,-821.08 1730.5,-820.56 1728.14,-820.01 1725.81,-819.42 1723.53,-818.79 1721.29,-818.12 1719.1,-817.42 1716.98,-816.69 1714.92,-815.92 1712.93,-815.13 1711.03,-814.32 1709.22,-813.48 1707.5,-812.61 1705.89,-811.73 1704.39,-810.84 1703.01,-809.93 1701.77,-809.01 1700.66,-808.07 1699.7,-807.14 1698.89,-806.2 1698.25,-805.25 1697.78,-804.31 1697.48,-803.37 1697.36,-802.44 1697.43,-801.52 1697.7,-800.61 1698.15,-799.71 1698.81,-798.83 1699.67,-797.97 1700.73,-797.13 1701.99,-796.32 1703.45,-795.53 1705.11,-794.76 1706.97,-794.03 1709.02,-793.33 1711.26,-792.66 1713.68,-792.03 1716.27,-791.44 1719.03,-790.88 1721.94,-790.37 1725.01,-789.9 1728.2,-789.47 1731.52,-789.09 1734.96,-788.75 1738.49,-788.46 1742.1,-788.22 1745.78,-788.02 1749.52,-787.87 1753.3,-787.77 1757.1,-787.72 1760.9,-787.72 1764.7,-787.77"/>
<text xml:space="preserve" text-anchor="middle" x="1759" y="-801.45" font-family="Times New Roman,serif" font-size="12.00">loader_example</text>
</g>
</g>
</svg>
