<?xml version="1.0" encoding="UTF-8" standalone="no"?>
<!DOCTYPE svg PUBLIC "-//W3C//DTD SVG 1.1//EN"
 "http://www.w3.org/Graphics/SVG/1.1/DTD/svg11.dtd">
<!-- Generated by graphviz version 14.1.1 (20251213.1925)
 -->
<!-- Pages: 1 -->
<svg width="2875pt" height="558pt"
 viewBox="0.00 0.00 2875.00 558.00" xmlns="http://www.w3.org/2000/svg" xmlns:xlink="http://www.w3.org/1999/xlink">
<g id="graph0" class="graph" transform="scale(1 1) rotate(0) translate(4 553.87)">
<polygon fill="white" stroke="none" points="-4,4 -4,-553.87 2870.56,-553.87 2870.56,4 -4,4"/>
<g id="clust1" class="cluster">
<title>clusterLegend</title>
<polygon fill="none" stroke="black" points="8,-284 8,-541.87 544,-541.87 544,-284 8,-284"/>
<text xml:space="preserve" text-anchor="middle" x="276" y="-524.57" font-family="Times New Roman,serif" font-size="14.00">Legend</text>
</g>
<!-- legendNode0 -->
<g id="node1" class="node">
<title>legendNode0</title>
<polygon fill="none" stroke="black" points="288.29,-473.42 291.14,-473.52 293.95,-473.67 296.72,-473.86 299.44,-474.11 302.1,-474.4 304.68,-474.74 307.18,-475.12 309.59,-475.55 311.89,-476.02 314.09,-476.53 316.17,-477.09 318.12,-477.68 319.94,-478.31 321.62,-478.98 323.17,-479.68 324.57,-480.41 325.82,-481.17 326.92,-481.96 327.87,-482.78 328.66,-483.62 329.31,-484.48 329.8,-485.36 330.15,-486.26 330.34,-487.17 330.4,-488.09 330.31,-489.02 330.08,-489.96 329.73,-490.9 329.24,-491.84 328.64,-492.78 327.92,-493.72 327.08,-494.65 326.14,-495.58 325.11,-496.49 323.98,-497.38 322.77,-498.26 321.48,-499.12 320.11,-499.96 318.68,-500.78 317.18,-501.57 315.63,-502.33 314.03,-503.07 312.39,-503.77 310.7,-504.43 308.98,-505.06 307.23,-505.66 305.46,-506.21 303.65,-506.72 301.83,-507.2 300,-507.62 298.14,-508.01 296.28,-508.35 294.4,-508.64 292.52,-508.88 290.63,-509.08 288.74,-509.22 286.85,-509.32 284.95,-509.37 283.05,-509.37 281.15,-509.32 279.26,-509.22 277.37,-509.08 275.48,-508.88 273.6,-508.64 271.72,-508.35 269.86,-508.01 268,-507.62 266.17,-507.2 264.35,-506.72 262.54,-506.21 260.77,-505.66 259.02,-505.06 257.3,-504.43 255.61,-503.77 253.97,-503.07 252.37,-502.33 250.82,-501.57 249.32,-500.78 247.89,-499.96 246.52,-499.12 245.23,-498.26 244.02,-497.38 242.89,-496.49 241.86,-495.58 240.92,-494.65 240.08,-493.72 239.36,-492.78 238.76,-491.84 238.27,-490.9 237.92,-489.96 237.69,-489.02 237.6,-488.09 237.66,-487.17 237.85,-486.26 238.2,-485.36 238.69,-484.48 239.34,-483.62 240.13,-482.78 241.08,-481.96 242.18,-481.17 243.43,-480.41 244.83,-479.68 246.38,-478.98 248.06,-478.31 249.88,-477.68 251.83,-477.09 253.91,-476.53 256.11,-476.02 258.41,-475.55 260.82,-475.12 263.32,-474.74 265.9,-474.4 268.56,-474.11 271.28,-473.86 274.05,-473.67 276.86,-473.52 279.71,-473.42 282.57,-473.37 285.43,-473.37 288.29,-473.42"/>
<text xml:space="preserve" text-anchor="middle" x="284" y="-487.1" font-family="Times New Roman,serif" font-size="12.00">Executable</text>
</g>
<!-- legendNode1 -->
<g id="node2" class="node">
<title>legendNode1</title>
<polygon fill="none" stroke="black" points="126.42,-400.98 126.42,-415.89 93.96,-426.44 48.04,-426.44 15.58,-415.89 15.58,-400.98 48.04,-390.44 93.96,-390.44 126.42,-400.98"/>
<text xml:space="preserve" text-anchor="middle" x="71" y="-404.16" font-family="Times New Roman,serif" font-size="12.00">Static Library</text>
</g>
<!-- legendNode0&#45;&gt;legendNode1 -->
<g id="edge1" class="edge">
<title>legendNode0&#45;&gt;legendNode1</title>
<path fill="none" stroke="black" d="M247.98,-477.89C217.69,-467.26 173.31,-451.36 135,-436.37 128.3,-433.75 121.24,-430.88 114.35,-428.03"/>
<polygon fill="black" stroke="black" points="115.73,-424.81 105.15,-424.18 113.03,-431.27 115.73,-424.81"/>
</g>
<!-- legendNode2 -->
<g id="node3" class="node">
<title>legendNode2</title>
<polygon fill="none" stroke="black" points="268.07,-400.98 268.07,-415.89 232.88,-426.44 183.12,-426.44 147.93,-415.89 147.93,-400.98 183.12,-390.44 232.88,-390.44 268.07,-400.98"/>
<polygon fill="none" stroke="black" points="272.07,-398 272.07,-418.87 233.47,-430.44 182.53,-430.44 143.93,-418.87 143.93,-398 182.53,-386.44 233.47,-386.44 272.07,-398"/>
<text xml:space="preserve" text-anchor="middle" x="208" y="-404.16" font-family="Times New Roman,serif" font-size="12.00">Shared Library</text>
</g>
<!-- legendNode0&#45;&gt;legendNode2 -->
<g id="edge2" class="edge">
<title>legendNode0&#45;&gt;legendNode2</title>
<path fill="none" stroke="black" d="M268.62,-473.99C259.2,-463.96 246.85,-450.81 235.77,-439.01"/>
<polygon fill="black" stroke="black" points="238.41,-436.71 229.01,-431.81 233.31,-441.5 238.41,-436.71"/>
</g>
<!-- legendNode3 -->
<g id="node4" class="node">
<title>legendNode3</title>
<polygon fill="none" stroke="black" points="423.65,-400.98 423.65,-415.89 386.95,-426.44 335.05,-426.44 298.35,-415.89 298.35,-400.98 335.05,-390.44 386.95,-390.44 423.65,-400.98"/>
<polygon fill="none" stroke="black" points="427.65,-397.97 427.65,-418.9 387.51,-430.44 334.49,-430.44 294.35,-418.9 294.35,-397.97 334.49,-386.44 387.51,-386.44 427.65,-397.97"/>
<polygon fill="none" stroke="black" points="431.65,-394.95 431.65,-421.92 388.08,-434.44 333.92,-434.44 290.35,-421.92 290.35,-394.95 333.92,-382.44 388.08,-382.44 431.65,-394.95"/>
<text xml:space="preserve" text-anchor="middle" x="361" y="-404.16" font-family="Times New Roman,serif" font-size="12.00">Module Library</text>
</g>
<!-- legendNode0&#45;&gt;legendNode3 -->
<!-- legendNode7 -->
<g id="node8" class="node">
<title>legendNode7</title>
<polygon fill="none" stroke="black" points="535.88,-426.44 450.12,-426.44 450.12,-390.44 535.88,-390.44 535.88,-426.44"/>
<text xml:space="preserve" text-anchor="middle" x="493" y="-404.16" font-family="Times New Roman,serif" font-size="12.00">Custom Target</text>
</g>
<!-- legendNode0&#45;&gt;legendNode7 -->
<!-- legendNode4 -->
<g id="node5" class="node">
<title>legendNode4</title>
<polygon fill="none" stroke="black" points="166.08,-315.56 91,-328 15.92,-315.56 44.6,-295.44 137.4,-295.44 166.08,-315.56"/>
<text xml:space="preserve" text-anchor="middle" x="91" y="-305.73" font-family="Times New Roman,serif" font-size="12.00">Interface Library</text>
</g>
<!-- legendNode1&#45;&gt;legendNode4 -->
<g id="edge4" class="edge">
<title>legendNode1&#45;&gt;legendNode4</title>
<path fill="none" stroke="black" stroke-dasharray="5,2" d="M74.58,-390.2C77.52,-375.98 81.76,-355.54 85.19,-338.99"/>
<polygon fill="black" stroke="black" points="88.61,-339.75 87.21,-329.25 81.76,-338.33 88.61,-339.75"/>
<text xml:space="preserve" text-anchor="middle" x="107.38" y="-349.2" font-family="Times New Roman,serif" font-size="14.00">Interface</text>
</g>
<!-- legendNode5 -->
<g id="node6" class="node">
<title>legendNode5</title>
<polygon fill="none" stroke="black" points="309.98,-310 278.49,-328 215.51,-328 184.02,-310 215.51,-292 278.49,-292 309.98,-310"/>
<text xml:space="preserve" text-anchor="middle" x="247" y="-305.73" font-family="Times New Roman,serif" font-size="12.00">Object Library</text>
</g>
<!-- legendNode2&#45;&gt;legendNode5 -->
<g id="edge5" class="edge">
<title>legendNode2&#45;&gt;legendNode5</title>
<path fill="none" stroke="black" stroke-dasharray="1,5" d="M216.66,-386.03C222.29,-372.1 229.69,-353.79 235.78,-338.75"/>
<polygon fill="black" stroke="black" points="238.86,-340.46 239.36,-329.88 232.37,-337.84 238.86,-340.46"/>
<text xml:space="preserve" text-anchor="middle" x="251.27" y="-349.2" font-family="Times New Roman,serif" font-size="14.00">Private</text>
</g>
<!-- legendNode6 -->
<g id="node7" class="node">
<title>legendNode6</title>
<polygon fill="none" stroke="black" points="472.18,-305.99 457.89,-321.22 400,-328 342.11,-321.22 327.82,-305.99 367.88,-293.78 432.12,-293.78 472.18,-305.99"/>
<text xml:space="preserve" text-anchor="middle" x="400" y="-305.73" font-family="Times New Roman,serif" font-size="12.00">Unknown Library</text>
</g>
<!-- legendNode3&#45;&gt;legendNode6 -->
<g id="edge6" class="edge">
<title>legendNode3&#45;&gt;legendNode6</title>
<path fill="none" stroke="black" d="M371.25,-382.1C376.73,-368.54 383.49,-351.83 389.07,-338.02"/>
<polygon fill="black" stroke="black" points="392.18,-339.67 392.69,-329.08 385.69,-337.04 392.18,-339.67"/>
</g>
<!-- node0 -->
<g id="node9" class="node">
<title>node0</title>
<polygon fill="none" stroke="black" points="1501.12,-473.42 1503.18,-473.52 1505.23,-473.67 1507.24,-473.86 1509.21,-474.11 1511.14,-474.4 1513.02,-474.74 1514.84,-475.12 1516.59,-475.55 1518.26,-476.02 1519.85,-476.53 1521.36,-477.09 1522.78,-477.68 1524.1,-478.31 1525.33,-478.98 1526.45,-479.68 1527.46,-480.41 1528.37,-481.17 1529.17,-481.96 1529.86,-482.78 1530.44,-483.62 1530.91,-484.48 1531.26,-485.36 1531.51,-486.26 1531.66,-487.17 1531.7,-488.09 1531.63,-489.02 1531.47,-489.96 1531.21,-490.9 1530.86,-491.84 1530.42,-492.78 1529.89,-493.72 1529.29,-494.65 1528.61,-495.58 1527.86,-496.49 1527.04,-497.38 1526.16,-498.26 1525.22,-499.12 1524.23,-499.96 1523.18,-500.78 1522.1,-501.57 1520.97,-502.33 1519.81,-503.07 1518.62,-503.77 1517.39,-504.43 1516.15,-505.06 1514.87,-505.66 1513.58,-506.21 1512.27,-506.72 1510.95,-507.2 1509.62,-507.62 1508.27,-508.01 1506.92,-508.35 1505.56,-508.64 1504.19,-508.88 1502.82,-509.08 1501.44,-509.22 1500.07,-509.32 1498.69,-509.37 1497.31,-509.37 1495.93,-509.32 1494.56,-509.22 1493.18,-509.08 1491.81,-508.88 1490.44,-508.64 1489.08,-508.35 1487.73,-508.01 1486.38,-507.62 1485.05,-507.2 1483.73,-506.72 1482.42,-506.21 1481.13,-505.66 1479.85,-505.06 1478.61,-504.43 1477.38,-503.77 1476.19,-503.07 1475.03,-502.33 1473.9,-501.57 1472.82,-500.78 1471.77,-499.96 1470.78,-499.12 1469.84,-498.26 1468.96,-497.38 1468.14,-496.49 1467.39,-495.58 1466.71,-494.65 1466.11,-493.72 1465.58,-492.78 1465.14,-491.84 1464.79,-490.9 1464.53,-489.96 1464.37,-489.02 1464.3,-488.09 1464.34,-487.17 1464.49,-486.26 1464.74,-485.36 1465.09,-484.48 1465.56,-483.62 1466.14,-482.78 1466.83,-481.96 1467.63,-481.17 1468.54,-480.41 1469.55,-479.68 1470.67,-478.98 1471.9,-478.31 1473.22,-477.68 1474.64,-477.09 1476.15,-476.53 1477.74,-476.02 1479.41,-475.55 1481.16,-475.12 1482.98,-474.74 1484.86,-474.4 1486.79,-474.11 1488.76,-473.86 1490.77,-473.67 1492.82,-473.52 1494.88,-473.42 1496.96,-473.37 1499.04,-473.37 1501.12,-473.42"/>
<text xml:space="preserve" text-anchor="middle" x="1498" y="-487.1" font-family="Times New Roman,serif" font-size="12.00">Engine</text>
</g>
<!-- node1 -->
<g id="node10" class="node">
<title>node1</title>
<polygon fill="none" stroke="black" points="834.72,-396.86 834.72,-420.01 784.51,-436.37 713.49,-436.37 663.28,-420.01 663.28,-396.86 713.49,-380.5 784.51,-380.5 834.72,-396.86"/>
<text xml:space="preserve" text-anchor="middle" x="749" y="-411.29" font-family="Times New Roman,serif" font-size="12.00">TracyClient</text>
<text xml:space="preserve" text-anchor="middle" x="749" y="-397.04" font-family="Times New Roman,serif" font-size="12.00">(Tracy::TracyClient)</text>
</g>
<!-- node0&#45;&gt;node1 -->
<g id="edge9" class="edge">
<title>node0&#45;&gt;node1</title>
<path fill="none" stroke="black" stroke-dasharray="1,5" d="M1464.09,-487.41C1378.27,-479.84 1145.5,-458.77 952,-436.37 916.62,-432.28 877.85,-427.26 843.75,-422.67"/>
<polygon fill="black" stroke="black" points="844.26,-419.21 833.88,-421.34 843.32,-426.15 844.26,-419.21"/>
</g>
<!-- node3 -->
<g id="node12" class="node">
<title>node3</title>
<polygon fill="none" stroke="black" points="1089.24,-404.43 1076.52,-419.66 1025,-426.44 973.48,-419.66 960.76,-404.43 996.41,-392.22 1053.59,-392.22 1089.24,-404.43"/>
<text xml:space="preserve" text-anchor="middle" x="1025" y="-404.16" font-family="Times New Roman,serif" font-size="12.00">Vulkan::Vulkan</text>
</g>
<!-- node0&#45;&gt;node3 -->
<g id="edge10" class="edge">
<title>node0&#45;&gt;node3</title>
<path fill="none" stroke="black" stroke-dasharray="1,5" d="M1464.08,-488.31C1394.53,-483.53 1231.11,-469.49 1098,-436.37 1087.8,-433.83 1077.05,-430.35 1067.03,-426.73"/>
<polygon fill="black" stroke="black" points="1068.51,-423.55 1057.92,-423.31 1066.06,-430.1 1068.51,-423.55"/>
</g>
<!-- node4 -->
<g id="node13" class="node">
<title>node4</title>
<polygon fill="none" stroke="black" points="1200.78,-414 1154,-426.44 1107.22,-414 1125.09,-393.87 1182.91,-393.87 1200.78,-414"/>
<text xml:space="preserve" text-anchor="middle" x="1154" y="-404.16" font-family="Times New Roman,serif" font-size="12.00">asio::asio</text>
</g>
<!-- node0&#45;&gt;node4 -->
<g id="edge12" class="edge">
<title>node0&#45;&gt;node4</title>
<path fill="none" stroke="black" stroke-dasharray="1,5" d="M1464.02,-486.93C1409.41,-480.75 1299.19,-465.61 1210,-436.37 1201.82,-433.69 1193.31,-430.07 1185.46,-426.35"/>
<polygon fill="black" stroke="black" points="1187.13,-423.27 1176.61,-421.97 1184.02,-429.54 1187.13,-423.27"/>
</g>
<!-- node6 -->
<g id="node15" class="node">
<title>node6</title>
<polygon fill="none" stroke="black" points="1404.77,-414 1312,-426.44 1219.23,-414 1254.67,-393.87 1369.33,-393.87 1404.77,-414"/>
<text xml:space="preserve" text-anchor="middle" x="1312" y="-404.16" font-family="Times New Roman,serif" font-size="12.00">flatbuffers::flatbuffers</text>
</g>
<!-- node0&#45;&gt;node6 -->
<g id="edge16" class="edge">
<title>node0&#45;&gt;node6</title>
<path fill="none" stroke="black" stroke-dasharray="1,5" d="M1470.95,-478.6C1439.87,-465.08 1388.52,-442.73 1352.63,-427.11"/>
<polygon fill="black" stroke="black" points="1354.43,-424.08 1343.87,-423.3 1351.64,-430.5 1354.43,-424.08"/>
</g>
<!-- node10 -->
<g id="node19" class="node">
<title>node10</title>
<polygon fill="none" stroke="black" points="1481.68,-414 1452,-426.44 1422.32,-414 1433.66,-393.87 1470.34,-393.87 1481.68,-414"/>
<text xml:space="preserve" text-anchor="middle" x="1452" y="-404.16" font-family="Times New Roman,serif" font-size="12.00">glfw</text>
</g>
<!-- node0&#45;&gt;node10 -->
<g id="edge23" class="edge">
<title>node0&#45;&gt;node10</title>
<path fill="none" stroke="black" stroke-dasharray="1,5" d="M1488.47,-473.6C1481.82,-461.91 1472.86,-446.14 1465.49,-433.17"/>
<polygon fill="black" stroke="black" points="1468.72,-431.77 1460.73,-424.8 1462.63,-435.23 1468.72,-431.77"/>
</g>
<!-- node17 -->
<g id="node26" class="node">
<title>node17</title>
<polygon fill="none" stroke="black" points="1590.6,-414 1545,-426.44 1499.4,-414 1516.82,-393.87 1573.18,-393.87 1590.6,-414"/>
<text xml:space="preserve" text-anchor="middle" x="1545" y="-404.16" font-family="Times New Roman,serif" font-size="12.00">glm::glm</text>
</g>
<!-- node0&#45;&gt;node17 -->
<g id="edge25" class="edge">
<title>node0&#45;&gt;node17</title>
<path fill="none" stroke="black" stroke-dasharray="1,5" d="M1507.74,-473.6C1514.36,-462.2 1523.23,-446.93 1530.65,-434.15"/>
<polygon fill="black" stroke="black" points="1533.47,-436.26 1535.47,-425.86 1527.42,-432.75 1533.47,-436.26"/>
</g>
<!-- node19 -->
<g id="node28" class="node">
<title>node19</title>
<polygon fill="none" stroke="black" points="1710.7,-414 1671,-426.44 1631.3,-414 1646.46,-393.87 1695.54,-393.87 1710.7,-414"/>
<text xml:space="preserve" text-anchor="middle" x="1671" y="-404.16" font-family="Times New Roman,serif" font-size="12.00">lua::lua</text>
</g>
<!-- node0&#45;&gt;node19 -->
<g id="edge28" class="edge">
<title>node0&#45;&gt;node19</title>
<path fill="none" stroke="black" stroke-dasharray="1,5" d="M1524.27,-478.08C1554.9,-463.75 1605.5,-440.08 1638.55,-424.62"/>
<polygon fill="black" stroke="black" points="1639.67,-427.96 1647.24,-420.55 1636.7,-421.62 1639.67,-427.96"/>
</g>
<!-- node22 -->
<g id="node31" class="node">
<title>node22</title>
<polygon fill="none" stroke="black" points="2002.68,-414 1871,-426.44 1739.32,-414 1789.62,-393.87 1952.38,-393.87 2002.68,-414"/>
<text xml:space="preserve" text-anchor="middle" x="1871" y="-404.16" font-family="Times New Roman,serif" font-size="12.00">nlohmann_json::nlohmann_json</text>
</g>
<!-- node0&#45;&gt;node22 -->
<g id="edge30" class="edge">
<title>node0&#45;&gt;node22</title>
<path fill="none" stroke="black" stroke-dasharray="1,5" d="M1525.29,-478.44C1530.13,-476.58 1535.17,-474.8 1540,-473.37 1564.25,-466.2 1706.66,-439.56 1796.61,-423.02"/>
<polygon fill="black" stroke="black" points="1797.16,-426.47 1806.36,-421.22 1795.89,-419.59 1797.16,-426.47"/>
</g>
<!-- node24 -->
<g id="node33" class="node">
<title>node24</title>
<polygon fill="none" stroke="black" points="2127.31,-414 2077,-426.44 2026.69,-414 2045.9,-393.87 2108.1,-393.87 2127.31,-414"/>
<text xml:space="preserve" text-anchor="middle" x="2077" y="-404.16" font-family="Times New Roman,serif" font-size="12.00">pmp::pmp</text>
</g>
<!-- node0&#45;&gt;node24 -->
<g id="edge35" class="edge">
<title>node0&#45;&gt;node24</title>
<path fill="none" stroke="black" stroke-dasharray="1,5" d="M1524.71,-478.15C1529.71,-476.27 1534.95,-474.56 1540,-473.37 1744.81,-425.11 1807.39,-485.48 2012,-436.37 2022.55,-433.84 2033.61,-429.82 2043.56,-425.65"/>
<polygon fill="black" stroke="black" points="2044.7,-428.97 2052.44,-421.74 2041.88,-422.56 2044.7,-428.97"/>
</g>
<!-- node29 -->
<g id="node38" class="node">
<title>node29</title>
<polygon fill="none" stroke="black" points="2585.17,-414 2470,-426.44 2354.83,-414 2398.82,-393.87 2541.18,-393.87 2585.17,-414"/>
<text xml:space="preserve" text-anchor="middle" x="2470" y="-404.16" font-family="Times New Roman,serif" font-size="12.00">tinyobjloader::tinyobjloader</text>
</g>
<!-- node0&#45;&gt;node29 -->
<g id="edge38" class="edge">
<title>node0&#45;&gt;node29</title>
<path fill="none" stroke="black" stroke-dasharray="1,5" d="M1524.7,-478.08C1529.69,-476.21 1534.94,-474.52 1540,-473.37 1572.35,-466.03 2102.91,-438.73 2136,-436.37 2214.03,-430.8 2302.24,-423.65 2368.41,-418.12"/>
<polygon fill="black" stroke="black" points="2368.48,-421.63 2378.15,-417.3 2367.9,-414.65 2368.48,-421.63"/>
</g>
<!-- node2 -->
<g id="node11" class="node">
<title>node2</title>
<polygon fill="none" stroke="black" points="706.44,-315.56 629,-328 551.56,-315.56 581.14,-295.44 676.86,-295.44 706.44,-315.56"/>
<text xml:space="preserve" text-anchor="middle" x="629" y="-305.73" font-family="Times New Roman,serif" font-size="12.00">Threads::Threads</text>
</g>
<!-- node1&#45;&gt;node2 -->
<g id="edge8" class="edge">
<title>node1&#45;&gt;node2</title>
<path fill="none" stroke="black" d="M714.93,-380.06C696.05,-364.89 672.93,-346.3 655.42,-332.24"/>
<polygon fill="black" stroke="black" points="658,-329.82 648.02,-326.28 653.62,-335.27 658,-329.82"/>
</g>
<!-- node5 -->
<g id="node14" class="node">
<title>node5</title>
<polygon fill="none" stroke="black" points="919.48,-315.56 822,-328 724.52,-315.56 761.75,-295.44 882.25,-295.44 919.48,-315.56"/>
<text xml:space="preserve" text-anchor="middle" x="822" y="-305.73" font-family="Times New Roman,serif" font-size="12.00">asio_DEPS_TARGET</text>
</g>
<!-- node4&#45;&gt;node5 -->
<g id="edge11" class="edge">
<title>node4&#45;&gt;node5</title>
<path fill="none" stroke="black" stroke-dasharray="5,2" d="M1127.7,-393.43C1118.48,-388.89 1107.94,-384.1 1098,-380.5 1027.88,-355.1 944.5,-335.49 887.87,-323.68"/>
<polygon fill="black" stroke="black" points="888.9,-320.31 878.4,-321.72 887.48,-327.17 888.9,-320.31"/>
</g>
<!-- node7 -->
<g id="node16" class="node">
<title>node7</title>
<polygon fill="none" stroke="black" points="1142.2,-315.56 1040,-328 937.8,-315.56 976.84,-295.44 1103.16,-295.44 1142.2,-315.56"/>
<text xml:space="preserve" text-anchor="middle" x="1040" y="-305.73" font-family="Times New Roman,serif" font-size="12.00">flatbuffers::libflatbuffers</text>
</g>
<!-- node6&#45;&gt;node7 -->
<g id="edge15" class="edge">
<title>node6&#45;&gt;node7</title>
<path fill="none" stroke="black" stroke-dasharray="5,2" d="M1272.45,-393.41C1223.34,-376 1139.67,-346.34 1087.24,-327.75"/>
<polygon fill="black" stroke="black" points="1088.57,-324.51 1077.98,-324.46 1086.23,-331.1 1088.57,-324.51"/>
</g>
<!-- node8 -->
<g id="node17" class="node">
<title>node8</title>
<polygon fill="none" stroke="black" points="1219.55,-229.54 1219.55,-244.46 1073.37,-255 866.63,-255 720.45,-244.46 720.45,-229.54 866.63,-219 1073.37,-219 1219.55,-229.54"/>
<text xml:space="preserve" text-anchor="middle" x="970" y="-232.72" font-family="Times New Roman,serif" font-size="12.00">CONAN_LIB::flatbuffers_flatbuffers_libflatbuffers_flatbuffers_DEBUG</text>
</g>
<!-- node7&#45;&gt;node8 -->
<g id="edge14" class="edge">
<title>node7&#45;&gt;node8</title>
<path fill="none" stroke="black" stroke-dasharray="5,2" d="M1026.17,-294.97C1017.3,-285.98 1005.54,-274.04 995.06,-263.42"/>
<polygon fill="black" stroke="black" points="997.59,-261 988.08,-256.34 992.61,-265.92 997.59,-261"/>
</g>
<!-- node9 -->
<g id="node18" class="node">
<title>node9</title>
<polygon fill="none" stroke="black" points="1184.82,-169.56 970,-182 755.18,-169.56 837.23,-149.44 1102.77,-149.44 1184.82,-169.56"/>
<text xml:space="preserve" text-anchor="middle" x="970" y="-159.72" font-family="Times New Roman,serif" font-size="12.00">flatbuffers_flatbuffers_libflatbuffers_DEPS_TARGET</text>
</g>
<!-- node8&#45;&gt;node9 -->
<g id="edge13" class="edge">
<title>node8&#45;&gt;node9</title>
<path fill="none" stroke="black" stroke-dasharray="5,2" d="M970,-218.81C970,-211.23 970,-202.1 970,-193.54"/>
<polygon fill="black" stroke="black" points="973.5,-193.54 970,-183.54 966.5,-193.54 973.5,-193.54"/>
</g>
<!-- node11 -->
<g id="node20" class="node">
<title>node11</title>
<polygon fill="none" stroke="black" points="1429.93,-302.54 1429.93,-317.46 1350.89,-328 1239.11,-328 1160.07,-317.46 1160.07,-302.54 1239.11,-292 1350.89,-292 1429.93,-302.54"/>
<text xml:space="preserve" text-anchor="middle" x="1295" y="-305.73" font-family="Times New Roman,serif" font-size="12.00">CONAN_LIB::glfw_glfw3_DEBUG</text>
</g>
<!-- node10&#45;&gt;node11 -->
<g id="edge22" class="edge">
<title>node10&#45;&gt;node11</title>
<path fill="none" stroke="black" stroke-dasharray="5,2" d="M1433.28,-393.68C1427.21,-389.34 1420.39,-384.62 1414,-380.5 1388.69,-364.18 1359.5,-347.11 1336.36,-333.97"/>
<polygon fill="black" stroke="black" points="1338.27,-331.02 1327.84,-329.15 1334.82,-337.12 1338.27,-331.02"/>
</g>
<!-- node12 -->
<g id="node21" class="node">
<title>node12</title>
<polygon fill="none" stroke="black" points="1436.84,-242.56 1337,-255 1237.16,-242.56 1275.29,-222.44 1398.71,-222.44 1436.84,-242.56"/>
<text xml:space="preserve" text-anchor="middle" x="1337" y="-232.72" font-family="Times New Roman,serif" font-size="12.00">glfw_DEPS_TARGET</text>
</g>
<!-- node11&#45;&gt;node12 -->
<g id="edge21" class="edge">
<title>node11&#45;&gt;node12</title>
<path fill="none" stroke="black" stroke-dasharray="5,2" d="M1305.17,-291.81C1310.16,-283.37 1316.28,-273.03 1321.81,-263.68"/>
<polygon fill="black" stroke="black" points="1324.65,-265.75 1326.73,-255.36 1318.63,-262.18 1324.65,-265.75"/>
</g>
<!-- node13 -->
<g id="node22" class="node">
<title>node13</title>
<polygon fill="none" stroke="black" points="1302.36,-159.99 1296.34,-175.22 1272,-182 1247.66,-175.22 1241.64,-159.99 1258.49,-147.78 1285.51,-147.78 1302.36,-159.99"/>
<text xml:space="preserve" text-anchor="middle" x="1272" y="-159.72" font-family="Times New Roman,serif" font-size="12.00">gdi32</text>
</g>
<!-- node12&#45;&gt;node13 -->
<g id="edge17" class="edge">
<title>node12&#45;&gt;node13</title>
<path fill="none" stroke="black" stroke-dasharray="5,2" d="M1324.16,-221.97C1314.96,-211.92 1302.4,-198.2 1291.9,-186.74"/>
<polygon fill="black" stroke="black" points="1294.73,-184.65 1285.4,-179.63 1289.57,-189.37 1294.73,-184.65"/>
</g>
<!-- node14 -->
<g id="node23" class="node">
<title>node14</title>
<polygon fill="none" stroke="black" points="1456,-169.56 1388,-182 1320,-169.56 1345.97,-149.44 1430.03,-149.44 1456,-169.56"/>
<text xml:space="preserve" text-anchor="middle" x="1388" y="-159.72" font-family="Times New Roman,serif" font-size="12.00">opengl::opengl</text>
</g>
<!-- node12&#45;&gt;node14 -->
<g id="edge20" class="edge">
<title>node12&#45;&gt;node14</title>
<path fill="none" stroke="black" stroke-dasharray="5,2" d="M1347.08,-221.97C1353.81,-212.6 1362.85,-200.02 1370.71,-189.06"/>
<polygon fill="black" stroke="black" points="1373.37,-191.37 1376.36,-181.21 1367.68,-187.29 1373.37,-191.37"/>
</g>
<!-- node15 -->
<g id="node24" class="node">
<title>node15</title>
<polygon fill="none" stroke="black" points="1496.1,-96.56 1388,-109 1279.9,-96.56 1321.19,-76.44 1454.81,-76.44 1496.1,-96.56"/>
<text xml:space="preserve" text-anchor="middle" x="1388" y="-86.72" font-family="Times New Roman,serif" font-size="12.00">opengl_DEPS_TARGET</text>
</g>
<!-- node14&#45;&gt;node15 -->
<g id="edge19" class="edge">
<title>node14&#45;&gt;node15</title>
<path fill="none" stroke="black" stroke-dasharray="5,2" d="M1388,-148.97C1388,-140.87 1388,-130.38 1388,-120.61"/>
<polygon fill="black" stroke="black" points="1391.5,-120.78 1388,-110.78 1384.5,-120.78 1391.5,-120.78"/>
</g>
<!-- node16 -->
<g id="node25" class="node">
<title>node16</title>
<polygon fill="none" stroke="black" points="1430.53,-13.99 1422.11,-29.22 1388,-36 1353.89,-29.22 1345.47,-13.99 1369.07,-1.78 1406.93,-1.78 1430.53,-13.99"/>
<text xml:space="preserve" text-anchor="middle" x="1388" y="-13.72" font-family="Times New Roman,serif" font-size="12.00">opengl32</text>
</g>
<!-- node15&#45;&gt;node16 -->
<g id="edge18" class="edge">
<title>node15&#45;&gt;node16</title>
<path fill="none" stroke="black" stroke-dasharray="5,2" d="M1388,-75.97C1388,-67.87 1388,-57.38 1388,-47.61"/>
<polygon fill="black" stroke="black" points="1391.5,-47.78 1388,-37.78 1384.5,-47.78 1391.5,-47.78"/>
</g>
<!-- node18 -->
<g id="node27" class="node">
<title>node18</title>
<polygon fill="none" stroke="black" points="1641.9,-315.56 1545,-328 1448.1,-315.56 1485.12,-295.44 1604.88,-295.44 1641.9,-315.56"/>
<text xml:space="preserve" text-anchor="middle" x="1545" y="-305.73" font-family="Times New Roman,serif" font-size="12.00">glm_DEPS_TARGET</text>
</g>
<!-- node17&#45;&gt;node18 -->
<g id="edge24" class="edge">
<title>node17&#45;&gt;node18</title>
<path fill="none" stroke="black" stroke-dasharray="5,2" d="M1545,-393.62C1545,-379.65 1545,-357.66 1545,-339.87"/>
<polygon fill="black" stroke="black" points="1548.5,-339.9 1545,-329.9 1541.5,-339.9 1548.5,-339.9"/>
</g>
<!-- node20 -->
<g id="node29" class="node">
<title>node20</title>
<polygon fill="none" stroke="black" points="1900.47,-302.54 1900.47,-317.46 1829.9,-328 1730.1,-328 1659.53,-317.46 1659.53,-302.54 1730.1,-292 1829.9,-292 1900.47,-302.54"/>
<text xml:space="preserve" text-anchor="middle" x="1780" y="-305.73" font-family="Times New Roman,serif" font-size="12.00">CONAN_LIB::lua_lua_DEBUG</text>
</g>
<!-- node19&#45;&gt;node20 -->
<g id="edge27" class="edge">
<title>node19&#45;&gt;node20</title>
<path fill="none" stroke="black" stroke-dasharray="5,2" d="M1686.62,-393.62C1703.61,-378.58 1731.14,-354.23 1751.91,-335.85"/>
<polygon fill="black" stroke="black" points="1754.05,-338.63 1759.22,-329.38 1749.41,-333.39 1754.05,-338.63"/>
</g>
<!-- node21 -->
<g id="node30" class="node">
<title>node21</title>
<polygon fill="none" stroke="black" points="1873.95,-242.56 1780,-255 1686.05,-242.56 1721.94,-222.44 1838.06,-222.44 1873.95,-242.56"/>
<text xml:space="preserve" text-anchor="middle" x="1780" y="-232.72" font-family="Times New Roman,serif" font-size="12.00">lua_DEPS_TARGET</text>
</g>
<!-- node20&#45;&gt;node21 -->
<g id="edge26" class="edge">
<title>node20&#45;&gt;node21</title>
<path fill="none" stroke="black" stroke-dasharray="5,2" d="M1780,-291.81C1780,-284.23 1780,-275.1 1780,-266.54"/>
<polygon fill="black" stroke="black" points="1783.5,-266.54 1780,-256.54 1776.5,-266.54 1783.5,-266.54"/>
</g>
<!-- node23 -->
<g id="node32" class="node">
<title>node23</title>
<polygon fill="none" stroke="black" points="2197.94,-315.56 2058,-328 1918.06,-315.56 1971.51,-295.44 2144.49,-295.44 2197.94,-315.56"/>
<text xml:space="preserve" text-anchor="middle" x="2058" y="-305.73" font-family="Times New Roman,serif" font-size="12.00">nlohmann_json_DEPS_TARGET</text>
</g>
<!-- node22&#45;&gt;node23 -->
<g id="edge29" class="edge">
<title>node22&#45;&gt;node23</title>
<path fill="none" stroke="black" stroke-dasharray="5,2" d="M1898.19,-393.41C1930,-377.01 1982.9,-349.73 2019.06,-331.08"/>
<polygon fill="black" stroke="black" points="2020.61,-334.22 2027.89,-326.53 2017.4,-328 2020.61,-334.22"/>
</g>
<!-- node25 -->
<g id="node34" class="node">
<title>node25</title>
<polygon fill="none" stroke="black" points="2475.77,-302.54 2475.77,-317.46 2399.75,-328 2292.25,-328 2216.23,-317.46 2216.23,-302.54 2292.25,-292 2399.75,-292 2475.77,-302.54"/>
<text xml:space="preserve" text-anchor="middle" x="2346" y="-305.73" font-family="Times New Roman,serif" font-size="12.00">CONAN_LIB::pmp_pmp_DEBUG</text>
</g>
<!-- node24&#45;&gt;node25 -->
<g id="edge34" class="edge">
<title>node24&#45;&gt;node25</title>
<path fill="none" stroke="black" stroke-dasharray="5,2" d="M2110.25,-395.51C2154.27,-379.73 2232.62,-351.65 2286.85,-332.21"/>
<polygon fill="black" stroke="black" points="2287.7,-335.62 2295.93,-328.95 2285.34,-329.03 2287.7,-335.62"/>
</g>
<!-- node26 -->
<g id="node35" class="node">
<title>node26</title>
<polygon fill="none" stroke="black" points="2445.25,-242.56 2346,-255 2246.75,-242.56 2284.66,-222.44 2407.34,-222.44 2445.25,-242.56"/>
<text xml:space="preserve" text-anchor="middle" x="2346" y="-232.72" font-family="Times New Roman,serif" font-size="12.00">pmp_DEPS_TARGET</text>
</g>
<!-- node25&#45;&gt;node26 -->
<g id="edge33" class="edge">
<title>node25&#45;&gt;node26</title>
<path fill="none" stroke="black" stroke-dasharray="5,2" d="M2346,-291.81C2346,-284.23 2346,-275.1 2346,-266.54"/>
<polygon fill="black" stroke="black" points="2349.5,-266.54 2346,-256.54 2342.5,-266.54 2349.5,-266.54"/>
</g>
<!-- node27 -->
<g id="node36" class="node">
<title>node27</title>
<polygon fill="none" stroke="black" points="2411.65,-169.56 2346,-182 2280.35,-169.56 2305.43,-149.44 2386.57,-149.44 2411.65,-169.56"/>
<text xml:space="preserve" text-anchor="middle" x="2346" y="-159.72" font-family="Times New Roman,serif" font-size="12.00">Eigen3::Eigen</text>
</g>
<!-- node26&#45;&gt;node27 -->
<g id="edge32" class="edge">
<title>node26&#45;&gt;node27</title>
<path fill="none" stroke="black" stroke-dasharray="5,2" d="M2346,-221.97C2346,-213.87 2346,-203.38 2346,-193.61"/>
<polygon fill="black" stroke="black" points="2349.5,-193.78 2346,-183.78 2342.5,-193.78 2349.5,-193.78"/>
</g>
<!-- node28 -->
<g id="node37" class="node">
<title>node28</title>
<polygon fill="none" stroke="black" points="2506.57,-96.56 2346,-109 2185.43,-96.56 2246.76,-76.44 2445.24,-76.44 2506.57,-96.56"/>
<text xml:space="preserve" text-anchor="middle" x="2346" y="-86.72" font-family="Times New Roman,serif" font-size="12.00">eigen_Eigen3_Eigen_DEPS_TARGET</text>
</g>
<!-- node27&#45;&gt;node28 -->
<g id="edge31" class="edge">
<title>node27&#45;&gt;node28</title>
<path fill="none" stroke="black" stroke-dasharray="5,2" d="M2346,-148.97C2346,-140.87 2346,-130.38 2346,-120.61"/>
<polygon fill="black" stroke="black" points="2349.5,-120.78 2346,-110.78 2342.5,-120.78 2349.5,-120.78"/>
</g>
<!-- node30 -->
<g id="node39" class="node">
<title>node30</title>
<polygon fill="none" stroke="black" points="2866.56,-302.54 2866.56,-317.46 2757.28,-328 2602.72,-328 2493.44,-317.46 2493.44,-302.54 2602.72,-292 2757.28,-292 2866.56,-302.54"/>
<text xml:space="preserve" text-anchor="middle" x="2680" y="-305.73" font-family="Times New Roman,serif" font-size="12.00">CONAN_LIB::tinyobjloader_tinyobjloader_DEBUG</text>
</g>
<!-- node29&#45;&gt;node30 -->
<g id="edge37" class="edge">
<title>node29&#45;&gt;node30</title>
<path fill="none" stroke="black" stroke-dasharray="5,2" d="M2500.54,-393.41C2534.89,-377.64 2591.16,-351.8 2631.54,-333.26"/>
<polygon fill="black" stroke="black" points="2632.95,-336.46 2640.58,-329.1 2630.03,-330.1 2632.95,-336.46"/>
</g>
<!-- node31 -->
<g id="node40" class="node">
<title>node31</title>
<polygon fill="none" stroke="black" points="2811.68,-242.56 2680,-255 2548.32,-242.56 2598.62,-222.44 2761.38,-222.44 2811.68,-242.56"/>
<text xml:space="preserve" text-anchor="middle" x="2680" y="-232.72" font-family="Times New Roman,serif" font-size="12.00">tinyobjloader_DEPS_TARGET</text>
</g>
<!-- node30&#45;&gt;node31 -->
<g id="edge36" class="edge">
<title>node30&#45;&gt;node31</title>
<path fill="none" stroke="black" stroke-dasharray="5,2" d="M2680,-291.81C2680,-284.23 2680,-275.1 2680,-266.54"/>
<polygon fill="black" stroke="black" points="2683.5,-266.54 2680,-256.54 2676.5,-266.54 2683.5,-266.54"/>
</g>
<!-- node32 -->
<g id="node41" class="node">
<title>node32</title>
<polygon fill="none" stroke="black" points="1616.7,-473.42 1620.48,-473.52 1624.22,-473.67 1627.9,-473.86 1631.51,-474.11 1635.04,-474.4 1638.48,-474.74 1641.8,-475.12 1644.99,-475.55 1648.06,-476.02 1650.97,-476.53 1653.73,-477.09 1656.32,-477.68 1658.74,-478.31 1660.98,-478.98 1663.03,-479.68 1664.89,-480.41 1666.55,-481.17 1668.01,-481.96 1669.27,-482.78 1670.33,-483.62 1671.19,-484.48 1671.85,-485.36 1672.3,-486.26 1672.57,-487.17 1672.64,-488.09 1672.52,-489.02 1672.22,-489.96 1671.75,-490.9 1671.11,-491.84 1670.3,-492.78 1669.34,-493.72 1668.23,-494.65 1666.99,-495.58 1665.61,-496.49 1664.11,-497.38 1662.5,-498.26 1660.78,-499.12 1658.97,-499.96 1657.07,-500.78 1655.08,-501.57 1653.02,-502.33 1650.9,-503.07 1648.71,-503.77 1646.47,-504.43 1644.19,-505.06 1641.86,-505.66 1639.5,-506.21 1637.11,-506.72 1634.69,-507.2 1632.25,-507.62 1629.79,-508.01 1627.31,-508.35 1624.82,-508.64 1622.32,-508.88 1619.81,-509.08 1617.3,-509.22 1614.78,-509.32 1612.26,-509.37 1609.74,-509.37 1607.22,-509.32 1604.7,-509.22 1602.19,-509.08 1599.68,-508.88 1597.18,-508.64 1594.69,-508.35 1592.21,-508.01 1589.75,-507.62 1587.31,-507.2 1584.89,-506.72 1582.5,-506.21 1580.14,-505.66 1577.81,-505.06 1575.53,-504.43 1573.29,-503.77 1571.1,-503.07 1568.98,-502.33 1566.92,-501.57 1564.93,-500.78 1563.03,-499.96 1561.22,-499.12 1559.5,-498.26 1557.89,-497.38 1556.39,-496.49 1555.01,-495.58 1553.77,-494.65 1552.66,-493.72 1551.7,-492.78 1550.89,-491.84 1550.25,-490.9 1549.78,-489.96 1549.48,-489.02 1549.36,-488.09 1549.43,-487.17 1549.7,-486.26 1550.15,-485.36 1550.81,-484.48 1551.67,-483.62 1552.73,-482.78 1553.99,-481.96 1555.45,-481.17 1557.11,-480.41 1558.97,-479.68 1561.02,-478.98 1563.26,-478.31 1565.68,-477.68 1568.27,-477.09 1571.03,-476.53 1573.94,-476.02 1577.01,-475.55 1580.2,-475.12 1583.52,-474.74 1586.96,-474.4 1590.49,-474.11 1594.1,-473.86 1597.78,-473.67 1601.52,-473.52 1605.3,-473.42 1609.1,-473.37 1612.9,-473.37 1616.7,-473.42"/>
<text xml:space="preserve" text-anchor="middle" x="1611" y="-487.1" font-family="Times New Roman,serif" font-size="12.00">loader_example</text>
</g>
<!-- node33 -->
<g id="node42" class="node">
<title>node33</title>
<polygon fill="none" stroke="black" points="1769.11,-496.93 1730,-509.37 1690.89,-496.93 1705.83,-476.81 1754.17,-476.81 1769.11,-496.93"/>
<text xml:space="preserve" text-anchor="middle" x="1730" y="-487.1" font-family="Times New Roman,serif" font-size="12.00">tinygltf</text>
</g>
</g>
</svg>
