<?xml version="1.0" encoding="UTF-8" standalone="no"?>
<!DOCTYPE svg PUBLIC "-//W3C//DTD SVG 1.1//EN"
 "http://www.w3.org/Graphics/SVG/1.1/DTD/svg11.dtd">
<!-- Generated by graphviz version 14.1.1 (20251213.1925)
 -->
<!-- Pages: 1 -->
<svg width="2881pt" height="558pt"
 viewBox="0.00 0.00 2881.00 558.00" xmlns="http://www.w3.org/2000/svg" xmlns:xlink="http://www.w3.org/1999/xlink">
<g id="graph0" class="graph" transform="scale(1 1) rotate(0) translate(4 553.87)">
<polygon fill="white" stroke="none" points="-4,4 -4,-553.87 2876.56,-553.87 2876.56,4 -4,4"/>
<g id="clust1" class="cluster">
<title>clusterLegend</title>
<polygon fill="none" stroke="black" points="8,-284 8,-541.87 544,-541.87 544,-284 8,-284"/>
<text xml:space="preserve" text-anchor="middle" x="276" y="-524.57" font-family="Times New Roman,serif" font-size="14.00">Legend</text>
</g>
<!-- legendNode0 -->
<g id="node1" class="node">
<title>legendNode0</title>
<polygon fill="none" stroke="black" points="288.29,-473.42 291.14,-473.52 293.95,-473.67 296.72,-473.86 299.44,-474.11 302.1,-474.4 304.68,-474.74 307.18,-475.12 309.59,-475.55 311.89,-476.02 314.09,-476.53 316.17,-477.09 318.12,-477.68 319.94,-478.31 321.62,-478.98 323.17,-479.68 324.57,-480.41 325.82,-481.17 326.92,-481.96 327.87,-482.78 328.66,-483.62 329.31,-484.48 329.8,-485.36 330.15,-486.26 330.34,-487.17 330.4,-488.09 330.31,-489.02 330.08,-489.96 329.73,-490.9 329.24,-491.84 328.64,-492.78 327.92,-493.72 327.08,-494.65 326.14,-495.58 325.11,-496.49 323.98,-497.38 322.77,-498.26 321.48,-499.12 320.11,-499.96 318.68,-500.78 317.18,-501.57 315.63,-502.33 314.03,-503.07 312.39,-503.77 310.7,-504.43 308.98,-505.06 307.23,-505.66 305.46,-506.21 303.65,-506.72 301.83,-507.2 300,-507.62 298.14,-508.01 296.28,-508.35 294.4,-508.64 292.52,-508.88 290.63,-509.08 288.74,-509.22 286.85,-509.32 284.95,-509.37 283.05,-509.37 281.15,-509.32 279.26,-509.22 277.37,-509.08 275.48,-508.88 273.6,-508.64 271.72,-508.35 269.86,-508.01 268,-507.62 266.17,-507.2 264.35,-506.72 262.54,-506.21 260.77,-505.66 259.02,-505.06 257.3,-504.43 255.61,-503.77 253.97,-503.07 252.37,-502.33 250.82,-501.57 249.32,-500.78 247.89,-499.96 246.52,-499.12 245.23,-498.26 244.02,-497.38 242.89,-496.49 241.86,-495.58 240.92,-494.65 240.08,-493.72 239.36,-492.78 238.76,-491.84 238.27,-490.9 237.92,-489.96 237.69,-489.02 237.6,-488.09 237.66,-487.17 237.85,-486.26 238.2,-485.36 238.69,-484.48 239.34,-483.62 240.13,-482.78 241.08,-481.96 242.18,-481.17 243.43,-480.41 244.83,-479.68 246.38,-478.98 248.06,-478.31 249.88,-477.68 251.83,-477.09 253.91,-476.53 256.11,-476.02 258.41,-475.55 260.82,-475.12 263.32,-474.74 265.9,-474.4 268.56,-474.11 271.28,-473.86 274.05,-473.67 276.86,-473.52 279.71,-473.42 282.57,-473.37 285.43,-473.37 288.29,-473.42"/>
<text xml:space="preserve" text-anchor="middle" x="284" y="-487.1" font-family="Times New Roman,serif" font-size="12.00">Executable</text>
</g>
<!-- legendNode1 -->
<g id="node2" class="node">
<title>legendNode1</title>
<polygon fill="none" stroke="black" points="126.42,-400.98 126.42,-415.89 93.96,-426.44 48.04,-426.44 15.58,-415.89 15.58,-400.98 48.04,-390.44 93.96,-390.44 126.42,-400.98"/>
<text xml:space="preserve" text-anchor="middle" x="71" y="-404.16" font-family="Times New Roman,serif" font-size="12.00">Static Library</text>
</g>
<!-- legendNode0&#45;&gt;legendNode1 -->
<g id="edge1" class="edge">
<title>legendNode0&#45;&gt;legendNode1</title>
<path fill="none" stroke="black" d="M247.98,-477.89C217.69,-467.26 173.31,-451.36 135,-436.37 128.3,-433.75 121.24,-430.88 114.35,-428.03"/>
<polygon fill="black" stroke="black" points="115.73,-424.81 105.15,-424.18 113.03,-431.27 115.73,-424.81"/>
</g>
<!-- legendNode2 -->
<g id="node3" class="node">
<title>legendNode2</title>
<polygon fill="none" stroke="black" points="268.07,-400.98 268.07,-415.89 232.88,-426.44 183.12,-426.44 147.93,-415.89 147.93,-400.98 183.12,-390.44 232.88,-390.44 268.07,-400.98"/>
<polygon fill="none" stroke="black" points="272.07,-398 272.07,-418.87 233.47,-430.44 182.53,-430.44 143.93,-418.87 143.93,-398 182.53,-386.44 233.47,-386.44 272.07,-398"/>
<text xml:space="preserve" text-anchor="middle" x="208" y="-404.16" font-family="Times New Roman,serif" font-size="12.00">Shared Library</text>
</g>
<!-- legendNode0&#45;&gt;legendNode2 -->
<g id="edge2" class="edge">
<title>legendNode0&#45;&gt;legendNode2</title>
<path fill="none" stroke="black" d="M268.62,-473.99C259.2,-463.96 246.85,-450.81 235.77,-439.01"/>
<polygon fill="black" stroke="black" points="238.41,-436.71 229.01,-431.81 233.31,-441.5 238.41,-436.71"/>
</g>
<!-- legendNode3 -->
<g id="node4" class="node">
<title>legendNode3</title>
<polygon fill="none" stroke="black" points="423.65,-400.98 423.65,-415.89 386.95,-426.44 335.05,-426.44 298.35,-415.89 298.35,-400.98 335.05,-390.44 386.95,-390.44 423.65,-400.98"/>
<polygon fill="none" stroke="black" points="427.65,-397.97 427.65,-418.9 387.51,-430.44 334.49,-430.44 294.35,-418.9 294.35,-397.97 334.49,-386.44 387.51,-386.44 427.65,-397.97"/>
<polygon fill="none" stroke="black" points="431.65,-394.95 431.65,-421.92 388.08,-434.44 333.92,-434.44 290.35,-421.92 290.35,-394.95 333.92,-382.44 388.08,-382.44 431.65,-394.95"/>
<text xml:space="preserve" text-anchor="middle" x="361" y="-404.16" font-family="Times New Roman,serif" font-size="12.00">Module Library</text>
</g>
<!-- legendNode0&#45;&gt;legendNode3 -->
<!-- legendNode7 -->
<g id="node8" class="node">
<title>legendNode7</title>
<polygon fill="none" stroke="black" points="535.88,-426.44 450.12,-426.44 450.12,-390.44 535.88,-390.44 535.88,-426.44"/>
<text xml:space="preserve" text-anchor="middle" x="493" y="-404.16" font-family="Times New Roman,serif" font-size="12.00">Custom Target</text>
</g>
<!-- legendNode0&#45;&gt;legendNode7 -->
<!-- legendNode4 -->
<g id="node5" class="node">
<title>legendNode4</title>
<polygon fill="none" stroke="black" points="166.08,-315.56 91,-328 15.92,-315.56 44.6,-295.44 137.4,-295.44 166.08,-315.56"/>
<text xml:space="preserve" text-anchor="middle" x="91" y="-305.73" font-family="Times New Roman,serif" font-size="12.00">Interface Library</text>
</g>
<!-- legendNode1&#45;&gt;legendNode4 -->
<g id="edge4" class="edge">
<title>legendNode1&#45;&gt;legendNode4</title>
<path fill="none" stroke="black" stroke-dasharray="5,2" d="M74.58,-390.2C77.52,-375.98 81.76,-355.54 85.19,-338.99"/>
<polygon fill="black" stroke="black" points="88.61,-339.75 87.21,-329.25 81.76,-338.33 88.61,-339.75"/>
<text xml:space="preserve" text-anchor="middle" x="107.38" y="-349.2" font-family="Times New Roman,serif" font-size="14.00">Interface</text>
</g>
<!-- legendNode5 -->
<g id="node6" class="node">
<title>legendNode5</title>
<polygon fill="none" stroke="black" points="309.98,-310 278.49,-328 215.51,-328 184.02,-310 215.51,-292 278.49,-292 309.98,-310"/>
<text xml:space="preserve" text-anchor="middle" x="247" y="-305.73" font-family="Times New Roman,serif" font-size="12.00">Object Library</text>
</g>
<!-- legendNode2&#45;&gt;legendNode5 -->
<g id="edge5" class="edge">
<title>legendNode2&#45;&gt;legendNode5</title>
<path fill="none" stroke="black" stroke-dasharray="1,5" d="M216.66,-386.03C222.29,-372.1 229.69,-353.79 235.78,-338.75"/>
<polygon fill="black" stroke="black" points="238.86,-340.46 239.36,-329.88 232.37,-337.84 238.86,-340.46"/>
<text xml:space="preserve" text-anchor="middle" x="251.27" y="-349.2" font-family="Times New Roman,serif" font-size="14.00">Private</text>
</g>
<!-- legendNode6 -->
<g id="node7" class="node">
<title>legendNode6</title>
<polygon fill="none" stroke="black" points="472.18,-305.99 457.89,-321.22 400,-328 342.11,-321.22 327.82,-305.99 367.88,-293.78 432.12,-293.78 472.18,-305.99"/>
<text xml:space="preserve" text-anchor="middle" x="400" y="-305.73" font-family="Times New Roman,serif" font-size="12.00">Unknown Library</text>
</g>
<!-- legendNode3&#45;&gt;legendNode6 -->
<g id="edge6" class="edge">
<title>legendNode3&#45;&gt;legendNode6</title>
<path fill="none" stroke="black" d="M371.25,-382.1C376.73,-368.54 383.49,-351.83 389.07,-338.02"/>
<polygon fill="black" stroke="black" points="392.18,-339.67 392.69,-329.08 385.69,-337.04 392.18,-339.67"/>
</g>
<!-- node0 -->
<g id="node9" class="node">
<title>node0</title>
<polygon fill="none" stroke="black" points="1554.12,-473.42 1556.18,-473.52 1558.23,-473.67 1560.24,-473.86 1562.21,-474.11 1564.14,-474.4 1566.02,-474.74 1567.84,-475.12 1569.59,-475.55 1571.26,-476.02 1572.85,-476.53 1574.36,-477.09 1575.78,-477.68 1577.1,-478.31 1578.33,-478.98 1579.45,-479.68 1580.46,-480.41 1581.37,-481.17 1582.17,-481.96 1582.86,-482.78 1583.44,-483.62 1583.91,-484.48 1584.26,-485.36 1584.51,-486.26 1584.66,-487.17 1584.7,-488.09 1584.63,-489.02 1584.47,-489.96 1584.21,-490.9 1583.86,-491.84 1583.42,-492.78 1582.89,-493.72 1582.29,-494.65 1581.61,-495.58 1580.86,-496.49 1580.04,-497.38 1579.16,-498.26 1578.22,-499.12 1577.23,-499.96 1576.18,-500.78 1575.1,-501.57 1573.97,-502.33 1572.81,-503.07 1571.62,-503.77 1570.39,-504.43 1569.15,-505.06 1567.87,-505.66 1566.58,-506.21 1565.27,-506.72 1563.95,-507.2 1562.62,-507.62 1561.27,-508.01 1559.92,-508.35 1558.56,-508.64 1557.19,-508.88 1555.82,-509.08 1554.44,-509.22 1553.07,-509.32 1551.69,-509.37 1550.31,-509.37 1548.93,-509.32 1547.56,-509.22 1546.18,-509.08 1544.81,-508.88 1543.44,-508.64 1542.08,-508.35 1540.73,-508.01 1539.38,-507.62 1538.05,-507.2 1536.73,-506.72 1535.42,-506.21 1534.13,-505.66 1532.85,-505.06 1531.61,-504.43 1530.38,-503.77 1529.19,-503.07 1528.03,-502.33 1526.9,-501.57 1525.82,-500.78 1524.77,-499.96 1523.78,-499.12 1522.84,-498.26 1521.96,-497.38 1521.14,-496.49 1520.39,-495.58 1519.71,-494.65 1519.11,-493.72 1518.58,-492.78 1518.14,-491.84 1517.79,-490.9 1517.53,-489.96 1517.37,-489.02 1517.3,-488.09 1517.34,-487.17 1517.49,-486.26 1517.74,-485.36 1518.09,-484.48 1518.56,-483.62 1519.14,-482.78 1519.83,-481.96 1520.63,-481.17 1521.54,-480.41 1522.55,-479.68 1523.67,-478.98 1524.9,-478.31 1526.22,-477.68 1527.64,-477.09 1529.15,-476.53 1530.74,-476.02 1532.41,-475.55 1534.16,-475.12 1535.98,-474.74 1537.86,-474.4 1539.79,-474.11 1541.76,-473.86 1543.77,-473.67 1545.82,-473.52 1547.88,-473.42 1549.96,-473.37 1552.04,-473.37 1554.12,-473.42"/>
<text xml:space="preserve" text-anchor="middle" x="1551" y="-487.1" font-family="Times New Roman,serif" font-size="12.00">Engine</text>
</g>
<!-- node1 -->
<g id="node10" class="node">
<title>node1</title>
<polygon fill="none" stroke="black" points="725.72,-396.86 725.72,-420.01 675.51,-436.37 604.49,-436.37 554.28,-420.01 554.28,-396.86 604.49,-380.5 675.51,-380.5 725.72,-396.86"/>
<text xml:space="preserve" text-anchor="middle" x="640" y="-411.29" font-family="Times New Roman,serif" font-size="12.00">TracyClient</text>
<text xml:space="preserve" text-anchor="middle" x="640" y="-397.04" font-family="Times New Roman,serif" font-size="12.00">(Tracy::TracyClient)</text>
</g>
<!-- node0&#45;&gt;node1 -->
<g id="edge9" class="edge">
<title>node0&#45;&gt;node1</title>
<path fill="none" stroke="black" stroke-dasharray="1,5" d="M1516.95,-487.35C1389.57,-476.03 938.19,-435.93 737.46,-418.09"/>
<polygon fill="black" stroke="black" points="737.84,-414.61 727.57,-417.22 737.22,-421.59 737.84,-414.61"/>
</g>
<!-- node3 -->
<g id="node12" class="node">
<title>node3</title>
<polygon fill="none" stroke="black" points="1095.24,-404.43 1082.52,-419.66 1031,-426.44 979.48,-419.66 966.76,-404.43 1002.41,-392.22 1059.59,-392.22 1095.24,-404.43"/>
<text xml:space="preserve" text-anchor="middle" x="1031" y="-404.16" font-family="Times New Roman,serif" font-size="12.00">Vulkan::Vulkan</text>
</g>
<!-- node0&#45;&gt;node3 -->
<g id="edge10" class="edge">
<title>node0&#45;&gt;node3</title>
<path fill="none" stroke="black" stroke-dasharray="1,5" d="M1516.88,-488.96C1441.44,-485.26 1255.21,-472.87 1104,-436.37 1093.68,-433.88 1082.82,-430.38 1072.72,-426.73"/>
<polygon fill="black" stroke="black" points="1074.13,-423.52 1063.54,-423.27 1071.67,-430.07 1074.13,-423.52"/>
</g>
<!-- node4 -->
<g id="node13" class="node">
<title>node4</title>
<polygon fill="none" stroke="black" points="1206.78,-414 1160,-426.44 1113.22,-414 1131.09,-393.87 1188.91,-393.87 1206.78,-414"/>
<text xml:space="preserve" text-anchor="middle" x="1160" y="-404.16" font-family="Times New Roman,serif" font-size="12.00">asio::asio</text>
</g>
<!-- node0&#45;&gt;node4 -->
<g id="edge12" class="edge">
<title>node0&#45;&gt;node4</title>
<path fill="none" stroke="black" stroke-dasharray="1,5" d="M1516.98,-488.14C1455.6,-483.4 1322.8,-469.88 1216,-436.37 1207.72,-433.77 1199.11,-430.15 1191.21,-426.4"/>
<polygon fill="black" stroke="black" points="1192.82,-423.29 1182.3,-421.97 1189.7,-429.56 1192.82,-423.29"/>
</g>
<!-- node6 -->
<g id="node15" class="node">
<title>node6</title>
<polygon fill="none" stroke="black" points="1410.77,-414 1318,-426.44 1225.23,-414 1260.67,-393.87 1375.33,-393.87 1410.77,-414"/>
<text xml:space="preserve" text-anchor="middle" x="1318" y="-404.16" font-family="Times New Roman,serif" font-size="12.00">flatbuffers::flatbuffers</text>
</g>
<!-- node0&#45;&gt;node6 -->
<g id="edge16" class="edge">
<title>node0&#45;&gt;node6</title>
<path fill="none" stroke="black" stroke-dasharray="1,5" d="M1521.49,-480.12C1482.04,-466.42 1411.67,-441.97 1364.91,-425.73"/>
<polygon fill="black" stroke="black" points="1366.17,-422.46 1355.57,-422.49 1363.87,-429.07 1366.17,-422.46"/>
</g>
<!-- node10 -->
<g id="node19" class="node">
<title>node10</title>
<polygon fill="none" stroke="black" points="1487.68,-414 1458,-426.44 1428.32,-414 1439.66,-393.87 1476.34,-393.87 1487.68,-414"/>
<text xml:space="preserve" text-anchor="middle" x="1458" y="-404.16" font-family="Times New Roman,serif" font-size="12.00">glfw</text>
</g>
<!-- node0&#45;&gt;node10 -->
<g id="edge23" class="edge">
<title>node0&#45;&gt;node10</title>
<path fill="none" stroke="black" stroke-dasharray="1,5" d="M1533.51,-475.15C1518.32,-461.93 1496.27,-442.74 1479.91,-428.51"/>
<polygon fill="black" stroke="black" points="1482.48,-426.1 1472.64,-422.17 1477.88,-431.38 1482.48,-426.1"/>
</g>
<!-- node17 -->
<g id="node26" class="node">
<title>node17</title>
<polygon fill="none" stroke="black" points="1596.6,-414 1551,-426.44 1505.4,-414 1522.82,-393.87 1579.18,-393.87 1596.6,-414"/>
<text xml:space="preserve" text-anchor="middle" x="1551" y="-404.16" font-family="Times New Roman,serif" font-size="12.00">glm::glm</text>
</g>
<!-- node0&#45;&gt;node17 -->
<g id="edge25" class="edge">
<title>node0&#45;&gt;node17</title>
<path fill="none" stroke="black" stroke-dasharray="1,5" d="M1551,-473.21C1551,-463.08 1551,-450 1551,-438.33"/>
<polygon fill="black" stroke="black" points="1554.5,-438.37 1551,-428.37 1547.5,-438.37 1554.5,-438.37"/>
</g>
<!-- node19 -->
<g id="node28" class="node">
<title>node19</title>
<polygon fill="none" stroke="black" points="1693.7,-414 1654,-426.44 1614.3,-414 1629.46,-393.87 1678.54,-393.87 1693.7,-414"/>
<text xml:space="preserve" text-anchor="middle" x="1654" y="-404.16" font-family="Times New Roman,serif" font-size="12.00">lua::lua</text>
</g>
<!-- node0&#45;&gt;node19 -->
<g id="edge28" class="edge">
<title>node0&#45;&gt;node19</title>
<path fill="none" stroke="black" stroke-dasharray="1,5" d="M1569.89,-475.53C1586.61,-462.39 1611.11,-443.14 1629.36,-428.8"/>
<polygon fill="black" stroke="black" points="1631.37,-431.67 1637.07,-422.74 1627.05,-426.16 1631.37,-431.67"/>
</g>
<!-- node22 -->
<g id="node31" class="node">
<title>node22</title>
<polygon fill="none" stroke="black" points="1974.68,-414 1843,-426.44 1711.32,-414 1761.62,-393.87 1924.38,-393.87 1974.68,-414"/>
<text xml:space="preserve" text-anchor="middle" x="1843" y="-404.16" font-family="Times New Roman,serif" font-size="12.00">nlohmann_json::nlohmann_json</text>
</g>
<!-- node0&#45;&gt;node22 -->
<g id="edge30" class="edge">
<title>node0&#45;&gt;node22</title>
<path fill="none" stroke="black" stroke-dasharray="1,5" d="M1578.37,-478.68C1583.2,-476.79 1588.22,-474.94 1593,-473.37 1653.93,-453.35 1724.91,-435.72 1775.63,-424.08"/>
<polygon fill="black" stroke="black" points="1776.33,-427.51 1785.3,-421.88 1774.77,-420.68 1776.33,-427.51"/>
</g>
<!-- node24 -->
<g id="node33" class="node">
<title>node24</title>
<polygon fill="none" stroke="black" points="2093.31,-414 2043,-426.44 1992.69,-414 2011.9,-393.87 2074.1,-393.87 2093.31,-414"/>
<text xml:space="preserve" text-anchor="middle" x="2043" y="-404.16" font-family="Times New Roman,serif" font-size="12.00">pmp::pmp</text>
</g>
<!-- node0&#45;&gt;node24 -->
<g id="edge35" class="edge">
<title>node0&#45;&gt;node24</title>
<path fill="none" stroke="black" stroke-dasharray="1,5" d="M1577.73,-478.21C1582.72,-476.33 1587.96,-474.6 1593,-473.37 1762.57,-431.97 1815.37,-481.47 1984,-436.37 1993.03,-433.96 2002.4,-430.28 2010.94,-426.41"/>
<polygon fill="black" stroke="black" points="2012.36,-429.61 2019.87,-422.14 2009.34,-423.3 2012.36,-429.61"/>
</g>
<!-- node29 -->
<g id="node38" class="node">
<title>node29</title>
<polygon fill="none" stroke="black" points="2189.11,-414 2150,-426.44 2110.89,-414 2125.83,-393.87 2174.17,-393.87 2189.11,-414"/>
<text xml:space="preserve" text-anchor="middle" x="2150" y="-404.16" font-family="Times New Roman,serif" font-size="12.00">tinygltf</text>
</g>
<!-- node0&#45;&gt;node29 -->
<g id="edge36" class="edge">
<title>node0&#45;&gt;node29</title>
<path fill="none" stroke="black" stroke-dasharray="1,5" d="M1577.71,-478.12C1582.7,-476.25 1587.94,-474.55 1593,-473.37 1703.46,-447.67 1993.39,-469.02 2102,-436.37 2109.21,-434.21 2116.52,-430.82 2123.2,-427.18"/>
<polygon fill="black" stroke="black" points="2124.91,-430.23 2131.75,-422.14 2121.35,-424.2 2124.91,-430.23"/>
</g>
<!-- node30 -->
<g id="node39" class="node">
<title>node30</title>
<polygon fill="none" stroke="black" points="2464.17,-414 2349,-426.44 2233.83,-414 2277.82,-393.87 2420.18,-393.87 2464.17,-414"/>
<text xml:space="preserve" text-anchor="middle" x="2349" y="-404.16" font-family="Times New Roman,serif" font-size="12.00">tinyobjloader::tinyobjloader</text>
</g>
<!-- node0&#45;&gt;node30 -->
<g id="edge39" class="edge">
<title>node0&#45;&gt;node30</title>
<path fill="none" stroke="black" stroke-dasharray="1,5" d="M1577.23,-478.2C1582.36,-476.26 1587.78,-474.52 1593,-473.37 1671.87,-455.98 1875.4,-460.53 1956,-455.37 2063.67,-448.48 2090.99,-450.08 2198,-436.37 2225.49,-432.85 2255.6,-427.74 2281.64,-422.91"/>
<polygon fill="black" stroke="black" points="2282.24,-426.36 2291.42,-421.07 2280.95,-419.48 2282.24,-426.36"/>
</g>
<!-- node2 -->
<g id="node11" class="node">
<title>node2</title>
<polygon fill="none" stroke="black" points="712.44,-315.56 635,-328 557.56,-315.56 587.14,-295.44 682.86,-295.44 712.44,-315.56"/>
<text xml:space="preserve" text-anchor="middle" x="635" y="-305.73" font-family="Times New Roman,serif" font-size="12.00">Threads::Threads</text>
</g>
<!-- node1&#45;&gt;node2 -->
<g id="edge8" class="edge">
<title>node1&#45;&gt;node2</title>
<path fill="none" stroke="black" d="M638.58,-380.06C637.92,-367.4 637.14,-352.37 636.48,-339.56"/>
<polygon fill="black" stroke="black" points="639.98,-339.44 635.97,-329.63 632.99,-339.8 639.98,-339.44"/>
</g>
<!-- node5 -->
<g id="node14" class="node">
<title>node5</title>
<polygon fill="none" stroke="black" points="925.48,-315.56 828,-328 730.52,-315.56 767.75,-295.44 888.25,-295.44 925.48,-315.56"/>
<text xml:space="preserve" text-anchor="middle" x="828" y="-305.73" font-family="Times New Roman,serif" font-size="12.00">asio_DEPS_TARGET</text>
</g>
<!-- node4&#45;&gt;node5 -->
<g id="edge11" class="edge">
<title>node4&#45;&gt;node5</title>
<path fill="none" stroke="black" stroke-dasharray="5,2" d="M1133.7,-393.43C1124.48,-388.89 1113.94,-384.1 1104,-380.5 1033.88,-355.1 950.5,-335.49 893.87,-323.68"/>
<polygon fill="black" stroke="black" points="894.9,-320.31 884.4,-321.72 893.48,-327.17 894.9,-320.31"/>
</g>
<!-- node7 -->
<g id="node16" class="node">
<title>node7</title>
<polygon fill="none" stroke="black" points="1148.2,-315.56 1046,-328 943.8,-315.56 982.84,-295.44 1109.16,-295.44 1148.2,-315.56"/>
<text xml:space="preserve" text-anchor="middle" x="1046" y="-305.73" font-family="Times New Roman,serif" font-size="12.00">flatbuffers::libflatbuffers</text>
</g>
<!-- node6&#45;&gt;node7 -->
<g id="edge15" class="edge">
<title>node6&#45;&gt;node7</title>
<path fill="none" stroke="black" stroke-dasharray="5,2" d="M1278.45,-393.41C1229.34,-376 1145.67,-346.34 1093.24,-327.75"/>
<polygon fill="black" stroke="black" points="1094.57,-324.51 1083.98,-324.46 1092.23,-331.1 1094.57,-324.51"/>
</g>
<!-- node8 -->
<g id="node17" class="node">
<title>node8</title>
<polygon fill="none" stroke="black" points="1225.55,-229.54 1225.55,-244.46 1079.37,-255 872.63,-255 726.45,-244.46 726.45,-229.54 872.63,-219 1079.37,-219 1225.55,-229.54"/>
<text xml:space="preserve" text-anchor="middle" x="976" y="-232.72" font-family="Times New Roman,serif" font-size="12.00">CONAN_LIB::flatbuffers_flatbuffers_libflatbuffers_flatbuffers_DEBUG</text>
</g>
<!-- node7&#45;&gt;node8 -->
<g id="edge14" class="edge">
<title>node7&#45;&gt;node8</title>
<path fill="none" stroke="black" stroke-dasharray="5,2" d="M1032.17,-294.97C1023.3,-285.98 1011.54,-274.04 1001.06,-263.42"/>
<polygon fill="black" stroke="black" points="1003.59,-261 994.08,-256.34 998.61,-265.92 1003.59,-261"/>
</g>
<!-- node9 -->
<g id="node18" class="node">
<title>node9</title>
<polygon fill="none" stroke="black" points="1190.82,-169.56 976,-182 761.18,-169.56 843.23,-149.44 1108.77,-149.44 1190.82,-169.56"/>
<text xml:space="preserve" text-anchor="middle" x="976" y="-159.72" font-family="Times New Roman,serif" font-size="12.00">flatbuffers_flatbuffers_libflatbuffers_DEPS_TARGET</text>
</g>
<!-- node8&#45;&gt;node9 -->
<g id="edge13" class="edge">
<title>node8&#45;&gt;node9</title>
<path fill="none" stroke="black" stroke-dasharray="5,2" d="M976,-218.81C976,-211.23 976,-202.1 976,-193.54"/>
<polygon fill="black" stroke="black" points="979.5,-193.54 976,-183.54 972.5,-193.54 979.5,-193.54"/>
</g>
<!-- node11 -->
<g id="node20" class="node">
<title>node11</title>
<polygon fill="none" stroke="black" points="1435.93,-302.54 1435.93,-317.46 1356.89,-328 1245.11,-328 1166.07,-317.46 1166.07,-302.54 1245.11,-292 1356.89,-292 1435.93,-302.54"/>
<text xml:space="preserve" text-anchor="middle" x="1301" y="-305.73" font-family="Times New Roman,serif" font-size="12.00">CONAN_LIB::glfw_glfw3_DEBUG</text>
</g>
<!-- node10&#45;&gt;node11 -->
<g id="edge22" class="edge">
<title>node10&#45;&gt;node11</title>
<path fill="none" stroke="black" stroke-dasharray="5,2" d="M1439.28,-393.68C1433.21,-389.34 1426.39,-384.62 1420,-380.5 1394.69,-364.18 1365.5,-347.11 1342.36,-333.97"/>
<polygon fill="black" stroke="black" points="1344.27,-331.02 1333.84,-329.15 1340.82,-337.12 1344.27,-331.02"/>
</g>
<!-- node12 -->
<g id="node21" class="node">
<title>node12</title>
<polygon fill="none" stroke="black" points="1442.84,-242.56 1343,-255 1243.16,-242.56 1281.29,-222.44 1404.71,-222.44 1442.84,-242.56"/>
<text xml:space="preserve" text-anchor="middle" x="1343" y="-232.72" font-family="Times New Roman,serif" font-size="12.00">glfw_DEPS_TARGET</text>
</g>
<!-- node11&#45;&gt;node12 -->
<g id="edge21" class="edge">
<title>node11&#45;&gt;node12</title>
<path fill="none" stroke="black" stroke-dasharray="5,2" d="M1311.17,-291.81C1316.16,-283.37 1322.28,-273.03 1327.81,-263.68"/>
<polygon fill="black" stroke="black" points="1330.65,-265.75 1332.73,-255.36 1324.63,-262.18 1330.65,-265.75"/>
</g>
<!-- node13 -->
<g id="node22" class="node">
<title>node13</title>
<polygon fill="none" stroke="black" points="1308.36,-159.99 1302.34,-175.22 1278,-182 1253.66,-175.22 1247.64,-159.99 1264.49,-147.78 1291.51,-147.78 1308.36,-159.99"/>
<text xml:space="preserve" text-anchor="middle" x="1278" y="-159.72" font-family="Times New Roman,serif" font-size="12.00">gdi32</text>
</g>
<!-- node12&#45;&gt;node13 -->
<g id="edge17" class="edge">
<title>node12&#45;&gt;node13</title>
<path fill="none" stroke="black" stroke-dasharray="5,2" d="M1330.16,-221.97C1320.96,-211.92 1308.4,-198.2 1297.9,-186.74"/>
<polygon fill="black" stroke="black" points="1300.73,-184.65 1291.4,-179.63 1295.57,-189.37 1300.73,-184.65"/>
</g>
<!-- node14 -->
<g id="node23" class="node">
<title>node14</title>
<polygon fill="none" stroke="black" points="1462,-169.56 1394,-182 1326,-169.56 1351.97,-149.44 1436.03,-149.44 1462,-169.56"/>
<text xml:space="preserve" text-anchor="middle" x="1394" y="-159.72" font-family="Times New Roman,serif" font-size="12.00">opengl::opengl</text>
</g>
<!-- node12&#45;&gt;node14 -->
<g id="edge20" class="edge">
<title>node12&#45;&gt;node14</title>
<path fill="none" stroke="black" stroke-dasharray="5,2" d="M1353.08,-221.97C1359.81,-212.6 1368.85,-200.02 1376.71,-189.06"/>
<polygon fill="black" stroke="black" points="1379.37,-191.37 1382.36,-181.21 1373.68,-187.29 1379.37,-191.37"/>
</g>
<!-- node15 -->
<g id="node24" class="node">
<title>node15</title>
<polygon fill="none" stroke="black" points="1502.1,-96.56 1394,-109 1285.9,-96.56 1327.19,-76.44 1460.81,-76.44 1502.1,-96.56"/>
<text xml:space="preserve" text-anchor="middle" x="1394" y="-86.72" font-family="Times New Roman,serif" font-size="12.00">opengl_DEPS_TARGET</text>
</g>
<!-- node14&#45;&gt;node15 -->
<g id="edge19" class="edge">
<title>node14&#45;&gt;node15</title>
<path fill="none" stroke="black" stroke-dasharray="5,2" d="M1394,-148.97C1394,-140.87 1394,-130.38 1394,-120.61"/>
<polygon fill="black" stroke="black" points="1397.5,-120.78 1394,-110.78 1390.5,-120.78 1397.5,-120.78"/>
</g>
<!-- node16 -->
<g id="node25" class="node">
<title>node16</title>
<polygon fill="none" stroke="black" points="1436.53,-13.99 1428.11,-29.22 1394,-36 1359.89,-29.22 1351.47,-13.99 1375.07,-1.78 1412.93,-1.78 1436.53,-13.99"/>
<text xml:space="preserve" text-anchor="middle" x="1394" y="-13.72" font-family="Times New Roman,serif" font-size="12.00">opengl32</text>
</g>
<!-- node15&#45;&gt;node16 -->
<g id="edge18" class="edge">
<title>node15&#45;&gt;node16</title>
<path fill="none" stroke="black" stroke-dasharray="5,2" d="M1394,-75.97C1394,-67.87 1394,-57.38 1394,-47.61"/>
<polygon fill="black" stroke="black" points="1397.5,-47.78 1394,-37.78 1390.5,-47.78 1397.5,-47.78"/>
</g>
<!-- node18 -->
<g id="node27" class="node">
<title>node18</title>
<polygon fill="none" stroke="black" points="1647.9,-315.56 1551,-328 1454.1,-315.56 1491.12,-295.44 1610.88,-295.44 1647.9,-315.56"/>
<text xml:space="preserve" text-anchor="middle" x="1551" y="-305.73" font-family="Times New Roman,serif" font-size="12.00">glm_DEPS_TARGET</text>
</g>
<!-- node17&#45;&gt;node18 -->
<g id="edge24" class="edge">
<title>node17&#45;&gt;node18</title>
<path fill="none" stroke="black" stroke-dasharray="5,2" d="M1551,-393.62C1551,-379.65 1551,-357.66 1551,-339.87"/>
<polygon fill="black" stroke="black" points="1554.5,-339.9 1551,-329.9 1547.5,-339.9 1554.5,-339.9"/>
</g>
<!-- node20 -->
<g id="node29" class="node">
<title>node20</title>
<polygon fill="none" stroke="black" points="1906.47,-302.54 1906.47,-317.46 1835.9,-328 1736.1,-328 1665.53,-317.46 1665.53,-302.54 1736.1,-292 1835.9,-292 1906.47,-302.54"/>
<text xml:space="preserve" text-anchor="middle" x="1786" y="-305.73" font-family="Times New Roman,serif" font-size="12.00">CONAN_LIB::lua_lua_DEBUG</text>
</g>
<!-- node19&#45;&gt;node20 -->
<g id="edge27" class="edge">
<title>node19&#45;&gt;node20</title>
<path fill="none" stroke="black" stroke-dasharray="5,2" d="M1673.19,-393.41C1694.12,-378.13 1727.97,-353.39 1753.14,-335.01"/>
<polygon fill="black" stroke="black" points="1755.08,-337.92 1761.09,-329.2 1750.96,-332.27 1755.08,-337.92"/>
</g>
<!-- node21 -->
<g id="node30" class="node">
<title>node21</title>
<polygon fill="none" stroke="black" points="1879.95,-242.56 1786,-255 1692.05,-242.56 1727.94,-222.44 1844.06,-222.44 1879.95,-242.56"/>
<text xml:space="preserve" text-anchor="middle" x="1786" y="-232.72" font-family="Times New Roman,serif" font-size="12.00">lua_DEPS_TARGET</text>
</g>
<!-- node20&#45;&gt;node21 -->
<g id="edge26" class="edge">
<title>node20&#45;&gt;node21</title>
<path fill="none" stroke="black" stroke-dasharray="5,2" d="M1786,-291.81C1786,-284.23 1786,-275.1 1786,-266.54"/>
<polygon fill="black" stroke="black" points="1789.5,-266.54 1786,-256.54 1782.5,-266.54 1789.5,-266.54"/>
</g>
<!-- node23 -->
<g id="node32" class="node">
<title>node23</title>
<polygon fill="none" stroke="black" points="2203.94,-315.56 2064,-328 1924.06,-315.56 1977.51,-295.44 2150.49,-295.44 2203.94,-315.56"/>
<text xml:space="preserve" text-anchor="middle" x="2064" y="-305.73" font-family="Times New Roman,serif" font-size="12.00">nlohmann_json_DEPS_TARGET</text>
</g>
<!-- node22&#45;&gt;node23 -->
<g id="edge29" class="edge">
<title>node22&#45;&gt;node23</title>
<path fill="none" stroke="black" stroke-dasharray="5,2" d="M1875.14,-393.41C1913.43,-376.7 1977.6,-348.7 2020.36,-330.04"/>
<polygon fill="black" stroke="black" points="2021.59,-333.33 2029.35,-326.12 2018.79,-326.91 2021.59,-333.33"/>
</g>
<!-- node25 -->
<g id="node34" class="node">
<title>node25</title>
<polygon fill="none" stroke="black" points="2481.77,-302.54 2481.77,-317.46 2405.75,-328 2298.25,-328 2222.23,-317.46 2222.23,-302.54 2298.25,-292 2405.75,-292 2481.77,-302.54"/>
<text xml:space="preserve" text-anchor="middle" x="2352" y="-305.73" font-family="Times New Roman,serif" font-size="12.00">CONAN_LIB::pmp_pmp_DEBUG</text>
</g>
<!-- node24&#45;&gt;node25 -->
<g id="edge34" class="edge">
<title>node24&#45;&gt;node25</title>
<path fill="none" stroke="black" stroke-dasharray="5,2" d="M2071.13,-393.5C2080.78,-389.02 2091.74,-384.24 2102,-380.5 2158.46,-359.91 2223.97,-341.9 2273.76,-329.38"/>
<polygon fill="black" stroke="black" points="2274.45,-332.82 2283.31,-327 2272.76,-326.02 2274.45,-332.82"/>
</g>
<!-- node26 -->
<g id="node35" class="node">
<title>node26</title>
<polygon fill="none" stroke="black" points="2451.25,-242.56 2352,-255 2252.75,-242.56 2290.66,-222.44 2413.34,-222.44 2451.25,-242.56"/>
<text xml:space="preserve" text-anchor="middle" x="2352" y="-232.72" font-family="Times New Roman,serif" font-size="12.00">pmp_DEPS_TARGET</text>
</g>
<!-- node25&#45;&gt;node26 -->
<g id="edge33" class="edge">
<title>node25&#45;&gt;node26</title>
<path fill="none" stroke="black" stroke-dasharray="5,2" d="M2352,-291.81C2352,-284.23 2352,-275.1 2352,-266.54"/>
<polygon fill="black" stroke="black" points="2355.5,-266.54 2352,-256.54 2348.5,-266.54 2355.5,-266.54"/>
</g>
<!-- node27 -->
<g id="node36" class="node">
<title>node27</title>
<polygon fill="none" stroke="black" points="2417.65,-169.56 2352,-182 2286.35,-169.56 2311.43,-149.44 2392.57,-149.44 2417.65,-169.56"/>
<text xml:space="preserve" text-anchor="middle" x="2352" y="-159.72" font-family="Times New Roman,serif" font-size="12.00">Eigen3::Eigen</text>
</g>
<!-- node26&#45;&gt;node27 -->
<g id="edge32" class="edge">
<title>node26&#45;&gt;node27</title>
<path fill="none" stroke="black" stroke-dasharray="5,2" d="M2352,-221.97C2352,-213.87 2352,-203.38 2352,-193.61"/>
<polygon fill="black" stroke="black" points="2355.5,-193.78 2352,-183.78 2348.5,-193.78 2355.5,-193.78"/>
</g>
<!-- node28 -->
<g id="node37" class="node">
<title>node28</title>
<polygon fill="none" stroke="black" points="2512.57,-96.56 2352,-109 2191.43,-96.56 2252.76,-76.44 2451.24,-76.44 2512.57,-96.56"/>
<text xml:space="preserve" text-anchor="middle" x="2352" y="-86.72" font-family="Times New Roman,serif" font-size="12.00">eigen_Eigen3_Eigen_DEPS_TARGET</text>
</g>
<!-- node27&#45;&gt;node28 -->
<g id="edge31" class="edge">
<title>node27&#45;&gt;node28</title>
<path fill="none" stroke="black" stroke-dasharray="5,2" d="M2352,-148.97C2352,-140.87 2352,-130.38 2352,-120.61"/>
<polygon fill="black" stroke="black" points="2355.5,-120.78 2352,-110.78 2348.5,-120.78 2355.5,-120.78"/>
</g>
<!-- node31 -->
<g id="node40" class="node">
<title>node31</title>
<polygon fill="none" stroke="black" points="2872.56,-302.54 2872.56,-317.46 2763.28,-328 2608.72,-328 2499.44,-317.46 2499.44,-302.54 2608.72,-292 2763.28,-292 2872.56,-302.54"/>
<text xml:space="preserve" text-anchor="middle" x="2686" y="-305.73" font-family="Times New Roman,serif" font-size="12.00">CONAN_LIB::tinyobjloader_tinyobjloader_DEBUG</text>
</g>
<!-- node30&#45;&gt;node31 -->
<g id="edge38" class="edge">
<title>node30&#45;&gt;node31</title>
<path fill="none" stroke="black" stroke-dasharray="5,2" d="M2398,-393.41C2454.78,-377.17 2548.84,-350.25 2613.95,-331.62"/>
<polygon fill="black" stroke="black" points="2614.84,-335 2623.49,-328.89 2612.91,-328.27 2614.84,-335"/>
</g>
<!-- node32 -->
<g id="node41" class="node">
<title>node32</title>
<polygon fill="none" stroke="black" points="2817.68,-242.56 2686,-255 2554.32,-242.56 2604.62,-222.44 2767.38,-222.44 2817.68,-242.56"/>
<text xml:space="preserve" text-anchor="middle" x="2686" y="-232.72" font-family="Times New Roman,serif" font-size="12.00">tinyobjloader_DEPS_TARGET</text>
</g>
<!-- node31&#45;&gt;node32 -->
<g id="edge37" class="edge">
<title>node31&#45;&gt;node32</title>
<path fill="none" stroke="black" stroke-dasharray="5,2" d="M2686,-291.81C2686,-284.23 2686,-275.1 2686,-266.54"/>
<polygon fill="black" stroke="black" points="2689.5,-266.54 2686,-256.54 2682.5,-266.54 2689.5,-266.54"/>
</g>
<!-- node33 -->
<g id="node42" class="node">
<title>node33</title>
<polygon fill="none" stroke="black" points="1669.7,-473.42 1673.48,-473.52 1677.22,-473.67 1680.9,-473.86 1684.51,-474.11 1688.04,-474.4 1691.48,-474.74 1694.8,-475.12 1697.99,-475.55 1701.06,-476.02 1703.97,-476.53 1706.73,-477.09 1709.32,-477.68 1711.74,-478.31 1713.98,-478.98 1716.03,-479.68 1717.89,-480.41 1719.55,-481.17 1721.01,-481.96 1722.27,-482.78 1723.33,-483.62 1724.19,-484.48 1724.85,-485.36 1725.3,-486.26 1725.57,-487.17 1725.64,-488.09 1725.52,-489.02 1725.22,-489.96 1724.75,-490.9 1724.11,-491.84 1723.3,-492.78 1722.34,-493.72 1721.23,-494.65 1719.99,-495.58 1718.61,-496.49 1717.11,-497.38 1715.5,-498.26 1713.78,-499.12 1711.97,-499.96 1710.07,-500.78 1708.08,-501.57 1706.02,-502.33 1703.9,-503.07 1701.71,-503.77 1699.47,-504.43 1697.19,-505.06 1694.86,-505.66 1692.5,-506.21 1690.11,-506.72 1687.69,-507.2 1685.25,-507.62 1682.79,-508.01 1680.31,-508.35 1677.82,-508.64 1675.32,-508.88 1672.81,-509.08 1670.3,-509.22 1667.78,-509.32 1665.26,-509.37 1662.74,-509.37 1660.22,-509.32 1657.7,-509.22 1655.19,-509.08 1652.68,-508.88 1650.18,-508.64 1647.69,-508.35 1645.21,-508.01 1642.75,-507.62 1640.31,-507.2 1637.89,-506.72 1635.5,-506.21 1633.14,-505.66 1630.81,-505.06 1628.53,-504.43 1626.29,-503.77 1624.1,-503.07 1621.98,-502.33 1619.92,-501.57 1617.93,-500.78 1616.03,-499.96 1614.22,-499.12 1612.5,-498.26 1610.89,-497.38 1609.39,-496.49 1608.01,-495.58 1606.77,-494.65 1605.66,-493.72 1604.7,-492.78 1603.89,-491.84 1603.25,-490.9 1602.78,-489.96 1602.48,-489.02 1602.36,-488.09 1602.43,-487.17 1602.7,-486.26 1603.15,-485.36 1603.81,-484.48 1604.67,-483.62 1605.73,-482.78 1606.99,-481.96 1608.45,-481.17 1610.11,-480.41 1611.97,-479.68 1614.02,-478.98 1616.26,-478.31 1618.68,-477.68 1621.27,-477.09 1624.03,-476.53 1626.94,-476.02 1630.01,-475.55 1633.2,-475.12 1636.52,-474.74 1639.96,-474.4 1643.49,-474.11 1647.1,-473.86 1650.78,-473.67 1654.52,-473.52 1658.3,-473.42 1662.1,-473.37 1665.9,-473.37 1669.7,-473.42"/>
<text xml:space="preserve" text-anchor="middle" x="1664" y="-487.1" font-family="Times New Roman,serif" font-size="12.00">loader_example</text>
</g>
</g>
</svg>
