# Blender 3.5.0
# www.blender.org
mtllib Spacefloor4.mtl
o Plane
v -5.000000 -5.000000 5.000000
v 5.000000 -5.000000 5.000000
v -5.000000 -5.000000 -5.000000
v 5.000000 -5.000000 -5.000000
vn -0.0000 1.0000 -0.0000
vt 0.000000 0.000000
vt 1.000000 0.000000
vt 0.000000 1.000000
vt 1.000000 1.000000
s 0
usemtl Skybox.Bottom
f 2/2/1 3/3/1 1/1/1
f 2/2/1 4/4/1 3/3/1
o Plane.001
v -5.000000 5.000001 -5.000000
v 5.000000 5.000001 -5.000000
v -5.000000 4.999999 5.000000
v 5.000000 4.999999 5.000000
vn -0.0000 -1.0000 -0.0000
vt 0.000000 0.000000
vt 1.000000 0.000000
vt 0.000000 1.000000
vt 1.000000 1.000000
s 0
usemtl Skybox.Top
f 6/6/2 7/7/2 5/5/2
f 6/6/2 8/8/2 7/7/2
o Plane.002
v 5.000002 5.000000 -5.000000
v 5.000003 -5.000000 -5.000000
v 4.999997 5.000000 5.000000
v 4.999998 -5.000000 5.000000
vn -1.0000 -0.0000 -0.0000
vt 0.000000 0.000000
vt 1.000000 0.000000
vt 0.000000 1.000000
vt 1.000000 1.000000
s 0
usemtl Skybox.Right
f 10/10/3 11/11/3 9/9/3
f 10/10/3 12/12/3 11/11/3
o Plane.003
v -4.999998 5.000000 -5.000000
v -4.999997 -5.000000 -5.000000
v -5.000003 5.000000 5.000000
v -5.000002 -5.000000 5.000000
vn 1.0000 -0.0000 -0.0000
vt 0.000000 0.000000
vt 1.000000 0.000000
vt 0.000000 1.000000
vt 1.000000 1.000000
s 0
usemtl Skybox.Left
f 15/15/4 14/14/4 13/13/4
f 15/15/4 16/16/4 14/14/4
o Plane.004
v -5.000000 5.000000 4.999998
v -5.000000 -5.000000 4.999998
v 5.000000 5.000000 5.000002
v 5.000000 -5.000000 5.000002
vn -0.0000 -0.0000 -1.0000
vt 0.000000 0.000000
vt 1.000000 0.000000
vt 0.000000 1.000000
vt 1.000000 1.000000
s 0
usemtl Skybox.Back
f 19/19/5 18/18/5 17/17/5
f 19/19/5 20/20/5 18/18/5
o Plane.005
v -5.000000 5.000000 -5.000002
v -5.000000 -5.000000 -5.000002
v 5.000000 5.000000 -4.999998
v 5.000000 -5.000000 -4.999998
vn -0.0000 -0.0000 1.0000
vt 0.000000 0.000000
vt 1.000000 0.000000
vt 0.000000 1.000000
vt 1.000000 1.000000
s 0
usemtl Skybox.Front
f 22/22/6 23/23/6 21/21/6
f 22/22/6 24/24/6 23/23/6
